<?xml version="1.0" encoding="UTF-8"?>
<svg width="204px" height="39px" viewBox="0 0 204 39" version="1.1" xmlns="http://www.w3.org/2000/svg" xmlns:xlink="http://www.w3.org/1999/xlink">
    <!-- Generator: Sketch 63.1 (92452) - https://sketch.com -->
    <title>Group 18</title>
    <desc>Created with Sketch.</desc>
    <defs>
        <polygon id="path-1" points="0 0.0470242441 29.7997617 0.0470242441 29.7997617 32.4007937 0 32.4007937"></polygon>
    </defs>
    <g id="Page-1" stroke="none" stroke-width="1" fill="none" fill-rule="evenodd">
        <g id="Landing-Mobile" transform="translate(-19.000000, -17.000000)">
            <g id="Group-18" transform="translate(19.000000, 17.000000)">
                <g id="Group-4">
                    <g id="Group-13-Copy">
                        <rect id="Rectangle" fill="#D9CE5F" x="0" y="0" width="39.1237557" height="39" rx="13"></rect>
                        <g id="Vulture-Copy-2" transform="translate(4.347084, 4.333333)">
                            <ellipse id="Oval" fill="#FFFFFF" cx="16.3237439" cy="12.7346939" rx="3.54863997" ry="3.53741497"></ellipse>
                            <g id="Group-3">
                                <mask id="mask-2" fill="white">
                                    <use xlink:href="#path-1"></use>
                                </mask>
                                <g id="Clip-2"></g>
                                <path d="M27.7234731,6.92598299 C27.7056167,6.96340167 27.6883364,6.98806073 27.6563678,7.01185958 C27.5983347,7.05529966 27.5299334,7.09630251 27.4932126,7.15522618 C27.3867946,7.32568906 27.2348717,7.43622471 27.0620683,7.5281227 C27.0000031,7.56109702 26.9460021,7.60912483 26.887969,7.64984094 C26.8524003,7.67464336 26.8153916,7.72009058 26.7802549,7.71894364 C26.6600125,7.71507274 26.5875791,7.80051924 26.5112577,7.86101994 C26.4306161,7.92539154 26.3495426,7.99578454 26.2945335,8.09470749 C26.2576688,8.16094286 26.1744352,8.20825384 26.1028658,8.24724955 C25.9843515,8.31147779 25.8675652,8.37771316 25.7582671,8.45613469 C25.7179464,8.48495137 25.6820897,8.52050629 25.6401849,8.54688574 C25.5680395,8.59218959 25.5128864,8.66358615 25.4122284,8.66659685 C25.3649955,8.66788715 25.3095545,8.70659613 25.2745618,8.74401482 C25.2009764,8.82200625 25.1155827,8.87806259 25.0205409,8.9252302 C24.9086507,8.9809998 24.8349213,9.08580079 24.7718481,9.18156967 C24.6939426,9.30027722 24.5898286,9.36264169 24.4720343,9.41941486 C24.4531699,9.42859032 24.4354576,9.44005965 24.4122731,9.45339274 C24.2134053,9.27705183 24.0120894,9.09856041 23.8064534,8.91648483 C24.1113073,8.12295071 24.4147212,7.33285739 24.718279,6.54276407 C24.7080548,6.53616921 24.6976866,6.52971771 24.6874624,6.52312285 C24.5535399,6.61545094 24.4114091,6.69817347 24.2885747,6.80326118 C24.2079332,6.87222052 24.1035312,6.89917344 24.0302338,6.97558783 C24.0041693,7.00254075 23.9559283,7.01401008 23.940088,7.04411707 C23.8637665,7.18805713 23.7170277,7.2581634 23.6072976,7.36640518 C23.52752,7.44497007 23.4272941,7.50891158 23.3259161,7.55837305 C23.1856574,7.62647219 23.0851435,7.74589656 22.9507889,7.81901353 C22.9235724,7.91521251 22.8147063,7.91119825 22.7586892,7.97671679 C22.6414709,7.84008842 22.5255487,7.70532382 22.4035783,7.56310415 C22.2512234,7.52697577 22.1427893,7.62231456 22.0386753,7.7298395 C21.9790581,7.69657845 21.921745,7.64138231 21.8591038,7.63464408 C21.7369895,7.62145436 21.6461237,7.54848076 21.558138,7.48683312 C21.455176,7.41486309 21.3408378,7.3963688 21.2313957,7.35479248 C21.1013612,7.30533101 20.9651346,7.3238253 20.8238678,7.3195243 C20.7036255,7.18891733 20.5714309,7.06060423 20.3954595,6.99766629 C20.1646231,6.91494376 19.9378187,6.82404934 19.6979101,6.76125477 C19.4796019,6.70390813 19.2640297,6.61831827 19.0503296,6.53559574 C18.7713962,6.42735396 18.5385437,6.24570848 18.2748746,6.11596171 C18.2650824,6.11108725 18.2555782,6.10449239 18.2485221,6.09646386 C18.0970312,5.92385047 17.8866431,5.83008872 17.7021755,5.69575421 L17.7021755,5.51496894 C17.7337121,5.49332058 17.7651047,5.47224569 17.7957773,5.45016723 C17.8048495,5.44357237 17.8136337,5.43525711 17.8201138,5.42593828 C17.8602906,5.36816154 17.8960033,5.30680064 17.9402121,5.25232133 C18.0549823,5.1103884 18.0934311,4.93634135 18.1445521,4.76903253 C18.1792567,4.65591628 18.1742166,4.52788991 18.2221696,4.42265883 C18.2575943,4.34495413 18.2355618,4.2635219 18.2802027,4.18753761 C18.3160594,4.12632007 18.296043,4.03499555 18.3222515,3.96488928 C18.3719325,3.83227518 18.3723645,3.69019888 18.4168613,3.55701131 C18.4388938,3.49091931 18.4388938,3.41823244 18.452142,3.34912974 C18.4987989,3.10583663 18.5520799,2.86512411 18.6242253,2.62799576 C18.6478418,2.55043443 18.6461138,2.46570477 18.6665622,2.38713987 C18.6988188,2.26370123 18.7400036,2.14284319 18.7773003,2.02155505 C18.9397354,2.02155505 19.0951144,2.01854435 19.2502054,2.02313208 C19.3089586,2.02485248 19.3672797,2.04564064 19.4260328,2.05553293 C19.4794579,2.06456503 19.5314429,2.06513849 19.5868839,2.08262922 C19.6611894,2.10614134 19.748167,2.10155361 19.8296726,2.12291523 C19.955243,2.15588955 20.0851336,2.17237671 20.211424,2.20291379 C20.3728511,2.24205288 20.5324062,2.28907712 20.6934013,2.33094017 C20.8443162,2.37022261 20.9960951,2.40577753 21.1467221,2.44534671 C21.2554442,2.47402003 21.3612862,2.51860704 21.4715923,2.53480747 C21.6276913,2.55788949 21.7680941,2.64347935 21.9290892,2.64075538 C21.9784821,2.70856778 22.0644518,2.65810274 22.128389,2.70541372 C22.180086,2.7436926 22.2614476,2.74082527 22.3281209,2.76147006 C22.542541,2.82784879 22.7409769,2.93164621 22.9424367,3.02841866 C23.0766473,3.09336373 23.21345,3.15415117 23.3431965,3.22712477 C23.5492645,3.34282161 23.7502923,3.46697709 23.9534803,3.58769176 C24.1751006,3.7193023 24.405505,3.83858331 24.6158931,3.98596417 C24.8595458,4.15685715 25.130991,4.27957896 25.3747877,4.44918165 C25.4660855,4.51254968 25.5743756,4.5515454 25.6698494,4.61003897 C25.8080921,4.69476863 25.9412947,4.78810028 26.0775213,4.87612738 C26.2763891,5.00458385 26.4539446,5.16142691 26.6451803,5.29905884 C26.9102894,5.48987978 27.1519261,5.70421284 27.3830505,5.9331693 C27.5371335,6.08585473 27.6638559,6.24857582 27.7410414,6.45703085 C27.8026746,6.62304937 27.8041146,6.75795734 27.7234731,6.92598299 M24.4453938,12.6371348 C24.4645461,12.6431562 24.45893,12.6506112 24.457634,12.6498944 C24.4502899,12.6457368 24.4438097,12.6397154 24.4368976,12.6344108 C24.4383376,12.6332639 24.4394897,12.6318302 24.4409297,12.6305399 C24.3287515,12.5954151 24.2427819,12.5680321 24.1617083,12.5330506 C23.990777,12.4592168 23.8189817,12.3862432 23.6535225,12.3009401 C23.5057756,12.2248124 23.3653729,12.1340614 23.2233862,12.0471812 C22.9937017,11.9062519 22.7677614,11.7594445 22.5354849,11.6232462 C22.4338189,11.5637491 22.3579295,11.4846107 22.2944242,11.3904188 C22.1613657,11.1931464 22.0308991,10.9942969 21.8971206,10.797598 C21.8760961,10.7664874 21.8431195,10.7435488 21.8087028,10.7101443 C21.7544138,10.8287085 21.7067489,10.9327927 21.6527478,11.0507834 C21.5240093,10.9756593 21.3980069,10.9056964 21.2756045,10.8299988 C21.0551363,10.6940873 20.8414362,10.5472799 20.6165038,10.4192535 C20.3974756,10.2945246 20.1843515,10.1599033 19.9646032,10.0358912 C19.8786336,9.98743332 19.8227605,9.89754246 19.7343428,9.84248969 C19.5678756,9.73883564 19.4123526,9.61812096 19.2522215,9.50457462 C19.125643,9.50371442 19.0802821,9.37669161 18.9789042,9.33095767 C18.8572218,9.27633499 18.7472037,9.19590633 18.6314255,9.12766383 C18.3516281,8.96279224 18.0577184,8.82458684 17.7685608,8.67161468 C17.8548185,8.67333508 17.936324,8.64523523 18.0273338,8.69068244 C18.090983,8.72236646 18.1827128,8.67835291 18.2521221,8.73111182 C18.3876288,8.71978586 18.501535,8.80207829 18.6308495,8.81770525 C18.6518739,8.82028585 18.6720343,8.83175517 18.6930587,8.83390567 C18.8264052,8.84637857 18.9626319,8.8440847 19.0928104,8.87118099 C19.4179687,8.93928012 19.748311,8.9926125 20.0505729,9.14343416 C20.1219983,9.17898907 20.2009118,9.20006396 20.266145,9.24766167 C20.3238902,9.28981145 20.3917155,9.30529505 20.4569487,9.32938063 C20.7125537,9.42400259 20.9465582,9.56407176 21.1922269,9.68048543 C21.3991589,9.77840482 21.5830505,9.90987199 21.767374,10.0439198 C21.9046087,10.1438463 22.0503395,10.2321601 22.1763419,10.3475702 C22.1953503,10.3650609 22.2254469,10.3703655 22.2457513,10.3871394 C22.3261048,10.4533748 22.385146,10.5373876 22.4961721,10.5758098 C22.5848778,10.6063469 22.6483831,10.7034061 22.7306087,10.7597492 C22.8927558,10.871145 23.0554789,10.9809638 23.2094179,11.103829 C23.2994196,11.1755123 23.3871173,11.254794 23.4884953,11.3059759 C23.5430723,11.3333589 23.5897292,11.3676236 23.6149297,11.4102034 C23.679731,11.5201656 23.7796689,11.5945729 23.8626145,11.6860408 C23.9763767,11.8113432 24.1087153,11.9243161 24.200013,12.0640985 C24.3081591,12.2298303 24.4083851,12.406888 24.4433777,12.6279593 C24.4462578,12.625092 24.4492818,12.6220813 24.4523059,12.619214 C24.457634,12.6259522 24.4631061,12.632547 24.4685782,12.6392853 C24.4599381,12.6364179 24.4524499,12.6341241 24.4442418,12.6315435 C24.4443858,12.6335506 24.4451058,12.6351276 24.4453938,12.6371348 M20.6981534,14.0558906 C20.626008,14.0907287 20.6395443,14.0234898 20.6228399,13.9989741 C20.5355743,13.8695141 20.4471565,13.7401974 20.367235,13.6061496 C20.3119379,13.5129613 20.3056018,13.409594 20.3428985,13.3055099 C20.3500987,13.2852952 20.3583068,13.2639335 20.3580188,13.2431454 C20.3554268,13.0237945 20.418212,12.8080278 20.3938755,12.5873866 C20.3928675,12.5779244 20.4000676,12.5674586 20.4108678,12.5356312 C20.5653828,12.6412924 20.7080896,12.7390684 20.8368281,12.8269522 C20.7711628,13.2491668 20.7368901,13.6544642 20.6981534,14.0558906 M20.6003755,14.5450575 C20.5900073,14.5922251 20.5770471,14.6386758 20.5662468,14.6855567 C20.5491105,14.7602507 20.52247,14.8320774 20.5288061,14.9122193 C20.5315422,14.9454804 20.5113818,14.9857664 20.4905014,15.0151565 C20.3895554,15.1569461 20.3714111,15.333287 20.2903375,15.4831051 C20.2677291,15.5248248 20.2539048,15.5711322 20.2353285,15.614859 C20.2144481,15.6640338 20.1784474,15.7064703 20.1837755,15.7666842 C20.1856475,15.7894795 20.1631831,15.8144253 20.1512308,15.8382242 C20.0492769,16.0425216 19.9451628,16.2459588 19.8463769,16.4516898 C19.8236245,16.4990008 19.8193044,16.5596449 19.8005841,16.604662 C19.7331908,16.7659494 19.6521172,16.9229359 19.5618274,17.0730407 C19.4971702,17.1804223 19.4076005,17.2727503 19.332863,17.374684 C19.2041245,17.5500213 19.0798501,17.7285128 18.9444875,17.899119 C18.8596699,18.0062139 18.7820524,18.1187566 18.6993948,18.2275719 C18.6622421,18.2764599 18.6209133,18.3220505 18.5843366,18.3657773 L18.2676744,18.3657773 C18.2384419,18.3947373 18.2099293,18.4229806 18.1838648,18.4487866 C18.2028732,18.603049 18.3451479,18.7386738 18.244346,18.9269142 C18.2043132,18.8870582 18.1768087,18.8543707 18.1442641,18.8281346 C17.9176037,18.6459156 17.728672,18.4229806 17.5082038,18.2363173 C17.3518168,18.1038465 17.2191902,17.9477203 17.0603551,17.8209842 C16.8784796,17.6758972 16.7235326,17.4991262 16.5196247,17.3801319 C16.3350131,17.2723202 16.1581777,17.1556198 15.9516777,17.0837932 C15.8330194,17.0425036 15.7124891,16.9794223 15.6243594,16.8724708 C15.5490459,16.7810029 15.4574602,16.7027248 15.3642904,16.6101099 C15.3612663,16.6038018 15.3559382,16.5969202 15.3506101,16.5900386 C15.3578102,16.5880315 15.3699065,16.5822968 15.3714905,16.5844473 C15.3769626,16.5916156 15.3786906,16.6015079 15.3820027,16.61054 L15.3665944,16.61054 C15.4535721,16.6121171 15.5228374,16.6093931 15.5936868,16.6415072 C15.6507119,16.6671698 15.7194012,16.6481021 15.7875145,16.672331 C15.8690201,16.7017212 15.9693901,16.6759152 16.0612638,16.6805029 C16.1319692,16.6839437 16.2068506,16.6569908 16.2732359,16.7116135 C16.2902283,16.7256634 16.3389012,16.7256634 16.3560375,16.7116135 C16.4168067,16.6610051 16.485208,16.6829402 16.5507293,16.6799295 C16.6531153,16.6751984 16.7627014,16.6956998 16.8563032,16.6657362 C16.9463049,16.6367761 17.0383227,16.6453781 17.1284684,16.6171349 C17.2190462,16.5887483 17.3155281,16.5610786 17.4092739,16.5461684 C17.625134,16.5113303 17.8143537,16.412264 18.0135095,16.3357063 C18.2814987,16.232769 18.5107511,16.0625929 18.7536838,15.916359 C18.8435416,15.8624531 18.916407,15.7808775 18.9973365,15.7122049 C19.0563777,15.66217 19.0982825,15.5942142 19.177196,15.5633904 C19.2165088,15.5480502 19.2561095,15.506904 19.2729579,15.4677649 C19.2962863,15.4134289 19.333151,15.37472 19.3741918,15.3378747 C19.536339,15.1919275 19.6515412,15.0084183 19.7680394,14.8289233 C19.8748895,14.6643385 19.955387,14.4828364 20.0478368,14.3089327 C20.0605091,14.2851338 20.0760614,14.2627686 20.0924777,14.2359591 C20.2752172,14.2838435 20.4552207,14.3310111 20.6343602,14.3780354 C20.6216879,14.4406866 20.6118957,14.4930154 20.6003755,14.5450575 M15.0574204,15.1656915 C14.8612887,15.0773776 14.6635728,14.9810353 14.5022897,14.8456972 C14.3330864,14.7037643 14.1458828,14.5776017 14.0165683,14.3839134 C13.9326147,14.2580375 13.8394449,14.1357458 13.7511712,14.0110169 C13.6099045,13.8110205 13.5222068,13.5900926 13.4466053,13.3618529 C13.3936123,13.2021425 13.3702839,13.0364108 13.3357232,12.8728295 C13.2913703,12.6627974 13.326507,12.4562061 13.3083627,12.2493281 C13.3648117,12.0962126 13.3200269,11.9213054 13.4120447,11.776075 C13.4385412,11.532065 13.5463993,11.3154381 13.6568494,11.1033989 C13.7492992,10.9256243 13.8574453,10.754588 13.997704,10.6069204 C14.050841,10.5507207 14.0898658,10.4807578 14.1458828,10.4282856 C14.4300003,10.1620538 14.7434944,9.93725501 15.1037893,9.78370938 C15.2660805,9.71446332 15.4311077,9.65396261 15.6075111,9.62242196 C15.7133531,9.60349757 15.8181871,9.56980642 15.9251812,9.55919729 C16.0336153,9.54858816 16.1437774,9.55690343 16.2532195,9.55690343 C16.3165808,9.55690343 16.380086,9.56020086 16.4433032,9.55632996 C16.6284908,9.54486063 16.8063342,9.59503894 16.9838897,9.62944692 C17.2531749,9.6819191 17.7234879,9.90872506 17.9557644,10.0734533 C18.1277037,10.1954583 18.2676744,10.3527314 18.4188774,10.497675 C18.5912487,10.6631201 18.7280513,10.8535109 18.8389335,11.0642598 C18.9034467,11.187125 18.9738641,11.3072662 19.0468735,11.4255437 C19.0683299,11.4602384 19.0788421,11.491779 19.0815782,11.5323518 C19.0874823,11.6139274 19.0801381,11.7094095 19.1204589,11.7724908 C19.1697079,11.8494787 19.1106667,11.9441006 19.1836761,12.0057483 C19.1950524,12.1270364 19.2113247,12.2481812 19.2169408,12.3698994 C19.2227009,12.4957753 19.226301,12.6226548 19.2155008,12.7479572 C19.2074366,12.840572 19.177196,12.9306062 19.1822361,13.0263751 C19.1871322,13.1195634 19.1370192,13.2052966 19.1060586,13.2870156 C19.0799941,13.3565484 19.0827302,13.4187695 19.0831622,13.4822809 C19.0837382,13.5414913 19.0653059,13.5941068 19.0385213,13.6368301 C18.9778962,13.7337459 18.9005667,13.8204827 18.8344694,13.9145312 C18.8042288,13.9578279 18.7892525,14.0115904 18.7592999,14.0550304 C18.6973787,14.1450647 18.6368976,14.2375361 18.5633122,14.317678 C18.45387,14.4363856 18.3601242,14.5668492 18.2570182,14.6898577 C18.1361999,14.8340845 17.9729008,14.9317172 17.8114736,15.027056 C17.7473924,15.0649047 17.6791351,15.0961587 17.6123178,15.1295631 C17.4825713,15.1945081 17.3390005,15.2191672 17.2030619,15.2667649 C17.055459,15.3185203 16.9061281,15.3616736 16.7464291,15.3787342 C16.6536913,15.3884832 16.5538973,15.383322 16.4677837,15.4108483 C16.2988684,15.4647542 16.1300972,15.4253284 15.9624779,15.440812 C15.916397,15.4449696 15.8730522,15.4402385 15.8384915,15.4061172 C15.7686502,15.3370145 15.6602161,15.4068341 15.5906627,15.3374446 C15.398131,15.3255452 15.2289278,15.2428227 15.0574204,15.1656915 M11.408534,15.9061799 C11.4206302,15.8595858 11.4400706,15.8182962 11.4406466,15.7770066 C11.4436706,15.5427456 11.4420866,15.3084846 11.4420866,15.0769475 C11.2952038,14.9998163 11.154225,14.925409 11.0002861,14.8772379 C10.9611173,14.8650517 10.9112924,14.8494247 10.9186365,14.7758777 C10.9229566,14.7305738 10.8781717,14.6803955 10.8544113,14.6329412 C10.8042983,14.5328713 10.8116424,14.4243428 10.8221546,14.3205454 C10.8502352,14.0429876 10.7233687,13.8133143 10.5956383,13.5879421 C10.5126927,13.441278 10.4213949,13.2954742 10.2942404,13.178057 C10.2798402,13.1648672 10.2760961,13.1402082 10.2668799,13.1211404 C10.2255511,13.0346904 10.1839343,12.948527 10.1325253,12.8418623 C10.1388614,12.8068808 10.1778862,12.7869529 10.2369273,12.7906804 C10.2828642,12.7935477 10.3293771,12.794838 10.375026,12.7902503 C10.4228349,12.7855192 10.4700678,12.773333 10.5342931,12.7611469 C10.5455253,12.7817917 10.5603576,12.8151961 10.580662,12.8447296 C10.6818959,12.9922538 10.7631135,13.1532545 10.8843638,13.287589 C10.9160444,13.3225705 10.9506051,13.3681611 10.9552132,13.4116011 C10.9713415,13.5645733 11.0436309,13.6969007 11.097632,13.8353928 C11.151633,13.9734548 11.201458,14.113524 11.2682753,14.2465682 C11.2967878,14.303198 11.307876,14.3691466 11.3399886,14.4230525 C11.4033499,14.5297172 11.4932076,14.6237657 11.5395765,14.7364519 C11.5787452,14.831934 11.670475,14.9330075 11.5827773,15.0540089 C11.567369,15.0755139 11.5767292,15.1219646 11.5866654,15.1530752 C11.6439785,15.3324268 11.6812752,15.5175131 11.7126678,15.7014524 C11.7326842,15.8178661 11.7604768,15.9322727 11.7961894,16.0868219 C11.6536267,15.9967876 11.5038638,16.0088304 11.408534,15.9061799 M8.24119278,14.6859868 C8.10813421,14.6776716 7.98817989,14.6426901 7.86692955,14.5870639 C7.73027091,14.5239826 7.58122803,14.497173 7.43002511,14.4720839 C7.16909207,14.4286438 6.90887905,14.4555967 6.64895403,14.4416901 C6.53562384,14.4355254 6.43208584,14.46979 6.32523577,14.4948792 C6.27713885,14.5062051 6.22400182,14.5182479 6.17705691,14.5095025 C5.97199695,14.4716538 5.73842444,14.4649155 5.52659635,14.4990368 C5.51536413,14.5009005 5.50225988,14.4874241 5.49001964,14.4875675 C5.42435437,14.4878542 5.3585451,14.488571 5.29287983,14.4925853 C5.26652733,14.4943057 5.24103883,14.5072087 5.21468632,14.5109362 C5.19207789,14.5142336 5.16860543,14.5128 5.14570899,14.5113663 C4.73486906,14.4871374 4.32705318,14.5638385 3.91621324,14.5479248 C3.85818012,14.5456309 3.79942699,14.5698599 3.74067385,14.5801823 C3.68710482,14.5895011 3.62676765,14.5588207 3.58011075,14.6117229 C3.5724786,14.6206117 3.54742212,14.6147336 3.53042979,14.6147336 C3.44402812,14.6150204 3.35733845,14.6101459 3.27136879,14.6163107 C3.2048395,14.6210418 3.13687019,14.6350917 3.05795667,14.6488549 C3.05334858,14.6543028 3.04830848,14.6588905 3.04384439,14.6646252 L3.04384439,14.6512921 C3.04053233,14.6518656 3.03779628,14.652439 3.03448421,14.6528691 C3.03131615,14.6538727 3.0284361,14.655163 3.02555604,14.6564533 C3.03506022,14.6699298 3.02987612,14.6755211 3.023396,14.6805389 C3.02123596,14.6732272 3.01547585,14.6613278 3.01763589,14.6596074 C3.01979593,14.6580303 3.02296399,14.6576002 3.02555604,14.6564533 C3.02498003,14.6557365 3.02555604,14.6554497 3.02483603,14.6545895 C3.0284361,14.6540161 3.03102815,14.6534426 3.03448421,14.6528691 C3.03779628,14.6520089 3.04067633,14.6504319 3.04384439,14.649285 L3.04384439,14.6512921 C3.04874049,14.6504319 3.05306057,14.6497151 3.05795667,14.6488549 C3.29023315,14.3694334 3.59350301,14.2412636 3.90742907,14.1340254 C4.059064,14.0824134 4.21861908,14.0518764 4.36679795,13.9920925 C4.48300819,13.945355 4.60584256,13.9328821 4.72320483,13.8947466 C4.83581501,13.8583315 4.95764136,13.8508764 5.07068354,13.8156082 C5.19971003,13.7751788 5.33406463,13.761559 5.46309112,13.721273 C5.68370338,13.652457 5.91569186,13.6290883 6.13601612,13.5539642 C6.24171416,13.5179792 6.35792441,13.5103807 6.46851854,13.4819941 C6.66695437,13.4312424 6.87071831,13.4021389 7.06728211,13.3426418 C7.08139438,13.3383408 7.09910672,13.3455091 7.12862729,13.3489499 C7.08341042,13.4659371 6.9787204,13.5212766 6.90902305,13.6047159 C6.84119774,13.6861482 6.77034837,13.7651432 6.70194705,13.8462887 C6.63095368,13.9303015 6.56125633,14.0156046 6.49530306,14.0951731 C6.50178318,14.1116602 6.50293521,14.1172515 6.50581526,14.1214092 C6.50898332,14.1259969 6.51387942,14.1327351 6.5180555,14.1327351 C7.07088218,14.1330219 7.62342085,14.1330219 8.17523951,14.1330219 C8.30513002,14.3026245 8.43458852,14.4716538 8.56447903,14.6411131 C8.45849298,14.6489982 8.35553099,14.6931552 8.24119278,14.6859868 M29.7279918,6.13259224 C29.6807589,5.97990681 29.6453342,5.82191682 29.5752049,5.67941042 C29.480739,5.48686908 29.3705769,5.3030731 29.2465905,5.12486842 C29.1205881,4.94408314 28.9834974,4.77304679 28.8422307,4.60645481 C28.701396,4.44057965 28.5375208,4.29391562 28.3802698,4.1425205 C28.2996282,4.06510253 28.2143786,3.99155547 28.1256729,3.92388643 C28.0087426,3.83456904 27.8861962,3.75256335 27.7662419,3.66740359 C27.6239672,3.56604341 27.4839965,3.46167252 27.3391297,3.3643266 C27.200455,3.27099495 27.0504041,3.19343362 26.9169135,3.09379383 C26.6906851,2.92490798 26.4536566,2.77422969 26.2095718,2.63272685 C26.0521768,2.54140233 25.9103341,2.42269479 25.7336427,2.36477468 C25.7188104,2.35975685 25.7101702,2.33968553 25.6963459,2.32964987 C25.6165684,2.27230323 25.5399589,2.20979539 25.4554293,2.16076401 C25.3402271,2.09381181 25.2096165,2.05037173 25.1021905,1.97395734 C24.8644419,1.80464139 24.5993327,1.68536038 24.3497759,1.53797951 C24.1287317,1.40722918 23.889111,1.31246386 23.6703708,1.17612222 C23.41995,1.019996 23.1274803,0.959351925 22.8553151,0.851970344 C22.8207544,0.83820715 22.7844657,0.819139393 22.748897,0.81885266 C22.6099343,0.81799246 22.487532,0.72824497 22.3456892,0.748172927 C22.2126306,0.680073793 22.0621477,0.684088058 21.920881,0.649823441 C21.8317433,0.628175085 21.7439016,0.599645132 21.6553399,0.581867674 C21.3857667,0.527818466 21.1465781,0.362946879 20.8615966,0.369971842 C20.8202678,0.299722209 20.7324261,0.364093812 20.6804411,0.303163008 C20.6291761,0.243092403 20.5397503,0.285385549 20.4756691,0.259149462 C20.3882594,0.223594546 20.2962416,0.219293548 20.2069599,0.200082424 C20.110046,0.179007534 20.0098201,0.173989703 19.9106022,0.164097408 C19.8764735,0.160656609 19.8309686,0.177573868 19.8089362,0.160943343 C19.7337668,0.104456903 19.642181,0.15348828 19.5680196,0.114922665 C19.486226,0.0723427852 19.4004003,0.105603836 19.3173107,0.0948513411 C19.3006064,0.0927008421 19.279294,0.0987222392 19.2674858,0.0904069765 C19.1728759,0.0256052744 19.0609858,0.0470178991 18.970264,0.0671815877 C18.8412375,0.0957115407 18.7241633,0.112198699 18.5991689,0.06245049 C18.5643202,0.04854393 18.5059991,0.0439561989 18.4816626,0.0635974228 C18.4292456,0.106033936 18.3748125,0.0901202433 18.3205235,0.0944212413 C18.2766026,0.097718673 18.2377219,0.0964283736 18.193801,0.124958327 C18.1474321,0.154921946 18.0768708,0.144886284 18.0214297,0.165100974 C17.9164517,0.202949756 17.8038415,0.210261452 17.7100957,0.295277845 C17.6504785,0.349327052 17.573293,0.417139453 17.4948115,0.431906212 C17.4066818,0.448680104 17.3487927,0.504736444 17.3266163,0.558785651 C17.2816874,0.668461099 17.1996058,0.738710732 17.1255884,0.820286326 C17.1005319,0.847812712 17.0812355,0.881647229 17.0642432,0.915195013 C16.9975699,1.04809585 16.8836637,1.16164219 16.8921599,1.32594032 C16.8923039,1.32995458 16.8822237,1.33339538 16.8807837,1.33826984 C16.8417589,1.47131405 16.7871819,1.60235112 16.7696135,1.73811928 C16.7562213,1.84162997 16.7631334,1.95101868 16.7187805,2.04549727 C16.6721236,2.14442022 16.6718356,2.25251864 16.6322349,2.35373546 C16.5919141,2.45624257 16.5387771,2.56276395 16.5276888,2.67043227 C16.5118485,2.8252682 16.4677837,2.97838372 16.48564,3.13766401 C16.4941362,3.21278811 16.4970162,3.28948924 16.4566955,3.36576027 C16.4277509,3.42066968 16.4169507,3.49306981 16.4215588,3.55586438 C16.430775,3.68188362 16.4025504,3.7948565 16.3435093,3.90367174 C16.330981,3.92675377 16.3211889,3.95241639 16.3157167,3.97807901 C16.3021805,4.04159041 16.3036205,4.11140994 16.276404,4.16803975 C16.2588356,4.2047416 16.2607077,4.25104901 16.2416993,4.27269737 C16.2051226,4.31456041 16.227587,4.36287496 16.2090107,4.39828651 C16.1554416,4.50007679 16.1430574,4.6146267 16.1182889,4.72100472 C16.0892004,4.84645049 16.0274232,4.96931566 16.0399514,5.1022165 C16.0506076,5.21705315 16.0112949,5.3202771 15.9606059,5.41375212 C15.9191331,5.49030988 15.8909085,5.56242328 15.9007007,5.64743967 C15.914957,5.76815435 15.8723322,5.86205947 15.7823304,5.94363506 C15.7137851,6.00599953 15.6625201,6.08413433 15.6481198,6.17373845 C15.5833186,6.15452733 15.5182293,6.11940251 15.4529961,6.11925914 C15.2994891,6.11897241 15.1832789,6.05101664 15.0677886,5.96083905 C14.8409843,5.78349457 14.5860993,5.66894466 14.2914696,5.67009159 C14.2021879,5.67037833 14.1310505,5.64342541 14.0672573,5.58321144 C14.0362967,5.55382128 13.999288,5.5254347 13.9596872,5.5108113 C13.8345488,5.46421716 13.7037943,5.43267651 13.5751998,5.39812516 C13.4362371,5.36070648 13.2889223,5.34507952 13.1414634,5.35769578 C13.1047427,5.36070648 13.066582,5.34493615 13.0289973,5.33920149 C12.9011228,5.319847 12.7729603,5.3052236 12.6469579,5.34723002 C12.5907968,5.36601104 12.5254195,5.35095755 12.4761706,5.39353743 C12.3740726,5.32300106 12.2994792,5.42092045 12.2114935,5.43611731 C12.1387721,5.53618719 12.0182417,5.55066722 11.9185918,5.60328276 C11.8406863,5.64457234 11.7653729,5.64614937 11.6935155,5.62335408 C11.5359764,5.57303241 11.3742613,5.58994967 11.2203223,5.60600672 C10.997118,5.62937548 10.8860919,5.64471571 10.6604395,5.60170573 C10.6054304,5.5910966 10.532421,5.58063084 10.4921003,5.60715366 C10.4190908,5.6550381 10.3387373,5.64829987 10.2796962,5.62851528 C10.167374,5.59123997 10.0573559,5.60615009 9.94647372,5.60055879 C9.90816898,5.59855166 9.87360831,5.60055879 9.83515957,5.62622142 C9.81183112,5.64170501 9.75696606,5.60270929 9.71592527,5.60141899 C9.58920282,5.59740473 9.46161635,5.59037977 9.33604593,5.60270929 C9.20946748,5.61518219 9.09311324,5.56557734 8.96999086,5.56557734 L7.41490482,5.56557734 L7.31928698,5.56557734 C7.41994492,5.65432127 7.49410635,5.69016292 7.65596548,5.73776063 C7.92755472,5.81761582 8.19007179,5.92442394 8.46554912,5.99395674 C8.63590441,6.03711008 8.80078759,6.10234189 8.96840683,6.15624773 C9.06748074,6.18821848 9.17505082,6.21058367 9.26562857,6.27122774 C9.49012891,6.42147593 9.71650128,6.56871343 9.94402567,6.71423053 C10.2809922,6.92999725 10.6107586,7.15737668 10.9517571,7.36755211 C11.0167024,7.40769476 11.0869757,7.45414554 11.1281605,7.51521971 C11.2498429,7.69657845 11.413142,7.810985 11.6205061,7.8719158 C11.7020116,7.89585802 11.7882693,7.91793648 11.8586867,7.96238013 C12.1059394,8.11879308 12.3470001,8.28495497 12.5909408,8.44638576 C12.6674063,8.49713753 12.7404157,8.5629428 12.8250893,8.58831869 C12.909763,8.61369458 12.9745642,8.65283366 13.0265492,8.70917673 C12.9405796,8.8415041 12.8430897,8.96150194 12.703983,9.04135714 C12.6615022,9.06572946 12.6113892,9.08952832 12.5861887,9.12766383 C12.5457239,9.18902474 12.5032431,9.13898979 12.4650824,9.14787852 C12.4418979,9.15318309 12.4096413,9.19934713 12.4129534,9.22285925 C12.4269216,9.32450617 12.3504562,9.38299974 12.289687,9.4098093 C12.1752048,9.46041771 12.0782909,9.53697547 11.9679848,9.59131141 C11.8150538,9.66643551 11.6734991,9.75732993 11.5506647,9.87704104 C11.5037198,9.92291835 11.4475587,9.9596202 11.3947097,9.99933275 C11.3553969,10.0288663 11.3137801,10.054959 11.2750434,10.085066 C11.2183063,10.1290795 11.1634412,10.1778242 11.1103042,10.2235581 C11.0046062,10.3145959 10.8961721,10.4067806 10.8165385,10.5284989 C10.7657055,10.6059168 10.686648,10.6688548 10.6101825,10.724481 C10.5400532,10.7755195 10.4478914,10.7838348 10.3636498,10.7931536 C10.2307352,10.807777 10.0978206,10.796451 9.96245803,10.8242641 C9.80837505,10.8559482 9.65170003,10.8684211 9.5105773,10.945839 C9.49214494,10.9558747 9.47097654,10.9659103 9.45067214,10.9667705 C9.35635032,10.970068 9.26433254,10.9762327 9.17015473,10.9968775 C9.06906477,11.0188126 8.96653479,11.0467691 8.85694868,11.0411778 C8.78725133,11.037737 8.71942602,11.0185259 8.64310455,11.0301386 C8.51177401,11.0499232 8.38029947,11.0959439 8.24349683,11.0712848 C8.2267925,11.0682741 8.20245603,11.0633996 8.19280785,11.0720016 C8.12167047,11.1352263 8.02346058,11.0744389 7.95448324,11.1223233 C7.87427369,11.1779495 7.78355194,11.1580216 7.70003033,11.1780929 C7.57748396,11.2077698 7.45796165,11.2436114 7.33023119,11.2440415 C7.30474269,11.2440415 7.27882219,11.2573746 7.25390971,11.2666935 C7.11753908,11.3174452 6.97497632,11.3471221 6.8338536,11.3769424 C6.73780374,11.3971571 6.63599378,11.3780893 6.53706387,11.412784 C6.41134944,11.4567976 6.27901088,11.4781592 6.15430447,11.5312048 C6.03031808,11.5838204 5.90316362,11.6388732 5.75973685,11.6231028 C5.71250394,11.6179416 5.65504683,11.6010244 5.61861413,11.655647 C5.52861239,11.6519195 5.456755,11.7187284 5.37078534,11.7231727 C5.21123026,11.7313446 5.06305139,11.7820964 4.91242449,11.8269701 C4.79794227,11.8610914 4.68994019,11.9160008 4.56062569,11.901234 C4.50345659,11.8947825 4.4419674,11.9465379 4.3799022,11.9580072 C4.26801204,11.978652 4.16865012,12.0435971 4.04811979,12.0378624 C3.99973486,12.0355685 3.9500539,12.0749943 3.90008493,12.0932019 C3.85501206,12.1095457 3.80835516,12.1217319 3.76299428,12.1377889 C3.59220698,12.1975728 3.41033147,12.201157 3.2359441,12.2417297 C3.11627779,12.2695428 3.0028036,12.3185742 2.8942255,12.3747739 C2.81761602,12.4143431 2.75396679,12.4933381 2.67505327,12.5095385 C2.5779954,12.5297532 2.52428236,12.6174936 2.42967253,12.6295363 C2.41498425,12.6314001 2.40288801,12.6488908 2.38791172,12.6530485 C2.21885246,12.6992125 2.09112199,12.810465 1.96454355,12.9217175 C1.93300694,12.949674 1.92163072,13.0014293 1.88894209,13.0263751 C1.76769174,13.1181297 1.62109691,13.1807809 1.55197558,13.3298822 C1.54981554,13.3346133 1.54463144,13.3402046 1.53973534,13.3413515 C1.43475731,13.3661539 1.38579637,13.4547545 1.35440376,13.5377637 C1.3100509,13.6553244 1.22969735,13.7439249 1.13609554,13.8058593 C0.982300574,13.9077929 0.881498627,14.0464284 0.786456791,14.195243 C0.768888451,14.222626 0.7300077,14.2490054 0.731303725,14.2743813 C0.737063837,14.386494 0.669382529,14.4735175 0.619125559,14.5552365 C0.534883932,14.6925817 0.41881769,14.810429 0.382672991,14.9748705 C0.246014352,15.1196708 0.199213448,15.3120688 0.118859896,15.4855423 C0.0889073173,15.5500573 0.0572267054,15.6253248 0.0698989501,15.7070437 C0.077243092,15.7546414 0.0769550864,15.8033861 0.0390823549,15.8489767 C0.00452168734,15.8906963 -0.0029664573,15.9468961 0.000921617801,16.0051029 C0.00682573184,16.0965708 0.0025056484,16.1884688 0.0025056484,16.2803668 C0.0025056484,16.3721214 0.00826575966,16.4641627 0.00077761502,16.5553439 C-0.00599051571,16.6382098 0.0948114313,16.7189252 0.00423368178,16.8015043 C0.0608267749,16.9028645 0.0494505552,17.021142 0.0867472756,17.1285236 C0.114539812,17.2089522 0.156588625,17.2939686 0.139020285,17.3814222 C0.0942354202,17.6040706 0.0884753089,17.6584065 0.158460661,17.8479371 C0.217213796,18.0067873 0.274814908,18.1685049 0.356032477,18.3163158 C0.441714132,18.4721553 0.484338955,18.6424748 0.555476329,18.8023286 C0.613797456,18.9332223 0.672262585,19.064116 0.73619982,19.2071959 C0.803881127,19.150566 0.859610204,19.1064091 0.912027216,19.0588114 C0.958972123,19.0163749 1.00130894,18.9692073 1.04710183,18.9256239 C1.11190308,18.864263 1.17267225,18.8635461 1.23588947,18.9228999 C1.27779428,18.962039 1.31264295,19.010927 1.35915585,19.0430411 C1.55643966,19.1788093 1.72247487,19.3517094 1.91284655,19.4957928 C2.02848078,19.5831031 2.13273879,19.6853235 2.24448495,19.7830995 C2.2621973,19.7713434 2.27861361,19.7650353 2.28782979,19.7531359 C2.30079004,19.7365053 2.31029422,19.7167207 2.31763837,19.6969362 C2.34168683,19.6322778 2.36357525,19.5667593 2.38733571,19.5019576 C2.43298459,19.3775154 2.47892148,19.2530732 2.52557838,19.1289177 C2.59426771,18.9451217 2.66396506,18.7617558 2.73265438,18.5778165 C2.75670285,18.5131582 2.77959929,18.4480697 2.80177572,18.3826945 C2.82568018,18.3123015 2.86340891,18.2420519 2.86672097,18.1703686 C2.87017704,18.0968216 2.89508952,18.0307296 2.90372969,17.96091 C2.91568192,17.8624172 2.90516971,17.7647845 2.93469028,17.6639978 C2.96176281,17.5719564 2.95038659,17.4688759 2.96982696,17.3693794 C3.00121957,17.2086655 3.05882068,17.0896712 3.2201038,17.0202818 C3.36857067,16.9567704 3.5206376,16.8891013 3.63137574,16.7639423 C3.74024184,16.6412205 3.88957273,16.6108268 4.03789559,16.5774224 C4.0694322,16.570254 4.10759294,16.5728346 4.13812153,16.5837305 C4.20292278,16.6070992 4.26469997,16.6392134 4.3279172,16.6673132 C4.55630561,16.7688168 4.78238997,16.8761983 5.01423445,16.9693866 C5.18502175,17.0379159 5.35955312,17.104438 5.55064481,17.0925385 C5.58491747,17.090388 5.62509425,17.0814993 5.65303079,17.0951191 C5.77154508,17.1526091 5.90575567,17.1566234 6.02369395,17.2017839 C6.14696033,17.2488081 6.27569882,17.2670157 6.39939721,17.2905278 C6.52784769,17.3150435 6.66177027,17.3546127 6.79814091,17.3335378 C6.81513324,17.3308138 6.83788568,17.3260827 6.84911789,17.3342546 C6.92587138,17.3898809 7.01414508,17.3729636 7.09449863,17.3642182 C7.18824444,17.3537525 7.26787798,17.4003466 7.3570157,17.4030706 C7.47927407,17.4069415 7.60124442,17.3881605 7.7245108,17.4316005 C7.79608018,17.4569764 7.88435389,17.4317439 7.96470744,17.4374786 C8.04088491,17.4430699 8.11720639,17.4723167 8.19223184,17.468159 C8.37410735,17.4581234 8.54892673,17.5313837 8.73094624,17.5054343 C8.74203446,17.5037139 8.75931479,17.5014201 8.76406688,17.5071547 C8.80899575,17.5623509 8.87062894,17.5303801 8.92390997,17.539699 C8.9826631,17.5501647 9.04069622,17.5663651 9.09973737,17.5732467 C9.22141972,17.5871533 9.34771015,17.5819921 9.46420841,17.6135328 C9.5418259,17.6344643 9.61987541,17.6264357 9.69202081,17.6465071 C9.7743904,17.6694457 9.85445594,17.679338 9.93797756,17.6771875 C9.94949778,17.6769008 9.96375405,17.6727432 9.97210622,17.677761 C10.0703161,17.7371148 10.1846543,17.7262189 10.2902084,17.7412724 C10.4363712,17.7620605 10.5795099,17.7874364 10.7191926,17.8347474 C11.0862557,17.959333 11.4551909,18.0751732 11.8418383,18.1297959 C11.9102397,18.1396882 11.9835371,18.1448494 12.0506424,18.1649207 C12.1667086,18.1997588 12.2852229,18.2205469 12.4046012,18.2257081 C12.5769725,18.2331632 12.7500639,18.229579 12.9228672,18.2265683 C12.9765802,18.2255648 13.0382134,18.2506539 13.0819903,18.1950277 C13.2277211,18.2075006 13.3731639,18.0999756 13.5191827,18.1933073 C13.7549153,18.2269984 13.9752395,18.3100077 14.1921077,18.4033393 C14.2849895,18.4431953 14.3700952,18.5100041 14.466145,18.5313657 C14.5751551,18.555738 14.6608368,18.6193928 14.7597667,18.6586752 C14.8634487,18.6998215 14.9642506,18.7482794 15.0673566,18.7912894 C15.1491502,18.8254106 15.1834229,18.8870582 15.2129434,18.9697808 C15.2640644,19.1142943 15.2764487,19.2730011 15.3804187,19.4000239 C15.4740205,19.5145738 15.5429978,19.6474747 15.6848406,19.7200182 C15.7637541,19.7603042 15.8298514,19.8256794 15.9057408,19.8827393 C15.8799643,19.9141365 15.8377715,19.9419497 15.8347475,19.9736337 C15.8274033,20.0509083 15.7736903,20.0993662 15.7447457,20.1614439 C15.7044249,20.2481807 15.6485519,20.3260288 15.6109671,20.4156329 C15.5656063,20.5233012 15.6370316,20.6424389 15.5555261,20.7372042 C15.549766,20.743799 15.55351,20.7595694 15.5552381,20.7708953 C15.5566781,20.7812177 15.5585501,20.7941207 15.5653183,20.8005722 C15.6113991,20.8444424 15.5792865,20.8937605 15.5887907,20.9310358 C15.4940369,20.9618596 15.4126753,20.9883825 15.3313137,21.0146186 C15.2820648,21.1318924 15.1526063,21.0470179 15.0813249,21.1139716 C15.0538204,21.0779866 15.0264598,21.0421449 14.9931952,20.9985615 C14.9620906,21.0600658 14.9386181,21.1066599 14.9240739,21.1354766 C14.6782611,21.2120344 14.464705,21.0603525 14.2334365,21.0835779 C14.1592751,21.0202098 14.0702814,21.0528974 13.9884878,21.0513204 C13.8993501,21.0496 13.8511091,21.1354766 13.8801977,21.2230736 C13.9321827,21.3793432 13.9807116,21.5370464 14.0347127,21.6925992 C14.0941858,21.8643524 14.1330666,22.0419836 14.1879316,22.214597 C14.2674212,22.4647717 14.3808954,22.7000363 14.5390104,22.9127923 C14.5735711,22.9592431 14.6074117,23.0131489 14.618356,23.0683451 C14.6311722,23.1337202 14.6375083,23.2117117 14.6133159,23.2706353 C14.5773152,23.3583757 14.5659389,23.4466895 14.5470746,23.5368671 C14.5274902,23.6306289 14.518562,23.7220967 14.517986,23.8162886 C14.517842,23.8390839 14.5276342,23.8700511 14.516258,23.8835275 C14.463841,23.9468956 14.4776652,24.0278977 14.4523208,24.0985774 C14.4252482,24.174275 14.4213602,24.2594348 14.415456,24.3412971 C14.4096959,24.4210089 14.414304,24.5017243 14.414304,24.5818662 C14.414304,24.6106829 14.4256802,24.6468113 14.412288,24.6665959 C14.3559829,24.7501786 14.3942876,24.8426501 14.3784473,24.92867 C14.361455,25.0211415 14.3387026,25.1114624 14.3440307,25.2072313 C14.3492148,25.3042905 14.3405746,25.4023533 14.3464787,25.4995558 C14.3519508,25.5926007 14.3686551,25.6850722 14.3795993,25.777687 C14.3916956,25.8819145 14.4029278,25.9859987 14.414592,26.0902262 C14.4913455,26.1392576 14.4278403,26.2248474 14.4694571,26.2923731 C14.5031537,26.3467091 14.4824173,26.434306 14.4855854,26.5038388 C14.3713912,26.5980307 14.3027019,26.7137275 14.2451007,26.8407503 C14.1705073,27.0053352 14.0779135,27.1616048 14.0041841,27.3264764 C13.9267106,27.498803 13.7765157,27.6275462 13.7203546,27.8116289 C13.7160345,27.826109 13.6958741,27.8354278 13.6849299,27.8484742 C13.6254568,27.9201575 13.5664156,27.9922709 13.5102546,28.0605134 C13.534303,28.1169998 13.5636796,28.1413721 13.6179686,28.1380747 C13.7289948,28.1311931 13.8382929,28.1353507 13.9506151,28.1083978 C14.0594812,28.0823051 14.1798675,28.1072509 14.2947817,28.1015162 C14.4055198,28.0959249 14.515394,28.0767138 14.6261321,28.0695455 C14.7063417,28.0640975 14.7872712,28.0696888 14.8679128,28.0676817 C14.9004574,28.0668215 14.9368901,28.0658179 14.9643946,28.0514813 C15.0139316,28.0253885 15.0584285,28.0295462 15.0931331,28.0418757 C15.1200617,28.1306196 15.1435341,28.2073208 15.1665745,28.2841653 C15.2109274,28.4318329 15.2378559,28.5852351 15.3128814,28.7227237 C15.3223856,28.9245838 15.4178594,29.1046523 15.4652363,29.297337 C15.5297496,29.5604147 15.6632401,29.8051415 15.6930487,30.0798319 C15.7991788,30.2895772 15.8052269,30.5354509 15.9333894,30.7378846 C15.9554218,30.7724359 15.96795,30.8191734 15.967806,30.8601763 C15.966654,31.0378075 16.0386554,31.1999551 16.0899204,31.3616726 C16.1537136,31.5629593 16.1907223,31.7762888 16.3020365,31.9619486 C16.3124047,31.9794393 16.3161488,32.0043851 16.3142767,32.0250299 C16.3057806,32.1160677 16.3501334,32.1929122 16.3720218,32.2762082 C16.3887262,32.3400063 16.4153667,32.3784286 16.482184,32.4007937 C16.4937042,32.3778551 16.5193367,32.3496119 16.5204887,32.3203651 C16.5252408,32.2000805 16.5325849,32.0783623 16.5196247,31.959368 C16.5066644,31.8387967 16.5559134,31.7295513 16.5593695,31.6121341 C16.5644095,31.4333559 16.5392091,31.2548645 16.586154,31.0745093 C16.6155305,30.9615365 16.6011303,30.8342269 16.589034,30.7149459 C16.5762178,30.58907 16.6212906,30.4726564 16.6271948,30.350508 C16.6358349,30.1659952 16.6086184,29.981339 16.6557073,29.7958227 C16.6830678,29.688011 16.6698196,29.5667228 16.6582994,29.4533199 C16.6460591,29.3330353 16.693436,29.2229297 16.6963161,29.1059426 C16.7049563,28.7495332 16.7167645,28.3928371 16.7315968,28.0365711 C16.7336128,27.9898336 16.7599653,27.9440997 16.7769577,27.892201 C16.9107362,28.0860326 17.0351546,28.2663878 17.1607251,28.4478899 C17.1800214,28.4286788 17.2046459,28.413912 17.2026299,28.4047366 C17.1722453,28.2628036 17.1661972,28.1154228 17.1304845,27.9769306 C17.1098921,27.896502 17.1427247,27.8106254 17.10514,27.7484043 C17.0642432,27.6807352 17.0996679,27.6112024 17.0720194,27.5551461 C17.0403387,27.4900577 17.0407707,27.4278366 17.0422108,27.3588772 C17.0979399,27.3065484 17.155109,27.2529293 17.2174622,27.1944357 C17.3814813,27.3597374 17.5299482,27.525756 17.7413443,27.6167937 C17.8163697,27.6491946 17.8854911,27.6851796 17.9700207,27.6917745 C18.0620385,27.6989428 18.1608244,27.7031004 18.243194,27.7390855 C18.4606382,27.8339941 18.6721783,27.9456767 18.8518937,28.102233 C19.0503296,28.2751332 19.2130527,28.4797173 19.3587835,28.7000718 C19.485218,28.8914662 19.6378609,29.0657999 19.7673194,29.2553306 C19.8453689,29.3695938 19.9326346,29.476832 19.9833236,29.6130302 C20.0495649,29.7912349 20.0523009,29.9764646 20.0763494,30.1578233 C20.0956458,30.3046307 20.1266064,30.4446999 20.1713912,30.5844823 C20.1941437,30.6560222 20.2298563,30.723978 20.2233762,30.8054102 C20.2199202,30.8507141 20.2364805,30.9033296 20.2596649,30.9436156 C20.4262761,31.2340764 20.6584086,31.4512768 20.988319,31.5420278 C21.3044051,31.6291947 21.6236593,31.7047489 21.9417614,31.7843174 C22.1701498,31.8412339 22.3989702,31.8962867 22.6397429,31.955067 C22.6397429,31.9295477 22.645071,31.9064657 22.6388789,31.8871112 C22.5871819,31.725107 22.5344769,31.5633894 22.4800438,31.4022454 C22.4427471,31.2915664 22.387882,31.1846149 22.3672896,31.0712119 C22.3455452,30.9532212 22.3016244,30.8462697 22.2633196,30.7348739 C22.2237189,30.6194638 22.2085986,30.4968853 22.1599256,30.3816186 C22.1317011,30.3146664 22.0886443,30.2315138 22.125365,30.1588269 C22.1502774,30.1097955 22.1360212,30.0533091 22.1593496,30.018471 C22.2211268,29.9264296 22.1894462,29.8293704 22.1857021,29.7381893 C22.1821021,29.649302 22.1622297,29.5576907 22.1311251,29.4700938 C22.0565316,29.2599183 21.972866,29.0527536 21.8765282,28.8526138 C21.7316614,28.5518307 21.5741223,28.2569256 21.349766,28.0024499 C21.2589002,27.8993693 21.1733626,27.788977 21.0951691,27.6771511 C20.9134376,27.4169407 20.7043455,27.1806726 20.4912214,26.9472717 C20.4242601,26.873868 20.3308023,26.8238331 20.264705,26.7495692 C20.1554069,26.6271341 20.0132762,26.5462754 19.8825216,26.4572447 C19.7330468,26.3557411 19.5723396,26.2649901 19.4175367,26.1696513 C19.3125586,26.1047062 19.2011005,26.0449224 19.0961224,25.980264 C18.9747281,25.90557 18.8514617,25.8258582 18.7195552,25.7677947 C18.5319196,25.6852156 18.4571821,25.6258618 18.3968449,25.4781942 C18.3828767,25.4439296 18.3704924,25.4086614 18.3602682,25.3729631 C18.3307477,25.2698825 18.3026671,25.1663719 18.2750186,25.0660152 C18.4910228,24.8515388 18.6988188,24.6452343 18.9063268,24.4384996 C18.9092068,24.4356323 18.9070468,24.4276038 18.9070468,24.4218691 C18.9071908,24.4161344 18.9070468,24.4103998 18.9070468,24.391332 L18.0086134,23.4968678 C18.0338139,23.3980882 18.0598784,23.2942908 18.087383,23.1906368 C18.0927111,23.1704221 18.1006312,23.1492038 18.1127275,23.1325733 C18.2835148,22.8973087 18.4027491,22.6320805 18.5457438,22.381189 C18.6224973,22.2461376 18.6858585,22.1439172 18.8544858,22.188791 C18.9531277,22.0024144 19.0661699,21.8336719 19.1568916,21.651453 C19.1964924,21.5717411 19.2399812,21.4881584 19.2906702,21.4147547 C19.4040004,21.2503132 19.4906901,21.0721086 19.59034,20.9006421 C19.6224526,20.8450159 19.6492371,20.7876692 19.6865339,20.7334767 C19.7746636,20.6061671 19.849545,20.4698255 19.9362347,20.3266022 C20.1853595,20.3266022 20.4496046,20.3266022 20.7137057,20.3263155 C20.7186018,20.3263155 20.7240739,20.3228747 20.728106,20.3197207 C20.7324261,20.3162799 20.7354501,20.311262 20.7371781,20.3091115 C20.7371781,20.2844525 20.7443783,20.2585031 20.7361701,20.239292 C20.6372402,20.0099054 20.5799271,19.7654654 20.4798452,19.5366523 C20.4521966,19.4734276 20.4529167,19.4251131 20.5034616,19.3706338 C20.5545826,19.3154376 20.5941834,19.2487722 20.6346482,19.1846873 C20.7718828,18.9683471 20.9047974,18.749713 21.0787527,18.5590355 C21.142114,18.489646 21.2025951,18.4166724 21.2564522,18.3399713 C21.4602161,18.0503708 21.608395,17.7292296 21.7777422,17.4199878 C21.8547837,17.2796319 21.9171369,17.1335414 21.9849622,16.9893146 C22.0802921,16.787311 22.1643897,16.5814366 22.2395592,16.3716913 C22.3059444,16.1867484 22.3806819,16.0035259 22.4284908,15.8137085 C22.4692436,15.6524211 22.5231006,15.4974418 22.5822858,15.3431793 C22.6646554,15.1285595 22.7887858,14.9264126 22.7779856,14.6841231 C22.8373147,14.6039811 22.7828817,14.5013306 22.8191704,14.4263499 C22.8632352,14.3357422 22.8316986,14.2487187 22.8482589,14.1625554 C22.8548831,14.1271438 22.8733154,14.0941695 22.8864197,14.0604784 C22.9960058,14.1235597 23.0920556,14.1830568 23.1915616,14.2356723 C23.3658049,14.3277137 23.5462404,14.4065653 23.7292679,14.479969 C23.8724067,14.5376024 24.0122334,14.6031209 24.1596923,14.6498584 C24.2204614,14.6692129 24.2784945,14.6964526 24.3388317,14.7176708 C24.3941288,14.7370253 24.4504339,14.7539426 24.506883,14.7702864 C24.5688042,14.7883506 24.6475737,14.7869169 24.6891905,14.8256259 C24.7462156,14.8786715 24.8306012,14.8200346 24.871786,14.8901409 C25.0297571,14.9041908 25.1677117,14.9836159 25.3138745,15.0332207 C25.4534132,15.0805317 25.5824397,15.1655481 25.7081542,15.2464069 C25.9428787,15.3975153 26.1787553,15.5457563 26.4460244,15.6329232 C26.6947172,15.7143554 26.944562,15.798655 27.2122632,15.7836015 C27.2828246,15.7795872 27.3530979,15.7638169 27.4225073,15.749767 C27.4858685,15.7370074 27.5525418,15.7289788 27.6101429,15.7025994 C27.8640198,15.5864724 28.0556875,15.399379 28.2037224,15.1662649 C28.290556,15.0294932 28.3346209,14.8743705 28.3729256,14.7205382 C28.394382,14.6342315 28.3811338,14.5378891 28.3753737,14.4464212 C28.3701896,14.3648456 28.3583814,14.2826966 28.340237,14.2029848 C28.3313088,14.1629855 28.290412,14.1292943 28.2839319,14.0895818 C28.2693876,13.9996909 28.2181226,13.9323086 28.1701697,13.860482 C28.0749839,13.7179756 28.0090306,13.5572616 27.822979,13.4900227 C27.6893444,13.4417081 27.5876785,13.317696 27.4327315,13.3066568 C27.4235153,13.30594 27.4147311,13.294614 27.406523,13.2874457 C27.2944888,13.1918201 27.1579742,13.1380577 27.0326917,13.0649407 C26.9065453,12.991537 26.8008473,12.886736 26.6667807,12.8230813 C26.6420122,12.8113252 26.6250199,12.7726162 26.6152277,12.7429393 C26.5556105,12.5610071 26.4970014,12.3785014 26.4418483,12.1951356 C26.3498306,11.889478 26.2360684,11.5924224 26.0953776,11.3058326 C26.060385,11.2342926 26.0219362,11.1643297 25.9814714,11.0873419 C26.167811,10.9760894 26.3492545,10.871145 26.527242,10.7606094 C26.7078215,10.6483533 26.8997772,10.5534446 27.0773326,10.4236979 C27.0299557,10.3528748 26.9726426,10.3260652 26.9071213,10.3141658 C26.8214397,10.2986822 26.73547,10.2857792 26.6247319,10.267715 C26.6594365,10.2421958 26.6755648,10.2245617 26.6954372,10.2166765 C26.9746586,10.1071444 27.1928228,9.90585772 27.4230833,9.72607601 C27.563054,9.61697403 27.6959686,9.49769302 27.8362273,9.38787421 C27.9332851,9.31188991 28.0133507,9.20981289 28.1186167,9.15031575 C28.2289229,9.08795128 28.3272768,9.01411749 28.4296627,8.94214745 C28.6024661,8.82100268 28.7697973,8.69527017 28.9217202,8.54932298 C28.9881055,8.48566821 29.0524748,8.41986294 29.117564,8.35491787 C29.170269,8.30230233 29.2375183,8.25742858 29.272655,8.19492075 C29.377345,8.00854417 29.5079556,7.83865475 29.5985333,7.64181241 C29.7066794,7.40740803 29.7690326,7.16339808 29.788761,6.91322336 C29.8090654,6.65315635 29.8077693,6.39022201 29.7279918,6.13259224" id="Fill-1" fill="#231F20" mask="url(#mask-2)"></path>
                            </g>
                            <path d="M17.3385996,11.1784584 C17.1999865,11.2047432 17.0882306,11.2541588 17.0025858,11.3510373 C16.8308488,11.5450946 16.7641533,11.794125 16.8656139,12.0481118 C16.9203729,12.1850935 17.0146716,12.2954899 17.133291,12.3811035 C17.2704121,12.4799346 17.4312571,12.4522979 17.5858354,12.4541003 C17.6622293,12.3838071 17.7554835,12.4347246 17.8414267,12.4142975 C17.8818617,12.4976581 17.8297886,12.5714059 17.8274012,12.6465055 C17.8233727,12.7879932 17.7636899,12.9089036 17.7293724,13.0391263 C17.6940103,13.1740052 17.6228387,13.2863542 17.5471908,13.3953988 C17.3569521,13.6690618 17.1168783,13.8832459 16.801455,14.0067096 C16.6118131,14.0810583 16.4245585,14.1557073 16.2159674,14.1487981 C16.1146559,14.1456439 16.0128968,14.1531539 15.9118838,14.1474463 C15.7200038,14.1363316 15.540508,14.0827104 15.3614598,14.0080614 C15.1042272,13.9008192 14.9002614,13.7315447 14.7185275,13.5281749 C14.5357491,13.3234534 14.4392123,13.0721701 14.3490914,12.8181832 C14.3744565,12.7390282 14.3140278,12.6736916 14.3135801,12.5990426 C14.3126849,12.4489935 14.2986594,12.2968417 14.3193992,12.1497967 C14.3299929,12.0739461 14.3311865,11.9892337 14.3646089,11.9183397 C14.4260821,11.7876664 14.4900918,11.6568429 14.568127,11.5357823 C14.6110986,11.469244 14.6412384,11.407362 14.6349717,11.3202464 C14.694356,11.2685779 14.7350895,11.1817627 14.8389374,11.1861185 C14.960541,11.0755719 15.0819954,10.9653257 15.2034497,10.8550794 C15.1958402,10.7980037 15.2468689,10.7983041 15.2776055,10.7814818 C15.3714566,10.7302639 15.4675458,10.6844531 15.5787049,10.6871567 C15.5954161,10.6876073 15.6143654,10.6862555 15.62854,10.6785954 C15.8380264,10.5669973 16.064224,10.6342866 16.2823644,10.6156619 C16.3542821,10.6718364 16.4387332,10.6432985 16.5178128,10.6529113 C16.5786892,10.660271 16.6443402,10.666279 16.6973086,10.6934651 C16.9291761,10.8133241 17.1689515,10.9246217 17.3385996,11.1784584" id="Fill-4" fill="#231F20"></path>
                        </g>
                    </g>
                    <g id="Shpadoinkle" transform="translate(51.543996, 8.666667)">
                        <g id="Group-81" transform="translate(0.569942, 2.272556)" fill="#B6AB42">
                            <path d="M4.04672585,9.11181389 C2.99078148,8.32418814 2.11745861,7.57340358 1.51156662,6.65857879 C2.08970635,7.94394834 3.13264792,8.88126564 4.46786154,9.87694713 C5.95134598,10.98354 7.37486225,11.8223556 8.07002724,12.6264629 C7.85499575,11.5638856 6.00296906,10.5705309 4.04672585,9.11181389" id="Fill-1"></path>
                            <path d="M5.71737308,18.043009 C2.93302572,18.043009 1.29156689,16.78401 1.29156689,16.78401 L0.206705818,17.1215916 L0.0421329763,18.0693796 L1.71270258,17.5491433 C1.71270258,17.5491433 3.35396734,18.8083362 6.1383147,18.8083362 C8.92285613,18.8083362 12.1174712,17.0513995 12.1174712,13.8010375 C12.1174712,12.4553647 11.7700827,11.4616222 11.2412372,10.6751599 C11.5253583,11.3225952 11.6963355,12.0923821 11.6963355,13.0357103 C11.6963355,16.2860723 8.50172044,18.043009 5.71737308,18.043009" id="Fill-3"></path>
                            <path d="M7.16417796,2.61196244 C8.27310392,2.8620947 9.39231569,3.45930969 10.1924735,3.95046086 L9.82393125,3.21673957 C9.02066829,2.72015918 7.87545091,2.10219678 6.74304227,1.8466353 C5.04316783,1.46309918 4.19313358,2.40603961 4.19313358,3.57739538 C4.19313358,3.92505983 4.37264994,4.30161552 4.6689975,4.68961136 C4.63348237,4.57113787 4.61426927,4.45537899 4.61426927,4.34252862 C4.61426927,3.17117285 5.46410945,2.22823242 7.16417796,2.61196244" id="Fill-5"></path>
                            <polygon id="Fill-7" points="11.0035381 5.49208993 12.2638401 0.0454116078 11.5904111 0.371165242 10.5942408 4.67712414"></polygon>
                            <polygon id="Fill-9" points="14.6672246 17.5199999 19.6203237 17.5199999 19.182886 16.7546728 14.9763809 16.7546728"></polygon>
                            <polygon id="Fill-11" points="18.2615304 11.190762 18.2615304 15.1147359 18.682472 15.850784 18.682472 11.9560891 23.0976043 11.9560891 23.0976043 11.190762"></polygon>
                            <polygon id="Fill-13" points="27.6510708 1.00432948 26.7899745 1.00432948 26.4387046 1.61511754 26.4387046 15.0854181 27.1129099 16.7547116 23.0183842 16.7547116 22.5805583 17.5200387 27.5338515 17.5200387 26.8598403 15.8507452 26.8598403 2.38063858"></polygon>
                            <polygon id="Fill-15" points="18.3200818 8.08683396 18.7412175 8.08683396 18.7412175 2.58547557 19.5033373 1.00440704 18.7132712 1.00440704 18.3200818 1.82034233"></polygon>
                            <path d="M34.3334657,8.49887353 L34.3334657,3.81558334 C36.1885975,3.6883843 37.1614792,4.18302568 37.669365,4.7839248 C37.3965001,3.93425073 36.5369563,2.87051 33.9125241,3.0500623 L33.9125241,8.49034189 C33.9125241,8.49034189 34.0759325,8.50352715 34.3334657,8.49887353" id="Fill-17"></path>
                            <polygon id="Fill-19" points="30.2594922 17.5199999 35.2125913 17.5199999 34.7751536 16.7546728 30.5686485 16.7546728"></polygon>
                            <path d="M41.6606251,5.4845084 C41.5263275,4.41669574 41.1995106,3.60541407 40.7774046,2.98531876 C40.9914657,3.47278581 41.1546801,4.04363027 41.2396835,4.71937516 C41.2396835,4.71937516 41.7085608,8.84830247 39.2172618,10.2244177 C39.2172618,10.2244177 38.132983,11.1908201 33.8537009,11.1908201 L33.8537009,15.1147941 L34.2748366,15.8508422 L34.2748366,11.9561473 C38.5539246,11.9561473 39.6383975,10.9899387 39.6383975,10.9899387 C42.1296965,9.61343571 41.6606251,5.4845084 41.6606251,5.4845084" id="Fill-21"></path>
                            <polygon id="Fill-23" points="45.9091662 14.1293894 45.6791911 15.2693332 46.2947867 16.7482159 42.4865168 16.7482159 42.0997318 17.513543 46.7159224 17.513543 46.1003268 16.0346603 46.3303019 14.8945226 49.9402304 14.8945226 49.7861375 14.1293894"></polygon>
                            <polygon id="Fill-25" points="50.2276507 2.50593739 50.8430522 0.997969526 50.1098491 0.997969526 49.806515 1.74061025 53.1478483 15.269275 53.8950245 16.7481577 50.1399303 16.7481577 49.8214585 17.5134849 54.3161602 17.5134849 53.5687899 16.0346021"></polygon>
                            <polygon id="Fill-27" points="47.7869656 4.81531736 46.5375317 11.013362 47.1125663 11.013362 48.0745799 6.24204072"></polygon>
                            <path d="M60.476502,3.83520612 L61.7220545,3.79545642 C62.7954653,3.78789428 63.7633011,4.43707474 64.4493448,5.47832296 C63.7761099,3.99885854 62.6176956,3.02101593 61.3009188,3.03006612 L60.0553663,3.07007288 L60.0553663,13.8945947 L60.476502,13.8945947 L60.476502,3.83520612 Z" id="Fill-29"></path>
                            <path d="M67.4911283,3.78465613 C67.8914983,4.6352997 68.1874577,5.68876368 68.3103051,6.99565624 C68.3103051,6.99565624 68.8381803,13.2220104 66.0340376,15.2973325 C66.0340376,15.2973325 64.8133263,16.7546922 59.9968537,16.7546922 L56.7116072,16.7546922 L56.4024509,17.5200193 L60.4177953,17.5200193 C65.234268,17.5200193 66.4549792,16.0626596 66.4549792,16.0626596 C69.2591219,13.9873375 68.7314408,7.76098338 68.7314408,7.76098338 C68.5686146,6.02964159 68.101678,4.74291474 67.4911283,3.78465613" id="Fill-31"></path>
                            <path d="M74.8628272,9.2443646 C74.8628272,6.35116819 76.2481113,4.00574202 77.956913,4.00574202 C78.7403807,4.00574202 79.455341,4.4996078 80.0006826,5.31263458 C79.4355457,4.05363556 78.5418453,3.24041488 77.5357774,3.24041488 C75.8271697,3.24041488 74.4416915,5.58584105 74.4416915,8.47903746 C74.4416915,10.0457573 74.8484659,11.4507638 75.4923959,12.4107675 C75.0974599,11.5312327 74.8628272,10.4343349 74.8628272,9.2443646" id="Fill-33"></path>
                            <path d="M84.282507,8.47709845 C84.282507,13.2507465 81.2654676,17.1206221 77.5437537,17.1206221 C75.3973202,17.1206221 73.4864898,15.8317623 72.2525816,13.8258568 C73.443988,16.2637737 75.5560709,17.8859492 77.9648894,17.8859492 C81.6864092,17.8859492 84.7034486,14.0160736 84.7034486,9.24242559 C84.7034486,7.22217136 84.1616003,5.36556954 83.2562556,3.89386116 C83.9058137,5.22285843 84.282507,6.7930685 84.282507,8.47709845" id="Fill-35"></path>
                            <polygon id="Fill-37" points="92.1060243 1.00432948 91.244928 1.00432948 90.8936581 1.61511754 90.8936581 15.0854181 91.5678633 16.7547116 89.9265986 16.7547116 88.3678143 16.7547116 87.4566474 16.7547116 87.1474912 17.5200387 88.7887559 17.5200387 90.3473461 17.5200387 91.988805 17.5200387 91.3145997 15.8507452 91.3145997 2.38063858"></polygon>
                            <polygon id="Fill-39" points="106.612499 1.6151951 106.612499 16.7545952 104.026493 16.7545952 104.439866 17.5199224 107.033635 17.5199224 107.033635 2.38052224 107.824865 1.00440704 106.963963 1.00440704"></polygon>
                            <polygon id="Fill-41" points="98.4993881 15.0854375 99.1733993 16.7545371 97.5321345 16.7545371 95.9733502 16.7545371 95.0621834 16.7545371 94.7530271 17.5200581 96.3944859 17.5200581 97.9532702 17.5200581 99.594535 17.5200581 98.9203297 15.8507646 98.9203297 7.31446822 98.4993881 6.53479241"></polygon>
                            <polygon id="Fill-43" points="117.840229 9.75847364 122.486501 1.00442643 121.659561 1.00442643 117.383384 9.06043014"></polygon>
                            <polygon id="Fill-45" points="117.50629 16.7546146 117.145122 17.5199418 122.838411 17.5199418 122.337706 16.7546146"></polygon>
                            <polygon id="Fill-47" points="114.062273 8.79691871 114.483409 7.98427974 114.483409 2.38054163 115.274639 1.00442643 114.413737 1.00442643 114.062273 1.61521449"></polygon>
                            <polygon id="Fill-49" points="114.062273 9.76320482 114.062273 15.0853987 114.736478 16.7546922 113.095214 16.7546922 111.536429 16.7546922 110.625263 16.7546922 110.316106 17.5200193 111.957371 17.5200193 113.516155 17.5200193 115.15742 17.5200193 114.483409 15.8509198 114.483409 10.528532 117.48337 15.1460897 117.515392 15.0780305"></polygon>
                            <polygon id="Fill-51" points="128.044735 13.9360507 128.465677 13.9360507 128.465677 2.60021204 129.301156 1.00440704 128.479262 1.00440704 128.044735 1.8348849"></polygon>
                            <polygon id="Fill-53" points="132.419112 16.7546146 125.626601 16.7546146 124.715628 16.7546146 124.406472 17.5199418 126.047737 17.5199418 132.840054 17.5199418 132.840054 13.9767893 132.419112 14.1778646"></polygon>
                            <polygon id="Fill-55" points="143.607814 14.2108084 143.607814 16.7545952 135.914034 16.7545952 135.002867 16.7545952 134.693711 17.5199224 136.334975 17.5199224 144.028756 17.5199224 144.028756 13.9327544"></polygon>
                            <polygon id="Fill-57" points="141.145723 10.3123324 138.398055 10.3123324 138.398055 14.0239848 138.819191 14.0239848 138.819191 11.0776595 141.566859 11.0776595 143.171444 12.044062 143.171444 7.69544485 142.750502 7.89012143 142.750502 11.2785409"></polygon>
                            <polygon id="Fill-59" points="141.651358 3.02078325 138.397939 3.02078325 138.397939 7.74285364 138.819074 7.74285364 138.819074 3.78611039 142.072299 3.78611039 143.457195 4.59874937 143.457195 1.00440704 143.036254 1.00440704 143.036254 3.83342223"></polygon>
                            <path d="M10.1925705,3.95053842 L10.5826547,4.72691791 L10.594105,4.67708536 L10.245164,3.98214427 C10.2284738,3.97186752 10.2094548,3.96100907 10.1925705,3.95053842" id="Fill-61"></path>
                            <path d="M8.36577318,8.17866546 C9.37921584,8.86507491 10.4924114,9.5621489 11.2411402,10.6751405 C10.5463633,9.09174514 9.17214129,8.2447857 7.94483156,7.41333832 C6.72916614,6.59003479 5.36988762,5.60753857 4.66890047,4.68961136 C5.00173351,5.79872493 6.80310747,7.12016005 8.36577318,8.17866546" id="Fill-63"></path>
                            <polygon id="Fill-67" points="19.1828084 16.7546146 19.1994985 16.7546146 18.6824914 15.8508422 18.6824914 15.8801212"></polygon>
                            <polygon id="Fill-69" points="34.7750565 16.7546146 34.7917467 16.7546146 34.2749337 15.8508422 34.2749337 15.8801212"></polygon>
                            <polygon id="Fill-71" points="48.0746575 6.24211828 49.0364771 11.0132456 47.1126439 11.0132456 46.9583568 11.7785728 49.4574187 11.7785728 48.2079848 5.58072206"></polygon>
                            <path d="M61.3009188,13.8945753 L60.476502,13.8945753 L60.476502,14.6599024 L61.7220545,14.6599024 C63.8021155,14.6599024 65.4882108,12.2278025 65.4882108,9.22776668 C65.4882108,7.77583619 65.0924985,6.45478887 64.4493448,5.47830357 C64.839429,6.33592757 65.0670751,7.36146981 65.0670751,8.46224564 C65.0670751,11.4624754 63.3811739,13.8945753 61.3009188,13.8945753" id="Fill-75"></path>
                            <polygon id="Fill-77" points="98.9203297 7.31444883 104.018789 16.7547116 104.026551 16.7547116 98.9203297 7.30010016"></polygon>
                        </g>
                        <g id="Group-105" fill="#121212">
                            <path d="M1.88747346,15.0539566 C3.03763778,15.6766259 4.97406388,16.4458974 6.02183222,16.4458974 C7.54189961,16.4458974 8.4481718,15.6214552 8.4481718,14.4732015 C8.4481718,13.3251428 6.4894857,12.2946387 4.41407981,10.7342614 C2.33867391,9.17388405 0.964554667,7.76069374 0.964554667,4.93431313 C0.964554667,2.10793252 3.82931939,0.105799197 6.50419666,0.105799197 C9.17907393,0.105799197 10.8160547,1.5189895 10.8160547,1.5189895 L12.1899804,0.849532266 L10.9327745,6.32566907 L10.1761282,4.80740088 C9.37534903,4.30813472 8.23273375,3.68663511 7.10347447,3.42988637 C5.40784346,3.04427588 4.56041508,3.99212128 4.56041508,5.16981235 C4.56041508,6.34750343 6.5773643,7.84900595 8.30203008,9.02650208 C10.0266959,10.2041932 12.0438387,11.4113216 12.0438387,14.6792633 C12.0438387,17.9473999 8.8573686,19.7138391 6.08028891,19.7138391 C3.30320922,19.7138391 1.66622846,18.4478358 1.66622846,18.4478358 L1.93565184e-05,18.9706908 L0.979459186,13.2884922 L1.88747346,15.0539566 Z" id="Fill-82"></path>
                            <polygon id="Fill-85" points="23.3567558 9.70367932 23.3567558 3.40329523 22.5966253 1.81328556 27.5369895 1.81328556 26.7476307 3.19723341 26.7476307 16.7403884 27.4198826 18.4183204 22.479712 18.4183204 23.4152125 16.7696309 23.4152125 12.8246289 18.5917617 12.8246289 18.5917617 16.7696309 19.5272622 18.4183204 14.586898 18.4183204 15.2593435 16.7403884 15.2593435 3.19723341 14.4699847 1.81328556 19.4101553 1.81328556 18.6504119 3.40329523 18.6504119 9.70367932"></polygon>
                            <path d="M38.0605285,7.37457638 C38.0314937,10.4331421 34.2018066,10.1093306 34.2018066,10.1093306 L34.2018066,4.63982213 C38.4697253,4.34544809 38.0605285,7.37457638 38.0605285,7.37457638 M41.5098601,6.31794906 C40.9252932,1.63662215 36.7160247,1.81344152 36.7160247,1.81344152 L34.961937,1.81344152 L30.0217664,1.81344152 L30.8109317,3.19719442 L30.8109317,16.7403494 L30.1384862,18.4182814 L35.0788504,18.4182814 L34.1435434,16.7695919 L34.1435434,12.8245899 C38.4112686,12.8245899 39.4929109,11.8529607 39.4929109,11.8529607 C41.9777071,10.4692078 41.5098601,6.31794906 41.5098601,6.31794906" id="Fill-87"></path>
                            <path d="M46.7938412,12.646016 L48.0400138,6.41444916 L49.28638,12.646016 L46.7938412,12.646016 Z M54.132478,18.4118481 L53.3870585,16.9251617 L50.0546403,3.32313192 L50.6684355,1.80681323 L45.4117858,1.80681323 L46.0257745,3.32313192 L42.6931628,16.9251617 L41.9479368,18.4118481 L46.5518847,18.4118481 L45.9380895,16.9251617 L46.1672707,15.7788575 L50.0341223,15.7788575 L50.2633035,16.9251617 L49.6495083,18.4118481 L54.132478,18.4118481 Z" id="Fill-89"></path>
                            <path d="M61.5189641,15.5428514 L60.2764692,15.5428514 L60.2764692,4.65978497 L61.5189641,4.6195622 C63.5935957,4.60519906 65.2752901,7.06487931 65.2752901,10.0811409 C65.2752901,13.0975975 63.5935957,15.5428514 61.5189641,15.5428514 M68.5099578,8.60673641 C67.8518362,1.54741317 62.2111532,1.81390939 62.2111532,1.81390939 L61.3581114,1.81332455 L61.0365997,1.81332455 L56.0962355,1.81332455 L56.8855943,3.1972724 L56.8855943,16.7404274 L56.2133424,18.4183594 L60.2180125,18.4183594 C65.0221068,18.4183594 66.2396318,16.9533125 66.2396318,16.9533125 C69.0364551,14.866571 68.5099578,8.60673641 68.5099578,8.60673641" id="Fill-91"></path>
                            <path d="M77.711524,15.3648429 C76.006989,15.3648429 74.6253208,13.0067314 74.6253208,10.0978871 C74.6253208,7.18923771 76.006989,4.83112626 77.711524,4.83112626 C79.4160591,4.83112626 80.7975338,7.18923771 80.7975338,10.0978871 C80.7975338,13.0067314 79.4160591,15.3648429 77.711524,15.3648429 M77.7194602,1.4058602 C74.0074607,1.4058602 70.9982963,5.29666612 70.9982963,10.0963275 C70.9982963,14.8957939 74.0074607,18.7864049 77.7194602,18.7864049 C81.4312662,18.7864049 84.4404305,14.8957939 84.4404305,10.0963275 C84.4404305,5.29666612 81.4312662,1.4058602 77.7194602,1.4058602" id="Fill-93"></path>
                            <polygon id="Fill-95" points="90.0696545 18.4183594 91.7066352 18.4183594 91.0341898 16.7404274 91.0341898 3.1972724 91.8237422 1.81332455 90.1573395 1.81332455 88.4274475 1.81332455 86.7610448 1.81332455 87.5504036 3.1972724 87.5504036 16.7404274 86.8781517 18.4183594 88.5151325 18.4183594"></polygon>
                            <polygon id="Fill-97" points="102.546653 1.81336354 103.335819 3.50630665 103.335819 11.1021314 98.5125613 1.81336354 97.7431397 1.81336354 96.0130541 1.81336354 94.3470386 1.81336354 95.1362038 3.19731139 95.1362038 16.7402714 94.4637584 18.4183984 96.1007391 18.4183984 97.6554547 18.4183984 99.2924354 18.4183984 98.6201836 16.7402714 98.6201836 8.14337998 104.124984 18.4183984 106.71237 18.4183984 106.71237 3.19731139 107.501535 1.81336354 105.835132 1.81336354 104.10524 1.81336354 103.335819 1.81336354"></polygon>
                            <polygon id="Fill-99" points="117.104323 1.81336354 122.124823 1.81336354 117.455063 10.6825997 122.475757 18.4183984 116.797329 18.4183984 117.586687 16.7328633 114.142582 11.3892923 114.142582 16.7402714 114.814834 18.4183984 113.177853 18.4183984 111.623331 18.4183984 109.98635 18.4183984 110.658602 16.7402714 110.658602 3.19731139 109.869244 1.81336354 111.535453 1.81336354 113.265538 1.81336354 114.931747 1.81336354 114.142582 3.19731139 114.142582 10.4176631 117.762057 3.37393581"></polygon>
                            <polygon id="Fill-101" points="125.676764 18.4183594 124.039783 18.4183594 124.712035 16.7404274 124.712035 3.1972724 123.922676 1.81332455 125.589079 1.81332455 128.921497 1.81332455 128.088392 3.4181504 128.088392 15.5847656 130.93864 15.5847656 132.451352 14.8560437 132.451352 18.4183594"></polygon>
                            <polygon id="Fill-103" points="142.755678 12.9129216 142.755678 8.54078493 141.001784 9.35781908 138.414785 9.35781908 138.414785 4.61040422 141.659518 4.61040422 143.040799 5.42743837 143.040799 1.81326606 135.849466 1.81326606 134.18345 1.81326606 134.972615 3.19721391 134.972615 16.7403689 134.30017 18.4183009 135.937151 18.4183009 143.610849 18.4183009 143.610849 14.8117316 142.317253 15.6730193 138.414785 15.6730193 138.414785 11.9412924 141.155281 11.9412924"></polygon>
                        </g>
                        <g id="Group-124" opacity="0.776855469" transform="translate(1.624334, 1.079464)" fill="#F1E255">
                            <path d="M4.48004983,17.2087193 C3.47115037,17.2089138 2.08144273,16.9619153 0.334376156,16.0811682 L0.508210733,15.7333461 C4.19342626,17.5913819 6.21723283,16.4834896 6.23719377,16.4720058 L6.25599193,16.4624685 C7.49415148,15.9200061 8.24007042,15.1675269 8.47359402,14.2264413 C8.75440372,13.0949976 8.22592335,11.8965976 7.63775396,11.1524879 C6.60133554,9.84080728 3.78161079,8.32689544 3.75312285,8.3117135 C2.08803178,7.27369707 0.822934651,6.31606705 0.822934651,4.19604549 C0.822934651,2.67162308 1.59462839,1.77355298 2.24209921,1.28850949 C3.24363444,0.538365979 4.70834094,0.243486005 5.80406079,0.570092339 C8.21216386,1.28967733 8.93792807,1.89286745 8.96757878,1.91817069 L8.71758257,2.21577562 C8.71060593,2.20993642 8.00208953,1.63321737 5.69359734,0.943217691 C4.88702041,0.702447707 3.53549048,0.805412397 2.47368485,1.60071244 C1.89753078,2.03222987 1.21052568,2.83317448 1.21052568,4.19604549 C1.21052568,6.1155876 2.39616665,7.00781849 3.94633698,7.97459659 C4.05389349,8.03143155 6.85462628,9.53502745 7.94123773,10.9103554 C8.5867706,11.7272605 9.16447503,13.0519821 8.84975111,14.3204525 C8.58618921,15.382799 7.76895352,16.2222824 6.42013673,16.8153512 C6.31994445,16.8708237 5.66065211,17.2087193 4.48004983,17.2087193" id="Fill-106"></path>
                            <polygon id="Fill-108" points="15.0066153 15.8182287 15.3942063 15.8182287 15.3942063 1.86855689 15.0066153 1.86855689"></polygon>
                            <polygon id="Fill-110" points="23.3204429 15.8182287 23.7080339 15.8182287 23.7080339 1.86855689 23.3204429 1.86855689"></polygon>
                            <polygon id="Fill-111" points="15.2004108 10.3525359 23.5142384 10.3525359 23.5142384 9.96325546 15.2004108 9.96325546"></polygon>
                            <path d="M31.1191814,10.1264029 L33.0150829,10.1264029 C37.0223866,10.1264029 37.8634591,7.89660425 37.8634591,6.02591684 C37.8634591,3.80468235 36.4161942,2.53115121 33.8929766,2.53115121 L31.1191814,2.53115121 L31.1191814,10.1264029 Z M31.1191814,15.8182676 L30.7315904,15.8182676 L30.7315904,2.14187072 L33.8929766,2.14187072 C36.6220051,2.14187072 38.2510502,3.59369232 38.2510502,6.02591684 C38.2510502,7.70274256 37.5708279,10.5156834 33.0150829,10.5156834 L31.1191814,10.5156834 L31.1191814,15.8182676 Z" id="Fill-112"></path>
                            <polygon id="Fill-113" points="42.8212911 15.8637356 42.4443588 15.7728386 45.7022552 2.14179286 47.3105642 2.14179286 50.5120661 15.7736172 50.1345524 15.862957 47.0035921 2.53107336 46.0076769 2.53107336"></polygon>
                            <polygon id="Fill-114" points="43.2864197 13.2779789 49.6808965 13.2779789 49.6808965 12.8886984 43.2864197 12.8886984"></polygon>
                            <path d="M57.047471,15.6236663 L59.6677802,15.6236663 C62.6999048,15.6236663 65.1667279,12.6483955 65.1667279,8.99110528 C65.1667279,4.0955138 62.2043697,2.35854424 59.6677802,2.35854424 L57.047471,2.35854424 L57.047471,15.6236663 Z M59.6677802,16.0129468 L56.65988,16.0129468 L56.65988,1.96926375 L59.6677802,1.96926375 C63.7341915,1.96926375 65.554319,5.49595038 65.554319,8.99110528 C65.554319,12.8628891 62.9136613,16.0129468 59.6677802,16.0129468 L59.6677802,16.0129468 Z" id="Fill-115"></path>
                            <path d="M76.1961346,2.35846639 C73.6035382,2.35846639 71.4942678,5.33373719 71.4942678,8.99102743 C71.4942678,12.6483177 73.6035382,15.6235885 76.1961346,15.6235885 C78.7889248,15.6235885 80.8981952,12.6483177 80.8981952,8.99102743 C80.8981952,5.33373719 78.7889248,2.35846639 76.1961346,2.35846639 M76.1961346,16.012869 C73.3899755,16.012869 71.1066768,12.8630058 71.1066768,8.99102743 C71.1066768,5.11924364 73.3899755,1.96918589 76.1961346,1.96918589 C79.0024875,1.96918589 81.2857862,5.11924364 81.2857862,8.99102743 C81.2857862,12.8630058 79.0024875,16.012869 76.1961346,16.012869" id="Fill-116"></path>
                            <polygon id="Fill-117" points="87.4378156 15.8182287 87.8254067 15.8182287 87.8254067 1.86855689 87.4378156 1.86855689"></polygon>
                            <polygon id="Fill-118" points="103.632541 16.5425045 95.6839804 2.53113175 95.3506223 2.53113175 95.3506223 15.8182482 94.9694237 15.8182482 94.9694237 2.14185126 95.9035507 2.14185126 103.251343 15.0941865 103.251343 2.1638456 103.632541 2.1638456"></polygon>
                            <polygon id="Fill-119" points="110.492767 16.0706771 110.880358 16.0706771 110.880358 2.16382614 110.492767 2.16382614"></polygon>
                            <polygon id="Fill-120" points="117.955657 15.9224586 114.039631 9.70934725 117.773683 2.07789247 118.121353 2.24975981 114.483229 9.6854065 118.282978 15.7141935"></polygon>
                            <polygon id="Fill-121" points="129.257864 16.0129468 124.424023 16.0129468 124.424023 2.163904 124.811614 2.163904 124.811614 15.6236663 129.257864 15.6236663"></polygon>
                            <polygon id="Fill-122" points="140.889961 16.0129468 134.89606 16.0129468 134.89606 1.96926375 140.159546 1.96926375 140.159546 2.35854424 135.283651 2.35854424 135.283651 15.6236663 140.889961 15.6236663"></polygon>
                            <polygon id="Fill-123" points="135.089875 9.6510525 139.515002 9.6510525 139.515002 9.26177201 135.089875 9.26177201"></polygon>
                        </g>
                    </g>
                </g>
                <text id="" font-family="Roboto-Regular, Roboto" font-size="8" font-weight="normal" letter-spacing="0.0941176471" fill="#121212">
                    <tspan x="198.162162" y="16.7027027"></tspan>
                </text>
            </g>
        </g>
    </g>
</svg>