<?xml version="1.0" encoding="UTF-8"?>
<svg width="320px" height="174px" viewBox="0 0 320 174" version="1.1" xmlns="http://www.w3.org/2000/svg" xmlns:xlink="http://www.w3.org/1999/xlink">
    <!-- Generator: Sketch 63.1 (92452) - https://sketch.com -->
    <title>Group 3</title>
    <desc>Created with Sketch.</desc>
    <g id="Page-1" stroke="none" stroke-width="1" fill="none" fill-rule="evenodd">
        <g id="TryShpadoinkle" transform="translate(0.000000, -204.000000)">
            <g id="Group-3" transform="translate(-102.000000, 302.596078) rotate(-6.000000) translate(102.000000, -302.596078) translate(-828.000000, 158.096078)">
                <g id="Group-15" transform="translate(0.870340, 0.491898)">
                    <path d="M379.736477,93.6605634 C396.840206,94.4693471 419.178302,96.0655767 448.005358,98.685174 C653.111995,117.325302 686.177967,216.497254 913.351081,128.829615 C1127.3996,46.2268462 1249.24153,42.7387625 1352.35453,86.5525037 C1358.67701,89.2389868 1364.92907,92.1033083 1371.12766,95.1381345 C1478.41873,147.667814 1440.05318,131.571411 1440.05318,131.571411 L1372.75893,185.346695 L1352.38426,185.576327 L376.233136,196.578001 C308.844179,124.669314 310.011959,90.3635016 379.736477,93.6605634 Z" id="Fill-1" fill="#F47C62" transform="translate(886.637897, 127.642601) rotate(6.000000) translate(-886.637897, -127.642601) "></path>
                    <path d="M211.081403,171.266133 C211.081403,171.266133 55.9325807,234.749285 212.162386,155.427875 C368.392191,76.1064643 476.577628,91.2009178 692.071396,155.646502 C907.565164,220.092086 1385.67301,163.709686 1385.67301,163.709686 L1373.75574,241.871558 L551.998141,211.224154 C422.600322,205.122933 338.72826,199.825084 300.381954,195.330607 C262.968985,190.945524 233.202135,182.924033 211.081403,171.266133 Z" id="Fill-1" fill="#3A336B" transform="translate(764.059278, 171.672027) rotate(3.000000) translate(-764.059278, -171.672027) "></path>
                    <path d="M0.119097564,183.31113 C0.119097564,183.31113 205.338521,216.006906 439.623003,198.013113 C673.905005,180.019319 915.025629,140.622482 1099.72386,158.670873 C1284.41713,176.719263 1373.34818,215.550315 1373.34818,215.550315 L0.119097564,215.37137 L0.119097564,183.31113 Z" id="Fill-1" fill="#3A3453" transform="translate(686.733640, 184.799393) scale(-1, 1) rotate(-6.000000) translate(-686.733640, -184.799393) "></path>
                </g>
            </g>
        </g>
    </g>
</svg>