<?xml version="1.0" encoding="UTF-8"?>
<svg width="204px" height="39px" viewBox="0 0 204 39" version="1.1" xmlns="http://www.w3.org/2000/svg" xmlns:xlink="http://www.w3.org/1999/xlink">
    <!-- Generator: Sketch 63.1 (92452) - https://sketch.com -->
    <title>Group 4</title>
    <desc>Created with Sketch.</desc>
    <defs>
        <polygon id="path-1" points="0 0.0470242441 29.7054996 0.0470242441 29.7054996 32.4007937 0 32.4007937"></polygon>
    </defs>
    <g id="Page-1" stroke="none" stroke-width="1" fill="none" fill-rule="evenodd">
        <g id="TryShpadoinkle" transform="translate(-19.000000, -1989.000000)">
            <g id="Group-4" transform="translate(19.000000, 1989.000000)">
                <g id="Group-13">
                    <rect id="Rectangle" fill="#6350B1" opacity="0.951288132" x="0" y="0" width="39" height="39" rx="13"></rect>
                    <g id="Vulture-Copy" transform="translate(4.333333, 4.333333)">
                        <circle id="Oval" fill="#A5A5A5" cx="16.2721088" cy="12.7346939" r="3.53741497"></circle>
                        <g id="Group-3">
                            <mask id="mask-2" fill="white">
                                <use xlink:href="#path-1"></use>
                            </mask>
                            <g id="Clip-2"></g>
                            <path d="M27.6357786,6.92598299 C27.6179787,6.96340167 27.6007531,6.98806073 27.5688856,7.01185958 C27.511036,7.05529966 27.4428511,7.09630251 27.4062465,7.15522618 C27.3001651,7.32568906 27.1487227,7.43622471 26.976466,7.5281227 C26.9145971,7.56109702 26.8607669,7.60912483 26.8029173,7.64984094 C26.7674611,7.67464336 26.7305695,7.72009058 26.695544,7.71894364 C26.575682,7.71507274 26.5034777,7.80051924 26.4273977,7.86101994 C26.3470112,7.92539154 26.2661941,7.99578454 26.211359,8.09470749 C26.1746109,8.16094286 26.0916406,8.20825384 26.0202976,8.24724955 C25.9021582,8.31147779 25.7857413,8.37771316 25.676789,8.45613469 C25.6365957,8.48495137 25.6008524,8.52050629 25.5590802,8.54688574 C25.487163,8.59218959 25.4321844,8.66358615 25.3318449,8.66659685 C25.2847614,8.66788715 25.2294957,8.70659613 25.1946137,8.74401482 C25.121261,8.82200625 25.0361375,8.87806259 24.9413963,8.9252302 C24.82986,8.9809998 24.7563638,9.08580079 24.6934901,9.18156967 C24.6158311,9.30027722 24.5120464,9.36264169 24.3946247,9.41941486 C24.37582,9.42859032 24.3581637,9.44005965 24.3350526,9.45339274 C24.1368138,9.27705183 23.9361347,9.09856041 23.7311492,8.91648483 C24.0350388,8.12295071 24.3374929,7.33285739 24.6400905,6.54276407 C24.6298987,6.53616921 24.6195633,6.52971771 24.6093714,6.52312285 C24.4758725,6.61545094 24.3341913,6.69817347 24.2117455,6.80326118 C24.131359,6.87222052 24.0272872,6.89917344 23.9542217,6.97558783 C23.9282396,7.00254075 23.8801513,7.01401008 23.8643611,7.04411707 C23.788281,7.18805713 23.6420063,7.2581634 23.5326233,7.36640518 C23.4530981,7.44497007 23.3531892,7.50891158 23.252132,7.55837305 C23.1123169,7.62647219 23.0121209,7.74589656 22.8781913,7.81901353 C22.8510609,7.91521251 22.7425391,7.91119825 22.6866992,7.97671679 C22.5698518,7.84008842 22.4542962,7.70532382 22.3327117,7.56310415 C22.1808386,7.52697577 22.0727476,7.62231456 21.9689629,7.7298395 C21.9095343,7.69657845 21.8524025,7.64138231 21.7899594,7.63464408 C21.6682313,7.62145436 21.577653,7.54848076 21.4899456,7.48683312 C21.3873093,7.41486309 21.2733328,7.3963688 21.1642369,7.35479248 C21.0346137,7.30533101 20.8988179,7.3238253 20.7579981,7.3195243 C20.6381361,7.18891733 20.5063597,7.06060423 20.3309449,6.99766629 C20.1008386,6.91494376 19.8747517,6.82404934 19.6356019,6.76125477 C19.4179843,6.70390813 19.203094,6.61831827 18.9900698,6.53559574 C18.7120188,6.42735396 18.4799028,6.24570848 18.2170678,6.11596171 C18.2073066,6.11108725 18.1978324,6.10449239 18.1907986,6.09646386 C18.0397869,5.92385047 17.8300643,5.83008872 17.6461803,5.69575421 L17.6461803,5.51496894 C17.6776171,5.49332058 17.7089104,5.47224569 17.739486,5.45016723 C17.7485295,5.44357237 17.7572859,5.43525711 17.7637455,5.42593828 C17.8037952,5.36816154 17.8393949,5.30680064 17.8834639,5.25232133 C17.9978711,5.1103884 18.0361982,4.93634135 18.0871575,4.76903253 C18.1217524,4.65591628 18.1167282,4.52788991 18.1645295,4.42265883 C18.1998421,4.34495413 18.1778794,4.2635219 18.222379,4.18753761 C18.2581223,4.12632007 18.2381692,4.03499555 18.2642948,3.96488928 C18.3138186,3.83227518 18.3142493,3.69019888 18.3586054,3.55701131 C18.3805681,3.49091931 18.3805681,3.41823244 18.3937745,3.34912974 C18.4402838,3.10583663 18.4933963,2.86512411 18.5653135,2.62799576 C18.5888552,2.55043443 18.5871326,2.46570477 18.6075164,2.38713987 C18.6396709,2.26370123 18.6807255,2.14284319 18.7179042,2.02155505 C18.8798255,2.02155505 19.034713,2.01854435 19.1893135,2.02313208 C19.2478807,2.02485248 19.3060174,2.04564064 19.3645847,2.05553293 C19.4178407,2.06456503 19.4696613,2.06513849 19.524927,2.08262922 C19.5989974,2.10614134 19.6856999,2.10155361 19.7669477,2.12291523 C19.8921209,2.15588955 20.0216006,2.17237671 20.1474915,2.20291379 C20.308408,2.24205288 20.4674584,2.28907712 20.6279442,2.33094017 C20.7783818,2.37022261 20.9296806,2.40577753 21.0798311,2.44534671 C21.1882092,2.47402003 21.2937165,2.51860704 21.4036737,2.53480747 C21.559279,2.55788949 21.6992375,2.64347935 21.8597234,2.64075538 C21.9089601,2.70856778 21.9946578,2.65810274 22.0583928,2.70541372 C22.1099263,2.7436926 22.1910305,2.74082527 22.2574929,2.76147006 C22.4712348,2.82784879 22.6690429,2.93164621 22.8698656,3.02841866 C23.0036516,3.09336373 23.1400215,3.15415117 23.2693576,3.22712477 C23.4747738,3.34282161 23.6751658,3.46697709 23.877711,3.58769176 C24.0986302,3.7193023 24.3283059,3.83858331 24.5380284,3.98596417 C24.7809104,4.15685715 25.051497,4.27957896 25.2945226,4.44918165 C25.3855315,4.51254968 25.4934791,4.5515454 25.5886509,4.61003897 C25.7264563,4.69476863 25.8592375,4.78810028 25.9950333,4.87612738 C26.193272,5.00458385 26.3702658,5.16142691 26.5608966,5.29905884 C26.8251671,5.48987978 27.0660395,5.70421284 27.2964329,5.9331693 C27.4500284,6.08585473 27.57635,6.24857582 27.6532914,6.45703085 C27.7147296,6.62304937 27.7161651,6.75795734 27.6357786,6.92598299 M24.3680685,12.6371348 C24.3871602,12.6431562 24.3815619,12.6506112 24.38027,12.6498944 C24.3729491,12.6457368 24.3664894,12.6397154 24.3595992,12.6344108 C24.3610346,12.6332639 24.362183,12.6318302 24.3636185,12.6305399 C24.2517952,12.5954151 24.1660974,12.5680321 24.0852803,12.5330506 C23.9148897,12.4592168 23.7436378,12.3862432 23.578702,12.3009401 C23.4314225,12.2248124 23.2914639,12.1340614 23.1499263,12.0471812 C22.9209684,11.9062519 22.6957427,11.7594445 22.464201,11.6232462 C22.3628566,11.5637491 22.2872072,11.4846107 22.2239028,11.3904188 C22.0912651,11.1931464 21.9612113,10.9942969 21.8278559,10.797598 C21.806898,10.7664874 21.7740257,10.7435488 21.7397179,10.7101443 C21.6856006,10.8287085 21.6380864,10.9327927 21.5842562,11.0507834 C21.4559249,10.9756593 21.330321,10.9056964 21.2083059,10.8299988 C20.988535,10.6940873 20.7755108,10.5472799 20.55129,10.4192535 C20.3329546,10.2945246 20.1205046,10.1599033 19.9014515,10.0358912 C19.8157538,9.98743332 19.7600574,9.89754246 19.6719194,9.84248969 C19.5059787,9.73883564 19.3509477,9.61812096 19.1913231,9.50457462 C19.0651451,9.50371442 19.0199277,9.37669161 18.9188704,9.33095767 C18.7975729,9.27633499 18.6879028,9.19590633 18.5724908,9.12766383 C18.2935785,8.96279224 18.0005985,8.82458684 17.7123556,8.67161468 C17.7983404,8.67333508 17.8795881,8.64523523 17.97031,8.69068244 C18.0337579,8.72236646 18.1251975,8.67835291 18.1943873,8.73111182 C18.3294653,8.71978586 18.4430112,8.80207829 18.5719166,8.81770525 C18.5928745,8.82028585 18.6129712,8.83175517 18.6339291,8.83390567 C18.7668538,8.84637857 18.9026496,8.8440847 19.0324163,8.87118099 C19.356546,8.93928012 19.6858435,8.9926125 19.9871492,9.14343416 C20.0583487,9.17898907 20.1370126,9.20006396 20.2020395,9.24766167 C20.2596019,9.28981145 20.3272127,9.30529505 20.3922396,9.32938063 C20.647036,9.42400259 20.8803003,9.56407176 21.125192,9.68048543 C21.3314694,9.77840482 21.5147793,9.90987199 21.6985198,10.0439198 C21.8353204,10.1438463 21.9805902,10.2321601 22.1061941,10.3475702 C22.1251423,10.3650609 22.1551437,10.3703655 22.1753839,10.3871394 C22.2554832,10.4533748 22.3143376,10.5373876 22.4250126,10.5758098 C22.5134377,10.6063469 22.576742,10.7034061 22.6587075,10.7597492 C22.8203418,10.871145 22.9825502,10.9809638 23.1360022,11.103829 C23.2257193,11.1755123 23.3131395,11.254794 23.4141968,11.3059759 C23.4686012,11.3333589 23.5151106,11.3676236 23.5402313,11.4102034 C23.6048276,11.5201656 23.7044494,11.5945729 23.7871326,11.6860408 C23.900535,11.8113432 24.0324549,11.9243161 24.1234639,12.0640985 C24.2312679,12.2298303 24.3311768,12.406888 24.3660588,12.6279593 C24.3689297,12.625092 24.3719442,12.6220813 24.3749587,12.619214 C24.38027,12.6259522 24.3857248,12.632547 24.3911796,12.6392853 C24.3825667,12.6364179 24.3751023,12.6341241 24.3669201,12.6315435 C24.3670636,12.6335506 24.3677814,12.6351276 24.3680685,12.6371348 M20.6326813,14.0558906 C20.5607641,14.0907287 20.5742576,14.0234898 20.5576061,13.9989741 C20.4706164,13.8695141 20.3824784,13.7401974 20.3028097,13.6061496 C20.2476875,13.5129613 20.2413714,13.409594 20.2785502,13.3055099 C20.2857275,13.2852952 20.2939097,13.2639335 20.2936226,13.2431454 C20.2910388,13.0237945 20.3536254,12.8080278 20.3293659,12.5873866 C20.3283611,12.5779244 20.3355384,12.5674586 20.3463045,12.5356312 C20.5003307,12.6412924 20.6425861,12.7390684 20.7709173,12.8269522 C20.7054598,13.2491668 20.6712955,13.6544642 20.6326813,14.0558906 M20.5352127,14.5450575 C20.5248773,14.5922251 20.511958,14.6386758 20.501192,14.6855567 C20.4841099,14.7602507 20.4575536,14.8320774 20.4638697,14.9122193 C20.4665971,14.9454804 20.4465005,14.9857664 20.4256861,15.0151565 C20.3250595,15.1569461 20.3069725,15.333287 20.2261554,15.4831051 C20.2036185,15.5248248 20.189838,15.5711322 20.1713204,15.614859 C20.150506,15.6640338 20.1146192,15.7064703 20.1199304,15.7666842 C20.1217965,15.7894795 20.0994032,15.8144253 20.0874888,15.8382242 C19.9858573,16.0425216 19.8820726,16.2459588 19.7835992,16.4516898 C19.7609187,16.4990008 19.7566123,16.5596449 19.7379511,16.604662 C19.670771,16.7659494 19.5899539,16.9229359 19.4999498,17.0730407 C19.435497,17.1804223 19.3462106,17.2727503 19.2717096,17.374684 C19.1433783,17.5500213 19.019497,17.7285128 18.8845626,17.899119 C18.8000133,18.0062139 18.7226413,18.1187566 18.6402451,18.2275719 C18.6032099,18.2764599 18.5620119,18.3220505 18.5255509,18.3657773 L18.2098904,18.3657773 C18.1807503,18.3947373 18.152328,18.4229806 18.1263459,18.4487866 C18.1452941,18.603049 18.2871188,18.7386738 18.1866357,18.9269142 C18.1467296,18.8870582 18.1193121,18.8543707 18.0868704,18.8281346 C17.860927,18.6459156 17.672593,18.4229806 17.4528221,18.2363173 C17.2969297,18.1038465 17.1647227,17.9477203 17.0063901,17.8209842 C16.8250899,17.6758972 16.670633,17.4991262 16.46737,17.3801319 C16.2833424,17.2723202 16.1070664,17.1556198 15.9012196,17.0837932 C15.7829366,17.0425036 15.6627876,16.9794223 15.5749366,16.8724708 C15.4998614,16.7810029 15.4085654,16.7027248 15.3156903,16.6101099 C15.3126758,16.6038018 15.3073645,16.5969202 15.3020533,16.5900386 C15.3092306,16.5880315 15.3212886,16.5822968 15.3228676,16.5844473 C15.3283224,16.5916156 15.330045,16.6015079 15.3333466,16.61054 L15.317987,16.61054 C15.4046896,16.6121171 15.4737358,16.6093931 15.5443611,16.6415072 C15.6012058,16.6671698 15.6696778,16.6481021 15.7375757,16.672331 C15.8188235,16.7017212 15.9188759,16.6759152 16.0104591,16.6805029 C16.0809408,16.6839437 16.1555854,16.6569908 16.2217607,16.7116135 C16.2386992,16.7256634 16.2872182,16.7256634 16.3043003,16.7116135 C16.3648773,16.6610051 16.4330622,16.6829402 16.4983763,16.6799295 C16.6004384,16.6751984 16.7096778,16.6956998 16.8029836,16.6657362 C16.8927006,16.6367761 16.9844273,16.6453781 17.0742879,16.6171349 C17.1645792,16.5887483 17.2607558,16.5610786 17.3542051,16.5461684 C17.5693825,16.5113303 17.7580036,16.412264 17.9565295,16.3357063 C18.2236709,16.232769 18.4521982,16.0625929 18.6943625,15.916359 C18.783936,15.8624531 18.8565709,15.7808775 18.9372444,15.7122049 C18.9960988,15.66217 19.0378711,15.5942142 19.116535,15.5633904 C19.1557234,15.5480502 19.1951989,15.506904 19.2119939,15.4677649 C19.2352486,15.4134289 19.2719967,15.37472 19.3129077,15.3378747 C19.4745419,15.1919275 19.5893797,15.0084183 19.7055095,14.8289233 C19.8120215,14.6643385 19.8922645,14.4828364 19.9844218,14.3089327 C19.997054,14.2851338 20.0125571,14.2627686 20.0289215,14.2359591 C20.211083,14.2838435 20.390517,14.3310111 20.5690899,14.3780354 C20.5564577,14.4406866 20.5466965,14.4930154 20.5352127,14.5450575 M15.009791,15.1656915 C14.8142796,15.0773776 14.6171892,14.9810353 14.4564163,14.8456972 C14.2877482,14.7037643 14.1011368,14.5776017 13.9722313,14.3839134 C13.8885433,14.2580375 13.7956682,14.1357458 13.7076737,14.0110169 C13.5668538,13.8110205 13.4794335,13.5900926 13.4040712,13.3618529 C13.3512458,13.2021425 13.3279912,13.0364108 13.2935398,12.8728295 C13.2493273,12.6627974 13.2843528,12.4562061 13.2662658,12.2493281 C13.3225364,12.0962126 13.2778932,11.9213054 13.3696199,11.776075 C13.3960326,11.532065 13.5035495,11.3154381 13.6136502,11.1033989 C13.7058076,10.9256243 13.8136116,10.754588 13.9534266,10.6069204 C14.0063956,10.5507207 14.0452969,10.4807578 14.1011368,10.4282856 C14.3843556,10.1620538 14.696858,9.93725501 15.0560133,9.78370938 C15.217791,9.71446332 15.3822962,9.65396261 15.5581416,9.62242196 C15.6636489,9.60349757 15.7681513,9.56980642 15.8748069,9.55919729 C15.982898,9.54858816 16.0927117,9.55690343 16.2018076,9.55690343 C16.2649684,9.55690343 16.3282727,9.56020086 16.39129,9.55632996 C16.5758918,9.54486063 16.7531727,9.59503894 16.9301665,9.62944692 C17.1985999,9.6819191 17.6674253,9.90872506 17.898967,10.0734533 C18.0703625,10.1954583 18.2098904,10.3527314 18.360615,10.497675 C18.5324411,10.6631201 18.668811,10.8535109 18.7793424,11.0642598 C18.8436516,11.187125 18.9138462,11.3072662 18.9866247,11.4255437 C19.0080133,11.4602384 19.0184922,11.491779 19.0212196,11.5323518 C19.027105,11.6139274 19.0197841,11.7094095 19.0599774,11.7724908 C19.1090705,11.8494787 19.0502161,11.9441006 19.1229946,12.0057483 C19.1343349,12.1270364 19.1505557,12.2481812 19.156154,12.3698994 C19.1618959,12.4957753 19.1654846,12.6226548 19.1547186,12.7479572 C19.1466799,12.840572 19.116535,12.9306062 19.1215591,13.0263751 C19.1264398,13.1195634 19.0764853,13.2052966 19.0456226,13.2870156 C19.0196406,13.3565484 19.022368,13.4187695 19.0227986,13.4822809 C19.0233728,13.5414913 19.0049988,13.5941068 18.978299,13.6368301 C18.9178656,13.7337459 18.8407807,13.8204827 18.7748925,13.9145312 C18.7447476,13.9578279 18.7298186,14.0115904 18.6999608,14.0550304 C18.6382355,14.1450647 18.5779456,14.2375361 18.504593,14.317678 C18.395497,14.4363856 18.3020478,14.5668492 18.1992679,14.6898577 C18.0788317,14.8340845 17.9160491,14.9317172 17.7551326,15.027056 C17.6912541,15.0649047 17.6232127,15.0961587 17.5566068,15.1295631 C17.4272707,15.1945081 17.284154,15.2191672 17.1486454,15.2667649 C17.0015095,15.3185203 16.8526509,15.3616736 16.693457,15.3787342 C16.6010126,15.3884832 16.5015343,15.383322 16.415693,15.4108483 C16.2473121,15.4647542 16.0790747,15.4253284 15.9119856,15.440812 C15.8660505,15.4449696 15.8228428,15.4402385 15.7883914,15.4061172 C15.718771,15.3370145 15.6106799,15.4068341 15.5413466,15.3374446 C15.3494239,15.3255452 15.1807558,15.2428227 15.009791,15.1656915 M11.3724467,15.9061799 C11.3845046,15.8595858 11.4038835,15.8182962 11.4044577,15.7770066 C11.4074722,15.5427456 11.4058932,15.3084846 11.4058932,15.0769475 C11.2594749,14.9998163 11.1189422,14.925409 10.9654901,14.8772379 C10.9264453,14.8650517 10.8767779,14.8494247 10.8840988,14.7758777 C10.8884052,14.7305738 10.843762,14.6803955 10.8200767,14.6329412 C10.7701223,14.5328713 10.7774432,14.4243428 10.7879222,14.3205454 C10.8159139,14.0429876 10.6894487,13.8133143 10.5621223,13.5879421 C10.4794391,13.441278 10.3884301,13.2954742 10.2616778,13.178057 C10.2473231,13.1648672 10.2435909,13.1402082 10.2344039,13.1211404 C10.1932058,13.0346904 10.1517206,12.948527 10.1004743,12.8418623 C10.1067903,12.8068808 10.1456916,12.7869529 10.204546,12.7906804 C10.2503376,12.7935477 10.2967034,12.794838 10.3422079,12.7902503 C10.3898656,12.7855192 10.4369491,12.773333 10.5009712,12.7611469 C10.5121678,12.7817917 10.5269532,12.8151961 10.5471934,12.8447296 C10.6481071,12.9922538 10.7290678,13.1532545 10.8499346,13.287589 C10.881515,13.3225705 10.9159663,13.3681611 10.9205598,13.4116011 C10.9366371,13.5645733 11.0086979,13.6969007 11.0625281,13.8353928 C11.1163583,13.9734548 11.1660257,14.113524 11.2326316,14.2465682 C11.261054,14.303198 11.2721071,14.3691466 11.3041182,14.4230525 C11.367279,14.5297172 11.4568524,14.6237657 11.5030747,14.7364519 C11.5421195,14.831934 11.6335591,14.9330075 11.5461389,15.0540089 C11.5307793,15.0755139 11.5401099,15.1219646 11.5500146,15.1530752 C11.6071464,15.3324268 11.6443252,15.5175131 11.6756185,15.7014524 C11.6955716,15.8178661 11.7232762,15.9322727 11.7588759,16.0868219 C11.6167641,15.9967876 11.4674749,16.0088304 11.3724467,15.9061799 M8.21512436,14.6859868 C8.08248668,14.6776716 7.9629118,14.6426901 7.842045,14.5870639 C7.70581863,14.5239826 7.5572472,14.497173 7.40652257,14.4720839 C7.14641491,14.4286438 6.88702498,14.4555967 6.62792215,14.4416901 C6.51495045,14.4355254 6.41173996,14.46979 6.30522788,14.4948792 C6.25728309,14.5062051 6.20431415,14.5182479 6.15751774,14.5095025 C5.95310642,14.4716538 5.72027274,14.4649155 5.5091147,14.4990368 C5.49791801,14.5009005 5.48485521,14.4874241 5.47265369,14.4875675 C5.40719614,14.4878542 5.34159503,14.488571 5.27613747,14.4925853 C5.24986832,14.4943057 5.22446046,14.5072087 5.1981913,14.5109362 C5.17565438,14.5142336 5.15225618,14.5128 5.12943216,14.5113663 C4.71989179,14.4871374 4.31336591,14.5638385 3.90382553,14.5479248 C3.84597598,14.5456309 3.7874087,14.5698599 3.72884141,14.5801823 C3.67544182,14.5895011 3.61529551,14.5588207 3.5687862,14.6117229 C3.56117819,14.6206117 3.53620097,14.6147336 3.51926239,14.6147336 C3.43313402,14.6150204 3.34671856,14.6101459 3.26102084,14.6163107 C3.194702,14.6210418 3.12694769,14.6350917 3.04828378,14.6488549 C3.04369027,14.6543028 3.03866611,14.6588905 3.03421615,14.6646252 L3.03421615,14.6512921 C3.03091456,14.6518656 3.02818716,14.652439 3.02488558,14.6528691 C3.02172754,14.6538727 3.01885659,14.655163 3.01598565,14.6564533 C3.02545977,14.6699298 3.02029206,14.6755211 3.01383244,14.6805389 C3.01167923,14.6732272 3.00593734,14.6613278 3.00809055,14.6596074 C3.01024375,14.6580303 3.01340179,14.6576002 3.01598565,14.6564533 C3.01541146,14.6557365 3.01598565,14.6554497 3.01526791,14.6545895 C3.01885659,14.6540161 3.02144044,14.6534426 3.02488558,14.6528691 C3.02818716,14.6520089 3.03105811,14.6504319 3.03421615,14.649285 L3.03421615,14.6512921 C3.03909676,14.6504319 3.04340317,14.6497151 3.04828378,14.6488549 C3.27982553,14.3694334 3.58213609,14.2412636 3.89506915,14.1340254 C4.04622443,14.0824134 4.20527481,14.0518764 4.35298496,13.9920925 C4.46882761,13.945355 4.59127343,13.9328821 4.70826446,13.8947466 C4.82051843,13.8583315 4.94195942,13.8508764 5.05464403,13.8156082 C5.18326239,13.7751788 5.31719199,13.761559 5.44581035,13.721273 C5.66572478,13.652457 5.89697943,13.6290883 6.11660676,13.5539642 C6.22197046,13.5179792 6.33781311,13.5103807 6.44805742,13.4819941 C6.64586556,13.4312424 6.84898496,13.4021389 7.04492698,13.3426418 C7.05899462,13.3383408 7.07665093,13.3455091 7.10607812,13.3489499 C7.06100428,13.4659371 6.95664541,13.5212766 6.88716853,13.6047159 C6.81955776,13.6861482 6.74893251,13.7651432 6.68074755,13.8462887 C6.60997874,13.9303015 6.54050186,14.0156046 6.47475721,14.0951731 C6.48121684,14.1116602 6.48236522,14.1172515 6.48523616,14.1214092 C6.4883942,14.1259969 6.49327481,14.1327351 6.49743768,14.1327351 C7.04851567,14.1330219 7.59930656,14.1330219 8.14937971,14.1330219 C8.27885935,14.3026245 8.40790835,14.4716538 8.53738799,14.6411131 C8.4317372,14.6489982 8.3291009,14.6931552 8.21512436,14.6859868 M29.6339567,6.13259224 C29.5868732,5.97990681 29.5515605,5.82191682 29.481653,5.67941042 C29.387486,5.48686908 29.2776723,5.3030731 29.1540781,5.12486842 C29.0284743,4.94408314 28.8918173,4.77304679 28.7509974,4.60645481 C28.6106081,4.44057965 28.4472513,4.29391562 28.2904977,4.1425205 C28.2101112,4.06510253 28.1251313,3.99155547 28.0367061,3.92388643 C27.9201458,3.83456904 27.797987,3.75256335 27.6784121,3.66740359 C27.5365874,3.56604341 27.3970595,3.46167252 27.2526509,3.3643266 C27.1144149,3.27099495 26.9648386,3.19343362 26.8317703,3.09379383 C26.6062576,2.92490798 26.3699787,2.77422969 26.1266661,2.63272685 C25.9697689,2.54140233 25.8283749,2.42269479 25.6522424,2.36477468 C25.637457,2.35975685 25.6288442,2.33968553 25.6150636,2.32964987 C25.5355384,2.27230323 25.4591713,2.20979539 25.374909,2.16076401 C25.2600712,2.09381181 25.1298738,2.05037173 25.0227876,1.97395734 C24.785791,1.80464139 24.5215205,1.68536038 24.2727531,1.53797951 C24.052408,1.40722918 23.8135453,1.31246386 23.595497,1.17612222 C23.3458683,1.019996 23.0543238,0.959351925 22.7830195,0.851970344 C22.7485681,0.83820715 22.7123942,0.819139393 22.676938,0.81885266 C22.5384149,0.81799246 22.4163997,0.72824497 22.2750057,0.748172927 C22.142368,0.680073793 21.9923611,0.684088058 21.8515412,0.649823441 C21.7626854,0.628175085 21.6751216,0.599645132 21.58684,0.581867674 C21.3181195,0.527818466 21.0796875,0.362946879 20.7956075,0.369971842 C20.7544094,0.299722209 20.6668455,0.364093812 20.615025,0.303163008 C20.5639222,0.243092403 20.4747793,0.285385549 20.4109008,0.259149462 C20.3237676,0.223594546 20.2320409,0.219293548 20.1430415,0.200082424 C20.0464342,0.179007534 19.9465253,0.173989703 19.8476213,0.164097408 C19.8136006,0.160656609 19.7682396,0.177573868 19.7462769,0.160943343 C19.6713452,0.104456903 19.5800491,0.15348828 19.5061223,0.114922665 C19.4245874,0.0723427852 19.3390333,0.105603836 19.2562065,0.0948513411 C19.239555,0.0927008421 19.21831,0.0987222392 19.2065391,0.0904069765 C19.1122286,0.0256052744 19.0006923,0.0470178991 18.9102576,0.0671815877 C18.7816392,0.0957115407 18.6649353,0.112198699 18.5403362,0.06245049 C18.5055978,0.04854393 18.4474611,0.0439561989 18.4232017,0.0635974228 C18.3709504,0.106033936 18.3166896,0.0901202433 18.2625723,0.0944212413 C18.2187903,0.097718673 18.1800326,0.0964283736 18.1362507,0.124958327 C18.0900284,0.154921946 18.0196903,0.144886284 17.9644246,0.165100974 C17.8597786,0.202949756 17.7475246,0.210261452 17.6540754,0.295277845 C17.5946468,0.349327052 17.5177055,0.417139453 17.4394722,0.431906212 C17.3516213,0.448680104 17.2939153,0.504736444 17.271809,0.558785651 C17.2270222,0.668461099 17.1452003,0.738710732 17.071417,0.820286326 C17.0464398,0.847812712 17.0272044,0.881647229 17.0102658,0.915195013 C16.9438035,1.04809585 16.8302576,1.16164219 16.8387268,1.32594032 C16.8388704,1.32995458 16.8288221,1.33339538 16.8273866,1.33826984 C16.7884853,1.47131405 16.7340809,1.60235112 16.7165681,1.73811928 C16.7032182,1.84162997 16.7101085,1.95101868 16.6658959,2.04549727 C16.6193866,2.14442022 16.6190995,2.25251864 16.579624,2.35373546 C16.5394308,2.45624257 16.4864618,2.56276395 16.4754087,2.67043227 C16.4596185,2.8252682 16.415693,2.97838372 16.4334929,3.13766401 C16.4419622,3.21278811 16.4448331,3.28948924 16.4046399,3.36576027 C16.3757869,3.42066968 16.3650208,3.49306981 16.3696144,3.55586438 C16.3788014,3.68188362 16.3506661,3.7948565 16.2918117,3.90367174 C16.2793231,3.92675377 16.2695619,3.95241639 16.2641071,3.97807901 C16.2506137,4.04159041 16.2520491,4.11140994 16.2249187,4.16803975 C16.2074059,4.2047416 16.209272,4.25104901 16.1903238,4.27269737 C16.1538628,4.31456041 16.1762562,4.36287496 16.1577386,4.39828651 C16.104339,4.50007679 16.0919939,4.6146267 16.0673038,4.72100472 C16.0383072,4.84645049 15.9767255,4.96931566 15.9892141,5.1022165 C15.9998366,5.21705315 15.9606482,5.3202771 15.9101195,5.41375212 C15.8687779,5.49030988 15.8406427,5.56242328 15.8504039,5.64743967 C15.864615,5.76815435 15.8221251,5.86205947 15.732408,5.94363506 C15.6640795,6.00599953 15.6129767,6.08413433 15.5986219,6.17373845 C15.5340257,6.15452733 15.4691423,6.11940251 15.4041154,6.11925914 C15.251094,6.11897241 15.1352513,6.05101664 15.0201264,5.96083905 C14.7940395,5.78349457 14.5399608,5.66894466 14.2462631,5.67009159 C14.1572638,5.67037833 14.0863514,5.64342541 14.02276,5.58321144 C13.9918973,5.55382128 13.9550057,5.5254347 13.9155302,5.5108113 C13.7907876,5.46421716 13.6604467,5.43267651 13.5322589,5.39812516 C13.3937358,5.36070648 13.246887,5.34507952 13.0998945,5.35769578 C13.06329,5.36070648 13.02525,5.34493615 12.9877841,5.33920149 C12.8603141,5.319847 12.7325571,5.3052236 12.6069532,5.34723002 C12.5509698,5.36601104 12.4857993,5.35095755 12.4367061,5.39353743 C12.3349311,5.32300106 12.2605736,5.42092045 12.1728663,5.43611731 C12.1003749,5.53618719 11.9802258,5.55066722 11.8808911,5.60328276 C11.803232,5.64457234 11.7281568,5.64614937 11.6565267,5.62335408 C11.499486,5.57303241 11.3382824,5.58994967 11.1848304,5.60600672 C10.9623321,5.62937548 10.8516571,5.64471571 10.6267186,5.60170573 C10.5718835,5.5910966 10.499105,5.58063084 10.4589118,5.60715366 C10.3861333,5.6550381 10.306034,5.64829987 10.2471796,5.62851528 C10.1352127,5.59123997 10.0255426,5.60615009 9.91501118,5.60055879 C9.87682761,5.59855166 9.84237626,5.60055879 9.80404914,5.62622142 C9.78079448,5.64170501 9.72610297,5.60270929 9.68519199,5.60141899 C9.55887039,5.59740473 9.43168751,5.59037977 9.30651429,5.60270929 C9.18033623,5.61518219 9.06435003,5.56557734 8.94161712,5.56557734 L7.3914501,5.56557734 L7.29613471,5.56557734 C7.39647426,5.65432127 7.4704011,5.69016292 7.63174824,5.73776063 C7.9024784,5.81761582 8.16416508,5.92442394 8.43877101,5.99395674 C8.60858744,6.03711008 8.77294907,6.10234189 8.9400381,6.15624773 C9.03879862,6.18821848 9.14602843,6.21058367 9.23631967,6.27122774 C9.46010987,6.42147593 9.68576618,6.56871343 9.91257088,6.71423053 C10.2484715,6.92999725 10.5771948,7.15737668 10.9171147,7.36755211 C10.9818545,7.40769476 11.0519056,7.45414554 11.0929601,7.51521971 C11.2142576,7.69657845 11.3770402,7.810985 11.5837482,7.8719158 C11.664996,7.89585802 11.7509808,7.91793648 11.8211754,7.96238013 C12.0676461,8.11879308 12.3079442,8.28495497 12.5511133,8.44638576 C12.6273369,8.49713753 12.7001154,8.5629428 12.7845212,8.58831869 C12.868927,8.61369458 12.9335233,8.65283366 12.9853438,8.70917673 C12.8996461,8.8415041 12.8024646,8.96150194 12.6637979,9.04135714 C12.6214515,9.06572946 12.571497,9.08952832 12.5463763,9.12766383 C12.5060395,9.18902474 12.463693,9.13898979 12.425653,9.14787852 C12.4025419,9.15318309 12.3703873,9.19934713 12.3736889,9.22285925 C12.387613,9.32450617 12.3113894,9.38299974 12.2508124,9.4098093 C12.1366923,9.46041771 12.040085,9.53697547 11.9301278,9.59131141 C11.7776806,9.66643551 11.6365736,9.75732993 11.5141278,9.87704104 C11.4673314,9.92291835 11.411348,9.9596202 11.3586661,9.99933275 C11.3194777,10.0288663 11.2779925,10.054959 11.2393783,10.085066 C11.1828207,10.1290795 11.1281292,10.1778242 11.0751602,10.2235581 C10.9697965,10.3145959 10.8617055,10.4067806 10.7823238,10.5284989 C10.7316516,10.6059168 10.6528442,10.6688548 10.5766206,10.724481 C10.506713,10.7755195 10.4148428,10.7838348 10.3308676,10.7931536 C10.1983735,10.807777 10.0658794,10.796451 9.93094493,10.8242641 C9.77734934,10.8559482 9.62116991,10.8684211 9.48049358,10.945839 C9.46211953,10.9558747 9.44101808,10.9659103 9.42077792,10.9667705 C9.32675445,10.970068 9.23502774,10.9762327 9.14114783,10.9968775 C9.04037764,11.0188126 8.93817198,11.0467691 8.82893251,11.0411778 C8.75945562,11.037737 8.69184486,11.0185259 8.6157648,11.0301386 C8.48484969,11.0499232 8.35379103,11.0959439 8.21742112,11.0712848 C8.20076963,11.0682741 8.17651014,11.0633996 8.16689248,11.0720016 C8.09598012,11.1352263 7.99808088,11.0744389 7.92932174,11.1223233 C7.84936591,11.1779495 7.75893112,11.1580216 7.67567371,11.1780929 C7.55351498,11.2077698 7.43437074,11.2436114 7.30704431,11.2440415 C7.28163644,11.2440415 7.25579793,11.2573746 7.23096425,11.2666935 C7.09502498,11.3174452 6.95291318,11.3471221 6.81223685,11.3769424 C6.71649082,11.3971571 6.6150029,11.3780893 6.51638592,11.412784 C6.39106915,11.4567976 6.25914921,11.4781592 6.13483727,11.5312048 C6.01124306,11.5838204 5.88449082,11.6388732 5.74151774,11.6231028 C5.69443423,11.6179416 5.63715887,11.6010244 5.60084141,11.655647 C5.51112436,11.6519195 5.43949427,11.7187284 5.35379655,11.7231727 C5.19474617,11.7313446 5.04703602,11.7820964 4.89688558,11.8269701 C4.78276549,11.8610914 4.67510504,11.9160008 4.54619959,11.901234 C4.48921132,11.8947825 4.42791663,11.9465379 4.36604776,11.9580072 C4.25451153,11.978652 4.15546391,12.0435971 4.03531484,12.0378624 C3.98708295,12.0355685 3.93755914,12.0749943 3.88774824,12.0932019 C3.84281794,12.1095457 3.79630863,12.1217319 3.75109124,12.1377889 C3.58084417,12.1975728 3.39954396,12.201157 3.22570821,12.2417297 C3.10642043,12.2695428 2.99330518,12.3185742 2.88507053,12.3747739 C2.80870338,12.4143431 2.74525549,12.4933381 2.66659158,12.5095385 C2.56984072,12.5297532 2.51629758,12.6174936 2.42198703,12.6295363 C2.4073452,12.6314001 2.39528723,12.6488908 2.38035832,12.6530485 C2.21183382,12.6992125 2.08450738,12.810465 1.95832933,12.9217175 C1.92689248,12.949674 1.91555224,13.0014293 1.88296701,13.0263751 C1.76210021,13.1181297 1.61596908,13.1807809 1.54706639,13.3298822 C1.54491318,13.3346133 1.53974548,13.3402046 1.53486487,13.3413515 C1.43021891,13.3661539 1.38141284,13.4547545 1.35011953,13.5377637 C1.30590697,13.6553244 1.22580759,13.7439249 1.13250186,13.8058593 C0.979193375,13.9077929 0.878710283,14.0464284 0.783969082,14.195243 C0.766456315,14.222626 0.727698551,14.2490054 0.728990476,14.2743813 C0.734732367,14.386494 0.667265148,14.4735175 0.61716715,14.5552365 C0.533191994,14.6925817 0.417492892,14.810429 0.381462526,14.9748705 C0.245236163,15.1196708 0.198583299,15.3120688 0.11848392,15.4855423 C0.088626087,15.5500573 0.0570456867,15.6253248 0.0696778468,15.7070437 C0.0769987578,15.7546414 0.0767116632,15.8033861 0.0389587302,15.8489767 C0.0045073844,15.8906963 -0.00295707384,15.9468961 0.000918702553,16.0051029 C0.00680414079,16.0965708 0.00249772257,16.1884688 0.00249772257,16.2803668 C0.00249772257,16.3721214 0.00823961353,16.4641627 0.00077515528,16.5553439 C-0.0059715666,16.6382098 0.0945115252,16.7189252 0.00422028986,16.8015043 C0.0606343685,16.9028645 0.0492941339,17.021142 0.0864728778,17.1285236 C0.114177502,17.2089522 0.156093306,17.2939686 0.138580538,17.3814222 C0.0939373361,17.6040706 0.0881954451,17.6584065 0.15795942,17.8479371 C0.216526708,18.0067873 0.273945618,18.1685049 0.35490628,18.3163158 C0.440316908,18.4721553 0.482806901,18.6424748 0.553719255,18.8023286 C0.611855901,18.9332223 0.670136094,19.064116 0.733871084,19.2071959 C0.801338302,19.150566 0.856891097,19.1064091 0.909142305,19.0588114 C0.955938716,19.0163749 0.998141615,18.9692073 1.04378965,18.9256239 C1.10838592,18.864263 1.16896287,18.8635461 1.23198012,18.9228999 C1.27375238,18.962039 1.30849082,19.010927 1.35485659,19.0430411 C1.55151636,19.1788093 1.71702636,19.3517094 1.90679586,19.4957928 C2.02206432,19.5831031 2.12599255,19.6853235 2.23738523,19.7830995 C2.25504155,19.7713434 2.27140594,19.7650353 2.28059296,19.7531359 C2.29351222,19.7365053 2.30298634,19.7167207 2.31030725,19.6969362 C2.33427964,19.6322778 2.35609883,19.5667593 2.37978413,19.5019576 C2.42528861,19.3775154 2.47108019,19.2530732 2.51758951,19.1289177 C2.58606156,18.9451217 2.65553844,18.7617558 2.72401049,18.5778165 C2.74798288,18.5131582 2.7708069,18.4480697 2.79291318,18.3826945 C2.81674203,18.3123015 2.85435141,18.2420519 2.857653,18.1703686 C2.86109814,18.0968216 2.88593182,18.0307296 2.89454465,17.96091 C2.90645908,17.8624172 2.89598012,17.7647845 2.92540732,17.6639978 C2.9523942,17.5719564 2.94105397,17.4688759 2.96043285,17.3693794 C2.99172616,17.2086655 3.04914507,17.0896712 3.20991801,17.0202818 C3.35791525,16.9567704 3.50950117,16.8891013 3.61988903,16.7639423 C3.72841077,16.6412205 3.87726929,16.6108268 4.02512298,16.5774224 C4.05655983,16.570254 4.09459986,16.5728346 4.12503188,16.5837305 C4.18962816,16.6070992 4.25120994,16.6392134 4.31422719,16.6673132 C4.54189317,16.7688168 4.76726239,16.8761983 4.9983735,16.9693866 C5.16862057,17.0379159 5.34259986,17.104438 5.53308709,17.0925385 C5.56725135,17.090388 5.60730104,17.0814993 5.63514921,17.0951191 C5.75328861,17.1526091 5.88707467,17.1566234 6.00463989,17.2017839 C6.12751636,17.2488081 6.25584762,17.2670157 6.37915473,17.2905278 C6.5071989,17.3150435 6.64069786,17.3546127 6.77663713,17.3335378 C6.79357571,17.3308138 6.81625618,17.3260827 6.82745286,17.3342546 C6.90396356,17.3898809 6.99195804,17.3729636 7.07205742,17.3642182 C7.16550669,17.3537525 7.24488834,17.4003466 7.3337441,17.4030706 C7.45561573,17.4069415 7.57720028,17.3881605 7.70007674,17.4316005 C7.77141974,17.4569764 7.85941422,17.4317439 7.9395136,17.4374786 C8.0154501,17.4430699 8.09153016,17.4723167 8.16631829,17.468159 C8.3476185,17.4581234 8.52188489,17.5313837 8.70332864,17.5054343 C8.71438178,17.5037139 8.73160745,17.5014201 8.73634451,17.5071547 C8.78113126,17.5623509 8.8425695,17.5303801 8.89568199,17.539699 C8.95424928,17.5501647 9.01209883,17.5663651 9.07095321,17.5732467 C9.19225066,17.5871533 9.31814161,17.5819921 9.43427136,17.6135328 C9.51164334,17.6344643 9.58944596,17.6264357 9.66136315,17.6465071 C9.74347219,17.6694457 9.82328447,17.679338 9.90654189,17.6771875 C9.91802567,17.6769008 9.93223685,17.6727432 9.94056259,17.677761 C10.0384618,17.7371148 10.1524384,17.7262189 10.2576585,17.7412724 C10.403359,17.7620605 10.546045,17.7874364 10.6852859,17.8347474 C11.0511879,17.959333 11.418956,18.0751732 11.8043804,18.1297959 C11.8725654,18.1396882 11.9456309,18.1448494 12.0125239,18.1649207 C12.1282231,18.1997588 12.2463625,18.2205469 12.3653631,18.2257081 C12.5371892,18.2331632 12.7097331,18.229579 12.8819898,18.2265683 C12.9355329,18.2255648 12.9969712,18.2506539 13.0406095,18.1950277 C13.1858794,18.2075006 13.3308621,18.0999756 13.476419,18.1933073 C13.7114059,18.2269984 13.9310333,18.3100077 14.1472155,18.4033393 C14.2398035,18.4431953 14.3246399,18.5100041 14.4203859,18.5313657 C14.5290512,18.555738 14.6144618,18.6193928 14.7130788,18.6586752 C14.8164329,18.6998215 14.9169159,18.7482794 15.0196958,18.7912894 C15.1012306,18.8254106 15.1353949,18.8870582 15.1648221,18.9697808 C15.2157814,19.1142943 15.2281264,19.2730011 15.3317676,19.4000239 C15.4250733,19.5145738 15.4938324,19.6474747 15.6352265,19.7200182 C15.7138904,19.7603042 15.7797786,19.8256794 15.855428,19.8827393 C15.8297331,19.9141365 15.7876737,19.9419497 15.7846592,19.9736337 C15.7773383,20.0509083 15.7237952,20.0993662 15.6949422,20.1614439 C15.6547489,20.2481807 15.5990526,20.3260288 15.5615867,20.4156329 C15.5163694,20.5233012 15.5875688,20.6424389 15.506321,20.7372042 C15.5005792,20.743799 15.5043114,20.7595694 15.506034,20.7708953 C15.5074694,20.7812177 15.5093355,20.7941207 15.5160823,20.8005722 C15.5620174,20.8444424 15.5300063,20.8937605 15.5394805,20.9310358 C15.4450264,20.9618596 15.3639222,20.9883825 15.2828179,21.0146186 C15.2337248,21.1318924 15.1046758,21.0470179 15.0336199,21.1139716 C15.0062023,21.0779866 14.9789284,21.0421449 14.9457689,20.9985615 C14.9147627,21.0600658 14.8913645,21.1066599 14.8768663,21.1354766 C14.6318311,21.2120344 14.4189504,21.0603525 14.1884135,21.0835779 C14.1144867,21.0202098 14.0257745,21.0528974 13.9442396,21.0513204 C13.8553839,21.0496 13.8072955,21.1354766 13.8362921,21.2230736 C13.8881126,21.3793432 13.9364881,21.5370464 13.9903183,21.6925992 C14.0496033,21.8643524 14.0883611,22.0419836 14.1430526,22.214597 C14.2222907,22.4647717 14.3354059,22.7000363 14.4930208,22.9127923 C14.5274722,22.9592431 14.5612058,23.0131489 14.5721154,23.0683451 C14.5848911,23.1337202 14.5912072,23.2117117 14.5670912,23.2706353 C14.5312044,23.3583757 14.5198642,23.4466895 14.5010595,23.5368671 C14.4815371,23.6306289 14.4726371,23.7220967 14.4720629,23.8162886 C14.4719194,23.8390839 14.4816806,23.8700511 14.4703404,23.8835275 C14.4180892,23.9468956 14.4318697,24.0278977 14.4066054,24.0985774 C14.3796185,24.174275 14.3757427,24.2594348 14.3698573,24.3412971 C14.3641154,24.4210089 14.3687089,24.5017243 14.3687089,24.5818662 C14.3687089,24.6106829 14.3800491,24.6468113 14.3666992,24.6665959 C14.3105723,24.7501786 14.3487558,24.8426501 14.3329656,24.92867 C14.3160271,25.0211415 14.2933466,25.1114624 14.2986578,25.2072313 C14.3038255,25.3042905 14.2952127,25.4023533 14.3010981,25.4995558 C14.3065529,25.5926007 14.3232044,25.6850722 14.334114,25.777687 C14.346172,25.8819145 14.3573687,25.9859987 14.368996,26.0902262 C14.4455067,26.1392576 14.3822023,26.2248474 14.4236875,26.2923731 C14.4572776,26.3467091 14.4366068,26.434306 14.4397648,26.5038388 C14.3259318,26.5980307 14.2574598,26.7137275 14.2000409,26.8407503 C14.1256834,27.0053352 14.0333825,27.1616048 13.9598863,27.3264764 C13.8826578,27.498803 13.732938,27.6275462 13.6769546,27.8116289 C13.6726482,27.826109 13.6525516,27.8354278 13.641642,27.8484742 C13.5823569,27.9201575 13.5235026,27.9922709 13.4675191,28.0605134 C13.4914915,28.1169998 13.5207752,28.1413721 13.5748925,28.1380747 C13.6855674,28.1311931 13.7945198,28.1353507 13.9064867,28.1083978 C14.0150084,28.0823051 14.1350139,28.1072509 14.2495647,28.1015162 C14.3599525,28.0959249 14.4694791,28.0767138 14.5798669,28.0695455 C14.6598228,28.0640975 14.7404963,28.0696888 14.8208828,28.0676817 C14.8533245,28.0668215 14.889642,28.0658179 14.9170595,28.0514813 C14.9664398,28.0253885 15.0107959,28.0295462 15.0453908,28.0418757 C15.0722341,28.1306196 15.0956323,28.2073208 15.1185999,28.2841653 C15.1628124,28.4318329 15.1896558,28.5852351 15.2644439,28.7227237 C15.273918,28.9245838 15.3690899,29.1046523 15.4163169,29.297337 C15.4806261,29.5604147 15.6136944,29.8051415 15.6434087,30.0798319 C15.749203,30.2895772 15.755232,30.5354509 15.8829891,30.7378846 C15.9049518,30.7724359 15.9174404,30.8191734 15.9172969,30.8601763 C15.9161485,31.0378075 15.9879222,31.1999551 16.039025,31.3616726 C16.1026164,31.5629593 16.1395081,31.7762888 16.2504701,31.9619486 C16.2608055,31.9794393 16.2645378,32.0043851 16.2626716,32.0250299 C16.2542023,32.1160677 16.2984149,32.1929122 16.3202341,32.2762082 C16.3368856,32.3400063 16.3634418,32.3784286 16.4300478,32.4007937 C16.4415315,32.3778551 16.467083,32.3496119 16.4682313,32.3203651 C16.4729684,32.2000805 16.4802893,32.0783623 16.46737,31.959368 C16.4544508,31.8387967 16.503544,31.7295513 16.5069891,31.6121341 C16.5120133,31.4333559 16.4868925,31.2548645 16.5336889,31.0745093 C16.5629725,30.9615365 16.5486178,30.8342269 16.5365598,30.7149459 C16.5237841,30.58907 16.5687144,30.4726564 16.5745999,30.350508 C16.5832127,30.1659952 16.5560823,29.981339 16.6030222,29.7958227 C16.6302962,29.688011 16.6170899,29.5667228 16.6056061,29.4533199 C16.5934046,29.3330353 16.6406316,29.2229297 16.6435026,29.1059426 C16.6521154,28.7495332 16.6638863,28.3928371 16.6786716,28.0365711 C16.6806813,27.9898336 16.7069504,27.9440997 16.723889,27.892201 C16.8572444,28.0860326 16.9812693,28.2663878 17.1064425,28.4478899 C17.1256778,28.4286788 17.1502244,28.413912 17.1482148,28.4047366 C17.1179263,28.2628036 17.1118973,28.1154228 17.0762976,27.9769306 C17.0557703,27.896502 17.0884991,27.8106254 17.0510333,27.7484043 C17.0102658,27.6807352 17.0455785,27.6112024 17.0180174,27.5551461 C16.986437,27.4900577 16.9868676,27.4278366 16.9883031,27.3588772 C17.0438559,27.3065484 17.1008442,27.2529293 17.1630001,27.1944357 C17.3265005,27.3597374 17.4744977,27.525756 17.6852251,27.6167937 C17.7600133,27.6491946 17.8289159,27.6851796 17.9131782,27.6917745 C18.0049049,27.6989428 18.1033783,27.7031004 18.1854874,27.7390855 C18.4022438,27.8339941 18.6131147,27.9456767 18.7922617,28.102233 C18.9900698,28.2751332 19.1522783,28.4797173 19.2975481,28.7000718 C19.4235826,28.8914662 19.5757427,29.0657999 19.7047917,29.2553306 C19.7825943,29.3695938 19.869584,29.476832 19.9201126,29.6130302 C19.9861444,29.7912349 19.9888718,29.9764646 20.0128442,30.1578233 C20.0320795,30.3046307 20.0629422,30.4446999 20.1075854,30.5844823 C20.1302658,30.6560222 20.1658656,30.723978 20.1594059,30.8054102 C20.1559608,30.8507141 20.1724687,30.9033296 20.1955798,30.9436156 C20.361664,31.2340764 20.5930622,31.4512768 20.9219291,31.5420278 C21.2370153,31.6291947 21.5552596,31.7047489 21.8723556,31.7843174 C22.1000215,31.8412339 22.3281182,31.8962867 22.5681292,31.955067 C22.5681292,31.9295477 22.5734404,31.9064657 22.5672679,31.8871112 C22.5157344,31.725107 22.4631961,31.5633894 22.4089353,31.4022454 C22.3717565,31.2915664 22.317065,31.1846149 22.2965378,31.0712119 C22.2748621,30.9532212 22.2310802,30.8462697 22.1928966,30.7348739 C22.1534211,30.6194638 22.1383487,30.4968853 22.0898297,30.3816186 C22.0616944,30.3146664 22.0187738,30.2315138 22.0553783,30.1588269 C22.080212,30.1097955 22.0660008,30.0533091 22.0892555,30.018471 C22.1508373,29.9264296 22.1192569,29.8293704 22.1155246,29.7381893 C22.111936,29.649302 22.0921264,29.5576907 22.0611202,29.4700938 C21.9867627,29.2599183 21.9033618,29.0527536 21.8073286,28.8526138 C21.6629201,28.5518307 21.5058794,28.2569256 21.2822327,28.0024499 C21.1916544,27.8993693 21.1063873,27.788977 21.0284411,27.6771511 C20.8472845,27.4169407 20.6388538,27.1806726 20.4264039,26.9472717 C20.3596544,26.873868 20.2664922,26.8238331 20.200604,26.7495692 C20.0916516,26.6271341 19.9499705,26.5462754 19.8196295,26.4572447 C19.6706275,26.3557411 19.5104287,26.2649901 19.3561154,26.1696513 C19.2514694,26.1047062 19.1403638,26.0449224 19.0357179,25.980264 C18.9147075,25.90557 18.7918311,25.8258582 18.6603418,25.7677947 C18.4732997,25.6852156 18.3987986,25.6258618 18.3386523,25.4781942 C18.3247282,25.4439296 18.3123832,25.4086614 18.3021913,25.3729631 C18.2727641,25.2698825 18.2447724,25.1663719 18.2172113,25.0660152 C18.4325322,24.8515388 18.6396709,24.6452343 18.8465226,24.4384996 C18.8493935,24.4356323 18.8472403,24.4276038 18.8472403,24.4218691 C18.8473839,24.4161344 18.8472403,24.4103998 18.8472403,24.391332 L17.9516489,23.4968678 C17.9767696,23.3980882 18.0027517,23.2942908 18.0301692,23.1906368 C18.0354805,23.1704221 18.0433756,23.1492038 18.0554335,23.1325733 C18.2256806,22.8973087 18.3445378,22.6320805 18.4870802,22.381189 C18.5635909,22.2461376 18.6267517,22.1439172 18.7948455,22.188791 C18.8931754,22.0024144 19.00586,21.8336719 19.0962948,21.651453 C19.1357703,21.5717411 19.1791216,21.4881584 19.2296502,21.4147547 C19.3426219,21.2503132 19.4290374,21.0721086 19.5283721,20.9006421 C19.5603832,20.8450159 19.587083,20.7876692 19.6242617,20.7334767 C19.7121126,20.6061671 19.7867572,20.4698255 19.8731727,20.3266022 C20.1215095,20.3266022 20.3849187,20.3266022 20.6481844,20.3263155 C20.653065,20.3263155 20.6585198,20.3228747 20.6625391,20.3197207 C20.6668455,20.3162799 20.66986,20.311262 20.6715826,20.3091115 C20.6715826,20.2844525 20.67876,20.2585031 20.6705778,20.239292 C20.5719608,20.0099054 20.514829,19.7654654 20.4150636,19.5366523 C20.3875026,19.4734276 20.3882203,19.4251131 20.4386054,19.3706338 C20.4895647,19.3154376 20.5290402,19.2487722 20.5693769,19.1846873 C20.7061775,18.9683471 20.8386716,18.749713 21.0120767,18.5590355 C21.0752375,18.489646 21.1355274,18.4166724 21.1892141,18.3399713 C21.3923335,18.0503708 21.5400436,17.7292296 21.7088552,17.4199878 C21.785653,17.2796319 21.847809,17.1335414 21.9154197,16.9893146 C22.010448,16.787311 22.0942796,16.5814366 22.1692113,16.3716913 C22.2353866,16.1867484 22.3098876,16.0035259 22.3575453,15.8137085 C22.3981692,15.6524211 22.4518559,15.4974418 22.5108538,15.3431793 C22.5929629,15.1285595 22.7167006,14.9264126 22.7059346,14.6841231 C22.7650761,14.6039811 22.7108152,14.5013306 22.7469891,14.4263499 C22.7909146,14.3357422 22.7594777,14.2487187 22.7759856,14.1625554 C22.7825888,14.1271438 22.8009629,14.0941695 22.8140257,14.0604784 C22.9232651,14.1235597 23.0190112,14.1830568 23.1182023,14.2356723 C23.2918945,14.3277137 23.4717593,14.4065653 23.6542079,14.479969 C23.7968939,14.5376024 23.9362783,14.6031209 24.0832707,14.6498584 C24.1438476,14.6692129 24.2016972,14.6964526 24.2618435,14.7176708 C24.3169656,14.7370253 24.3730926,14.7539426 24.4293631,14.7702864 C24.4910885,14.7883506 24.5696088,14.7869169 24.611094,14.8256259 C24.6679387,14.8786715 24.7520574,14.8200346 24.7931119,14.8901409 C24.9505833,14.9041908 25.0881016,14.9836159 25.2338021,15.0332207 C25.3728994,15.0805317 25.5015177,15.1655481 25.6268345,15.2464069 C25.8608166,15.3975153 26.095947,15.5457563 26.3623707,15.6329232 C26.6102769,15.7143554 26.8593314,15.798655 27.1261858,15.7836015 C27.1965239,15.7795872 27.266575,15.7638169 27.3357648,15.749767 C27.3989256,15.7370074 27.465388,15.7289788 27.5228069,15.7025994 C27.7758807,15.5864724 27.9669422,15.399379 28.1145088,15.1662649 C28.2010678,15.0294932 28.2449932,14.8743705 28.2831768,14.7205382 C28.3045654,14.6342315 28.291359,14.5378891 28.2856171,14.4464212 C28.2804494,14.3648456 28.2686785,14.2826966 28.2505916,14.2029848 C28.2416916,14.1629855 28.2009242,14.1292943 28.1944646,14.0895818 C28.1799663,13.9996909 28.1288635,13.9323086 28.0810622,13.860482 C27.9861775,13.7179756 27.9204329,13.5572616 27.7349698,13.4900227 C27.6017579,13.4417081 27.5004135,13.317696 27.3459567,13.3066568 C27.3367696,13.30594 27.3280133,13.294614 27.3198311,13.2874457 C27.2081513,13.1918201 27.0720685,13.1380577 26.9471823,13.0649407 C26.8214349,12.991537 26.7160712,12.886736 26.5824287,12.8230813 C26.5577386,12.8113252 26.5408,12.7726162 26.5310388,12.7429393 C26.4716102,12.5610071 26.4131865,12.3785014 26.3582079,12.1951356 C26.2664812,11.889478 26.1530788,11.5924224 26.0128331,11.3058326 C25.9779511,11.2342926 25.939624,11.1643297 25.8992872,11.0873419 C26.0850374,10.9760894 26.265907,10.871145 26.4433314,10.7606094 C26.6233397,10.6483533 26.8146882,10.5534446 26.991682,10.4236979 C26.9444549,10.3528748 26.8873231,10.3260652 26.8220091,10.3141658 C26.7365985,10.2986822 26.6509008,10.2857792 26.5405129,10.267715 C26.5751078,10.2421958 26.5911851,10.2245617 26.6109946,10.2166765 C26.8893328,10.1071444 27.1068069,9.90585772 27.336339,9.72607601 C27.4758669,9.61697403 27.6083611,9.49769302 27.7481761,9.38787421 C27.844927,9.31188991 27.9247393,9.20981289 28.0296723,9.15031575 C28.1396295,9.08795128 28.2376723,9.01411749 28.3397344,8.94214745 C28.5119912,8.82100268 28.6787931,8.69527017 28.8302355,8.54932298 C28.8964108,8.48566821 28.9605764,8.41986294 29.0254598,8.35491787 C29.0779981,8.30230233 29.1450346,8.25742858 29.1800602,8.19492075 C29.284419,8.00854417 29.4146164,7.83865475 29.5049077,7.64181241 C29.6127117,7.40740803 29.6748676,7.16339808 29.6945336,6.91322336 C29.7147738,6.65315635 29.7134818,6.39022201 29.6339567,6.13259224" id="Fill-1" fill="#161320" mask="url(#mask-2)"></path>
                        </g>
                        <path d="M17.2837544,11.1784584 C17.1455797,11.2047432 17.0341773,11.2541588 16.9488035,11.3510373 C16.7776097,11.5450946 16.7111252,11.794125 16.8122649,12.0481118 C16.8668506,12.1850935 16.960851,12.2954899 17.0790952,12.3811035 C17.2157826,12.4799346 17.3761188,12.4522979 17.5302081,12.4541003 C17.6063604,12.3838071 17.6993197,12.4347246 17.7849909,12.4142975 C17.8252981,12.4976581 17.7733896,12.5714059 17.7710099,12.6465055 C17.766994,12.7879932 17.7075001,12.9089036 17.6732911,13.0391263 C17.6380409,13.1740052 17.5670944,13.2863542 17.4916858,13.3953988 C17.3020488,13.6690618 17.0627344,13.8832459 16.7483089,14.0067096 C16.5592669,14.0810583 16.3726046,14.1557073 16.1646732,14.1487981 C16.0636823,14.1456439 15.9622451,14.1531539 15.8615516,14.1474463 C15.6702785,14.1363316 15.4913505,14.0827104 15.3128686,14.0080614 C15.0564497,13.9008192 14.8531291,13.7315447 14.6719701,13.5281749 C14.4897698,13.3234534 14.3935384,13.0721701 14.3037025,12.8181832 C14.3289875,12.7390282 14.2687498,12.6736916 14.2683036,12.5990426 C14.2674112,12.4489935 14.2534301,12.2968417 14.2741043,12.1497967 C14.2846645,12.0739461 14.2858543,11.9892337 14.3191709,11.9183397 C14.3804497,11.7876664 14.444257,11.6568429 14.5220453,11.5357823 C14.564881,11.469244 14.5949254,11.407362 14.5886785,11.3202464 C14.647875,11.2685779 14.6884796,11.1817627 14.7919991,11.1861185 C14.913218,11.0755719 15.0342882,10.9653257 15.1553584,10.8550794 C15.1477729,10.7980037 15.1986403,10.7983041 15.2292796,10.7814818 C15.3228339,10.7302639 15.4186191,10.6844531 15.5294266,10.6871567 C15.5460849,10.6876073 15.5649742,10.6862555 15.5791041,10.6785954 C15.7879278,10.5669973 16.0134099,10.6342866 16.2308603,10.6156619 C16.3025505,10.6718364 16.3867344,10.6432985 16.4655639,10.6529113 C16.5262477,10.660271 16.5916911,10.666279 16.6444919,10.6934651 C16.8756259,10.8133241 17.1146429,10.9246217 17.2837544,11.1784584" id="Fill-4" fill="#231F20"></path>
                    </g>
                </g>
                <g id="Shpadoinkle" transform="translate(51.380952, 8.428571)">
                    <g id="Group-81" transform="translate(0.568139, 2.510652)" fill="#2B253C">
                        <path d="M4.03392531,9.11181389 C2.98132108,8.32418814 2.1107607,7.57340358 1.50678525,6.65857879 C2.08309622,7.94394834 3.12273878,8.88126564 4.45372887,9.87694713 C5.93252077,10.98354 7.35153419,11.8223556 8.04450025,12.6264629 C7.83014894,11.5638856 5.98398056,10.5705309 4.03392531,9.11181389" id="Fill-1"></path>
                        <path d="M5.69928797,18.043009 C2.92374802,18.043009 1.28748142,16.78401 1.28748142,16.78401 L0.206051969,17.1215916 L0.0419997019,18.0693796 L1.70728498,17.5491433 C1.70728498,17.5491433 3.34335812,18.8083362 6.11889807,18.8083362 C8.89463148,18.8083362 12.0791414,17.0513995 12.0791414,13.8010375 C12.0791414,12.4553647 11.7328518,11.4616222 11.2056791,10.6751599 C11.4889014,11.3225952 11.6593378,12.0923821 11.6593378,13.0357103 C11.6593378,16.2860723 8.47482792,18.043009 5.69928797,18.043009" id="Fill-3"></path>
                        <path d="M7.14151633,2.61196244 C8.24693456,2.8620947 9.36260605,3.45930969 10.1602328,3.95046086 L9.79285634,3.21673957 C8.99213425,2.72015918 7.8505394,2.10219678 6.72171277,1.8466353 C5.02721536,1.46309918 4.17986992,2.40603961 4.17986992,3.57739538 C4.17986992,3.92505983 4.35881844,4.30161552 4.6542286,4.68961136 C4.61882581,4.57113787 4.59967348,4.45537899 4.59967348,4.34252862 C4.59967348,3.17117285 5.44682546,2.22823242 7.14151633,2.61196244" id="Fill-5"></path>
                        <polygon id="Fill-7" points="10.9687319 5.49208993 12.2250473 0.0454116078 11.5537485 0.371165242 10.5607293 4.67712414"></polygon>
                        <polygon id="Fill-9" points="14.6208294 17.5199999 19.558261 17.5199999 19.122207 16.7546728 14.9290078 16.7546728"></polygon>
                        <polygon id="Fill-11" points="18.2037658 11.190762 18.2037658 15.1147359 18.6233759 15.850784 18.6233759 11.9560891 23.0245423 11.9560891 23.0245423 11.190762"></polygon>
                        <polygon id="Fill-13" points="27.5636054 1.00432948 26.7052329 1.00432948 26.3550741 1.61511754 26.3550741 15.0854181 27.0271467 16.7547116 22.9455728 16.7547116 22.5091318 17.5200387 27.4467568 17.5200387 26.7748777 15.8507452 26.7748777 2.38063858"></polygon>
                        <polygon id="Fill-15" points="18.262132 8.08683396 18.6819356 8.08683396 18.6819356 2.58547557 19.4416446 1.00440704 18.6540776 1.00440704 18.262132 1.82034233"></polygon>
                        <path d="M34.2248626,8.49887353 L34.2248626,3.81558334 C36.0741263,3.6883843 37.0439305,4.18302568 37.5502098,4.7839248 C37.278208,3.93425073 36.4213831,2.87051 33.8052525,3.0500623 L33.8052525,8.49034189 C33.8052525,8.49034189 33.968144,8.50352715 34.2248626,8.49887353" id="Fill-17"></path>
                        <polygon id="Fill-19" points="30.1637758 17.5199999 35.1012073 17.5199999 34.6651533 16.7546728 30.4719542 16.7546728"></polygon>
                        <path d="M41.5288448,5.4845084 C41.394972,4.41669574 41.0691889,3.60541407 40.6484181,2.98531876 C40.8618021,3.47278581 41.0245002,4.04363027 41.1092347,4.71937516 C41.1092347,4.71937516 41.5766289,8.84830247 39.0932103,10.2244177 C39.0932103,10.2244177 38.0123613,11.1908201 33.7466154,11.1908201 L33.7466154,15.1147941 L34.166419,15.8508422 L34.166419,11.9561473 C38.4319714,11.9561473 39.5130139,10.9899387 39.5130139,10.9899387 C41.9964325,9.61343571 41.5288448,5.4845084 41.5288448,5.4845084" id="Fill-21"></path>
                        <polygon id="Fill-23" points="45.763947 14.1293894 45.5346994 15.2693332 46.1483477 16.7482159 42.3521241 16.7482159 41.9665626 17.513543 46.5681513 17.513543 45.954503 16.0346603 46.1837505 14.8945226 49.7822602 14.8945226 49.6286547 14.1293894"></polygon>
                        <polygon id="Fill-25" points="50.0687713 2.50593739 50.6822262 0.997969526 49.9513424 0.997969526 49.6489678 1.74061025 52.9797318 15.269275 53.7245445 16.7481577 49.9813284 16.7481577 49.663864 17.5134849 54.1443481 17.5134849 53.3993419 16.0346021"></polygon>
                        <polygon id="Fill-27" points="47.6358066 4.81531736 46.3903248 11.013362 46.9635405 11.013362 47.9225111 6.24204072"></polygon>
                        <path d="M60.2852036,3.83520612 L61.5268162,3.79545642 C62.5968316,3.78789428 63.561606,4.43707474 64.2454795,5.47832296 C63.5743742,3.99885854 62.4196242,3.02101593 61.1070126,3.03006612 L59.8654001,3.07007288 L59.8654001,13.8945947 L60.2852036,13.8945947 L60.2852036,3.83520612 Z" id="Fill-29"></path>
                        <path d="M67.2776414,3.78465613 C67.6767449,4.6352997 67.9717682,5.68876368 68.094227,6.99565624 C68.094227,6.99565624 68.6204324,13.2220104 65.8251597,15.2973325 C65.8251597,15.2973325 64.6083098,16.7546922 59.8070725,16.7546922 L56.5322178,16.7546922 L56.2240395,17.5200193 L60.2266826,17.5200193 C65.0279199,17.5200193 66.2447698,16.0626596 66.2447698,16.0626596 C69.0400425,13.9873375 68.5140306,7.76098338 68.5140306,7.76098338 C68.3517194,6.02964159 67.8862598,4.74291474 67.2776414,3.78465613" id="Fill-31"></path>
                        <path d="M74.6260222,9.2443646 C74.6260222,6.35116819 76.0069244,4.00574202 77.7103209,4.00574202 C78.4913103,4.00574202 79.204009,4.4996078 79.7476256,5.31263458 C79.1842763,4.05363556 78.2934029,3.24041488 77.2905173,3.24041488 C75.5873143,3.24041488 74.2062186,5.58584105 74.2062186,8.47903746 C74.2062186,10.0457573 74.6117063,11.4507638 75.2535995,12.4107675 C74.8599127,11.5312327 74.6260222,10.4343349 74.6260222,9.2443646" id="Fill-33"></path>
                        <path d="M84.0159058,8.47709845 C84.0159058,13.2507465 81.0084099,17.1206221 77.2984684,17.1206221 C75.1588245,17.1206221 73.2540384,15.8317623 72.0240333,13.8258568 C73.2116711,16.2637737 75.317073,17.8859492 77.718272,17.8859492 C81.42802,17.8859492 84.4355159,14.0160736 84.4355159,9.24242559 C84.4355159,7.22217136 83.8953815,5.36556954 82.9929006,3.89386116 C83.6404041,5.22285843 84.0159058,6.7930685 84.0159058,8.47709845" id="Fill-35"></path>
                        <polygon id="Fill-37" points="91.8146759 1.00432948 90.9563033 1.00432948 90.6061446 1.61511754 90.6061446 15.0854181 91.2782172 16.7547116 89.6421441 16.7547116 88.0882905 16.7547116 87.1800059 16.7547116 86.8718275 17.5200387 88.5079006 17.5200387 90.0615607 17.5200387 91.6978273 17.5200387 91.0257547 15.8507452 91.0257547 2.38063858"></polygon>
                        <polygon id="Fill-39" points="106.275264 1.6151951 106.275264 16.7545952 103.697438 16.7545952 104.109503 17.5199224 106.695068 17.5199224 106.695068 2.38052224 107.483795 1.00440704 106.625616 1.00440704"></polygon>
                        <polygon id="Fill-41" points="98.1878163 15.0854375 98.8596954 16.7545371 97.2236223 16.7545371 95.6697687 16.7545371 94.7614841 16.7545371 94.4533057 17.5200581 96.0895723 17.5200581 97.6434258 17.5200581 99.279499 17.5200581 98.6074264 15.8507646 98.6074264 7.31446822 98.1878163 6.53479241"></polygon>
                        <polygon id="Fill-43" points="117.467479 9.75847364 122.099053 1.00442643 121.274729 1.00442643 117.012079 9.06043014"></polygon>
                        <polygon id="Fill-45" points="117.134596 16.7546146 116.774571 17.5199418 122.44985 17.5199418 121.950729 16.7546146"></polygon>
                        <polygon id="Fill-47" points="113.701473 8.79691871 114.121277 7.98427974 114.121277 2.38054163 114.910004 1.00442643 114.051825 1.00442643 113.701473 1.61521449"></polygon>
                        <polygon id="Fill-49" points="113.701473 9.76320482 113.701473 15.0853987 114.373546 16.7546922 112.737473 16.7546922 111.183619 16.7546922 110.275334 16.7546922 109.967156 17.5200193 111.603229 17.5200193 113.157083 17.5200193 114.793156 17.5200193 114.121277 15.8509198 114.121277 10.528532 117.111748 15.1460897 117.143669 15.0780305"></polygon>
                        <polygon id="Fill-51" points="127.639706 13.9360507 128.059316 13.9360507 128.059316 2.60021204 128.892152 1.00440704 128.072858 1.00440704 127.639706 1.8348849"></polygon>
                        <polygon id="Fill-53" points="132.000246 16.7546146 125.229221 16.7546146 124.32113 16.7546146 124.012951 17.5199418 125.649024 17.5199418 132.419856 17.5199418 132.419856 13.9767893 132.000246 14.1778646"></polygon>
                        <polygon id="Fill-55" points="143.153556 14.2108084 143.153556 16.7545952 135.484113 16.7545952 134.575828 16.7545952 134.26765 17.5199224 135.903723 17.5199224 143.573166 17.5199224 143.573166 13.9327544"></polygon>
                        <polygon id="Fill-57" points="140.699253 10.3123324 137.960277 10.3123324 137.960277 14.0239848 138.38008 14.0239848 138.38008 11.0776595 141.119056 11.0776595 142.718566 12.044062 142.718566 7.69544485 142.298956 7.89012143 142.298956 11.2785409"></polygon>
                        <polygon id="Fill-59" points="141.203288 3.02078325 137.96016 3.02078325 137.96016 7.74285364 138.379964 7.74285364 138.379964 3.78611039 141.622898 3.78611039 143.003413 4.59874937 143.003413 1.00440704 142.583803 1.00440704 142.583803 3.83342223"></polygon>
                        <path d="M10.1603295,3.95053842 L10.5491799,4.72691791 L10.5605939,4.67708536 L10.2127566,3.98214427 C10.1961193,3.97186752 10.1771604,3.96100907 10.1603295,3.95053842" id="Fill-61"></path>
                        <path d="M8.33931069,8.17866546 C9.34954765,8.86507491 10.4592219,9.5621489 11.2055824,10.6751405 C10.5130032,9.09174514 9.14312811,8.2447857 7.91970059,7.41333832 C6.70788054,6.59003479 5.35290167,5.60753857 4.65413187,4.68961136 C4.9859121,5.79872493 6.78158798,7.12016005 8.33931069,8.17866546" id="Fill-63"></path>
                        <polygon id="Fill-67" points="19.1221296 16.7546146 19.138767 16.7546146 18.6233952 15.8508422 18.6233952 15.8801212"></polygon>
                        <polygon id="Fill-69" points="34.6650566 16.7546146 34.681694 16.7546146 34.1665157 15.8508422 34.1665157 15.8801212"></polygon>
                        <polygon id="Fill-71" points="47.9225885 6.24211828 48.8813657 11.0132456 46.9636179 11.0132456 46.8098189 11.7785728 49.3009758 11.7785728 48.055494 5.58072206"></polygon>
                        <path d="M61.1070126,13.8945753 L60.2852036,13.8945753 L60.2852036,14.6599024 L61.5268162,14.6599024 C63.6002976,14.6599024 65.2810595,12.2278025 65.2810595,9.22776668 C65.2810595,7.77583619 64.8865989,6.45478887 64.2454795,5.47830357 C64.6343298,6.33592757 64.8612559,7.36146981 64.8612559,8.46224564 C64.8612559,11.4624754 63.1806875,13.8945753 61.1070126,13.8945753" id="Fill-75"></path>
                        <polygon id="Fill-77" points="98.6074264 7.31444883 103.689758 16.7547116 103.697496 16.7547116 98.6074264 7.30010016"></polygon>
                    </g>
                    <g id="Group-105" transform="translate(0.000000, 0.238095)" fill="#6350B1">
                        <path d="M1.88150303,15.0539566 C3.02802917,15.6766259 4.95833,16.4458974 6.00278405,16.4458974 C7.51804318,16.4458974 8.42144866,15.6214552 8.42144866,14.4732015 C8.42144866,13.3251428 6.46895826,12.2946387 4.40011725,10.7342614 C2.33127625,9.17388405 0.961503602,7.76069374 0.961503602,4.93431313 C0.961503602,2.10793252 3.81720654,0.105799197 6.48362268,0.105799197 C9.15003882,0.105799197 10.7818415,1.5189895 10.7818415,1.5189895 L12.1514212,0.849532266 L10.8981921,6.32566907 L10.1439392,4.80740088 C9.34569306,4.30813472 8.20669209,3.68663511 7.08100486,3.42988637 C5.39073745,3.04427588 4.54598965,3.99212128 4.54598965,5.16981235 C4.54598965,6.34750343 6.55655888,7.84900595 8.27576922,9.02650208 C9.99497957,10.2041932 12.0057418,11.4113216 12.0057418,14.6792633 C12.0057418,17.9473999 8.8293511,19.7138391 6.06105583,19.7138391 C3.29276055,19.7138391 1.66095787,18.4478358 1.66095787,18.4478358 L1.92952901e-05,18.9706908 L0.976360975,13.2884922 L1.88150303,15.0539566 Z" id="Fill-82"></path>
                        <polygon id="Fill-85" points="23.2828741 9.70367932 23.2828741 3.40329523 22.525148 1.81328556 27.4498849 1.81328556 26.663023 3.19723341 26.663023 16.7403884 27.3331484 18.4183204 22.4086045 18.4183204 23.3411458 16.7696309 23.3411458 12.8246289 18.5329525 12.8246289 18.5329525 16.7696309 19.4654939 18.4183204 14.540757 18.4183204 15.2110753 16.7403884 15.2110753 3.19723341 14.4242134 1.81328556 19.3487574 1.81328556 18.5914172 3.40329523 18.5914172 9.70367932"></polygon>
                        <path d="M37.940136,7.37457638 C37.9111931,10.4331421 34.0936199,10.1093306 34.0936199,10.1093306 L34.0936199,4.63982213 C38.3480384,4.34544809 37.940136,7.37457638 37.940136,7.37457638 M41.3785567,6.31794906 C40.7958389,1.63662215 36.5998851,1.81344152 36.5998851,1.81344152 L34.851346,1.81344152 L29.926802,1.81344152 L30.713471,3.19719442 L30.713471,16.7403494 L30.0431526,18.4182814 L34.9678895,18.4182814 L34.0355411,16.7695919 L34.0355411,12.8245899 C38.2897667,12.8245899 39.3679875,11.8529607 39.3679875,11.8529607 C41.8449239,10.4692078 41.3785567,6.31794906 41.3785567,6.31794906" id="Fill-87"></path>
                        <path d="M46.6458236,12.646016 L47.8880544,6.41444916 L49.1304781,12.646016 L46.6458236,12.646016 Z M53.9612469,18.4118481 L53.2181853,16.9251617 L49.8963082,3.32313192 L50.5081618,1.80681323 L45.2681399,1.80681323 L45.8801865,3.32313192 L42.5581164,16.9251617 L41.8152477,18.4118481 L46.4046325,18.4118481 L45.7927788,16.9251617 L46.021235,15.7788575 L49.8758551,15.7788575 L50.1043114,16.9251617 L49.4924577,18.4118481 L53.9612469,18.4118481 Z" id="Fill-89"></path>
                        <path d="M61.3243682,15.5428514 L60.0858035,15.5428514 L60.0858035,4.65978497 L61.3243682,4.6195622 C63.3924374,4.60519906 65.0688122,7.06487931 65.0688122,10.0811409 C65.0688122,13.0975975 63.3924374,15.5428514 61.3243682,15.5428514 M68.2932481,8.60673641 C67.6372083,1.54741317 62.0143678,1.81390939 62.0143678,1.81390939 L61.1640244,1.81332455 L60.8435296,1.81332455 L55.9187927,1.81332455 L56.7056546,3.1972724 L56.7056546,16.7404274 L56.0355292,18.4183594 L60.0275318,18.4183594 C64.8164298,18.4183594 66.0301036,16.9533125 66.0301036,16.9533125 C68.81808,14.866571 68.2932481,8.60673641 68.2932481,8.60673641" id="Fill-91"></path>
                        <path d="M77.4657081,15.3648429 C75.7665648,15.3648429 74.389267,13.0067314 74.389267,10.0978871 C74.389267,7.18923771 75.7665648,4.83112626 77.4657081,4.83112626 C79.1648513,4.83112626 80.5419562,7.18923771 80.5419562,10.0978871 C80.5419562,13.0067314 79.1648513,15.3648429 77.4657081,15.3648429 M77.4736192,1.4058602 C73.7733614,1.4058602 70.7737156,5.29666612 70.7737156,10.0963275 C70.7737156,14.8957939 73.7733614,18.7864049 77.4736192,18.7864049 C81.173684,18.7864049 84.1733298,14.8957939 84.1733298,10.0963275 C84.1733298,5.29666612 81.173684,1.4058602 77.4736192,1.4058602" id="Fill-93"></path>
                        <polygon id="Fill-95" points="89.7847475 18.4183594 91.4165502 18.4183594 90.7462318 16.7404274 90.7462318 3.1972724 91.5332867 1.81332455 89.8721551 1.81332455 88.1477351 1.81332455 86.4866035 1.81332455 87.2734655 3.1972724 87.2734655 16.7404274 86.60334 18.4183594 88.2351427 18.4183594"></polygon>
                        <polygon id="Fill-97" points="102.222279 1.81336354 103.008948 3.50630665 103.008948 11.1021314 98.2009478 1.81336354 97.43396 1.81336354 95.709347 1.81336354 94.0486014 1.81336354 94.8352704 3.19731139 94.8352704 16.7402714 94.164952 18.4183984 95.7967547 18.4183984 97.3465524 18.4183984 98.9783551 18.4183984 98.3082296 16.7402714 98.3082296 8.14337998 103.795617 18.4183984 106.374819 18.4183984 106.374819 3.19731139 107.161488 1.81336354 105.500356 1.81336354 103.775936 1.81336354 103.008948 1.81336354"></polygon>
                        <polygon id="Fill-99" points="116.7339 1.81336354 121.73852 1.81336354 117.083531 10.6825997 122.088343 18.4183984 116.427877 18.4183984 117.214739 16.7328633 113.781528 11.3892923 113.781528 16.7402714 114.451653 18.4183984 112.819851 18.4183984 111.270246 18.4183984 109.638443 18.4183984 110.308569 16.7402714 110.308569 3.19731139 109.521707 1.81336354 111.182645 1.81336354 112.907258 1.81336354 114.568197 1.81336354 113.781528 3.19731139 113.781528 10.4176631 117.389554 3.37393581"></polygon>
                        <polygon id="Fill-101" points="125.279225 18.4183594 123.647422 18.4183594 124.317547 16.7404274 124.317547 3.1972724 123.530686 1.81332455 125.191817 1.81332455 128.513694 1.81332455 127.683225 3.4181504 127.683225 15.5847656 130.524456 15.5847656 132.032383 14.8560437 132.032383 18.4183594"></polygon>
                        <polygon id="Fill-103" points="142.304115 12.9129216 142.304115 8.54078493 140.555769 9.35781908 137.976953 9.35781908 137.976953 4.61040422 141.211423 4.61040422 142.588335 5.42743837 142.588335 1.81326606 135.419749 1.81326606 133.759003 1.81326606 134.545672 3.19721391 134.545672 16.7403689 133.875354 18.4183009 135.507156 18.4183009 143.156581 18.4183009 143.156581 14.8117316 141.867077 15.6730193 137.976953 15.6730193 137.976953 11.9412924 140.708781 11.9412924"></polygon>
                    </g>
                    <g id="Group-124" opacity="0.776855469" transform="translate(1.619196, 1.317560)" fill="#000000">
                        <path d="M4.4658786,17.2087193 C3.46017048,17.2089138 2.07485874,16.9619153 0.333318462,16.0811682 L0.506603169,15.7333461 C4.18016167,17.5913819 6.19756657,16.4834896 6.21746437,16.4720058 L6.23620307,16.4624685 C7.47044609,15.9200061 8.21400555,15.1675269 8.44679047,14.2264413 C8.72671192,13.0949976 8.19990323,11.8965976 7.61359433,11.1524879 C6.58045429,9.84080728 3.76964885,8.32689544 3.74125102,8.3117135 C2.08142694,7.27369707 0.820331556,6.31606705 0.820331556,4.19604549 C0.820331556,2.67162308 1.58958429,1.77355298 2.23500704,1.28850949 C3.23337422,0.538365979 4.69344759,0.243486005 5.78570147,0.570092339 C8.18618727,1.28967733 8.90965575,1.89286745 8.93921267,1.91817069 L8.69000724,2.21577562 C8.68305267,2.20993642 7.97677743,1.63321737 5.67558744,0.943217691 C4.87156186,0.702447707 3.52430707,0.805412397 2.46586013,1.60071244 C1.89152854,2.03222987 1.20669656,2.83317448 1.20669656,4.19604549 C1.20669656,6.1155876 2.38858713,7.00781849 3.93385398,7.97459659 C4.04107027,8.03143155 6.83294382,9.53502745 7.91611813,10.9103554 C8.55960905,11.7272605 9.1354861,13.0519821 8.82175771,14.3204525 C8.5590295,15.382799 7.74437888,16.2222824 6.39982865,16.8153512 C6.29995329,16.8708237 5.64274641,17.2087193 4.4658786,17.2087193" id="Fill-106"></path>
                        <polygon id="Fill-108" points="14.9591466 15.8182287 15.3455116 15.8182287 15.3455116 1.86855689 14.9591466 1.86855689"></polygon>
                        <polygon id="Fill-110" points="23.246676 15.8182287 23.633041 15.8182287 23.633041 1.86855689 23.246676 1.86855689"></polygon>
                        <polygon id="Fill-111" points="15.1523291 10.3525359 23.4398585 10.3525359 23.4398585 9.96325546 15.1523291 9.96325546"></polygon>
                        <path d="M31.0207457,10.1264029 L32.9106501,10.1264029 C36.9052779,10.1264029 37.74369,7.89660425 37.74369,6.02591684 C37.74369,3.80468235 36.3010031,2.53115121 33.7857668,2.53115121 L31.0207457,2.53115121 L31.0207457,10.1264029 Z M31.0207457,15.8182676 L30.6343807,15.8182676 L30.6343807,2.14187072 L33.7857668,2.14187072 C36.5061629,2.14187072 38.130055,3.59369232 38.130055,6.02591684 C38.130055,7.70274256 37.4519844,10.5156834 32.9106501,10.5156834 L31.0207457,10.5156834 L31.0207457,15.8182676 Z" id="Fill-112"></path>
                        <polygon id="Fill-113" points="42.6858394 15.8637356 42.3100994 15.7728386 45.5576905 2.14179286 47.1609121 2.14179286 50.3522871 15.7736172 49.9759675 15.862957 46.854911 2.53107336 45.8621461 2.53107336"></polygon>
                        <polygon id="Fill-114" points="43.1494967 13.2779789 49.5237466 13.2779789 49.5237466 12.8886984 43.1494967 12.8886984"></polygon>
                        <path d="M56.8670193,15.6236663 L59.4790399,15.6236663 C62.5015734,15.6236663 64.9605935,12.6483955 64.9605935,8.99110528 C64.9605935,4.0955138 62.0076057,2.35854424 59.4790399,2.35854424 L56.8670193,2.35854424 L56.8670193,15.6236663 Z M59.4790399,16.0129468 L56.4806543,16.0129468 L56.4806543,1.96926375 L59.4790399,1.96926375 C63.5325884,1.96926375 65.3469585,5.49595038 65.3469585,8.99110528 C65.3469585,12.8628891 62.7146537,16.0129468 59.4790399,16.0129468 L59.4790399,16.0129468 Z" id="Fill-115"></path>
                        <path d="M75.9551121,2.35846639 C73.3707166,2.35846639 71.2681182,5.33373719 71.2681182,8.99102743 C71.2681182,12.6483177 73.3707166,15.6235885 75.9551121,15.6235885 C78.5397008,15.6235885 80.6422992,12.6483177 80.6422992,8.99102743 C80.6422992,5.33373719 78.5397008,2.35846639 75.9551121,2.35846639 M75.9551121,16.012869 C73.1578294,16.012869 70.8817532,12.8630058 70.8817532,8.99102743 C70.8817532,5.11924364 73.1578294,1.96918589 75.9551121,1.96918589 C78.752588,1.96918589 81.0286642,5.11924364 81.0286642,8.99102743 C81.0286642,12.8630058 78.752588,16.012869 75.9551121,16.012869" id="Fill-116"></path>
                        <polygon id="Fill-117" points="87.1612336 15.8182287 87.5475986 15.8182287 87.5475986 1.86855689 87.1612336 1.86855689"></polygon>
                        <polygon id="Fill-118" points="103.304732 16.5425045 95.3813142 2.53113175 95.0490106 2.53113175 95.0490106 15.8182482 94.6690179 15.8182482 94.6690179 2.14185126 95.60019 2.14185126 102.924739 15.0941865 102.924739 2.1638456 103.304732 2.1638456"></polygon>
                        <polygon id="Fill-119" points="110.143257 16.0706771 110.529622 16.0706771 110.529622 2.16382614 110.143257 2.16382614"></polygon>
                        <polygon id="Fill-120" points="117.582542 15.9224586 113.678903 9.70934725 117.401143 2.07789247 117.747713 2.24975981 114.121098 9.6854065 117.908827 15.7141935"></polygon>
                        <polygon id="Fill-121" points="128.848998 16.0129468 124.030446 16.0129468 124.030446 2.163904 124.416811 2.163904 124.416811 15.6236663 128.848998 15.6236663"></polygon>
                        <polygon id="Fill-122" points="140.4443 16.0129468 134.469359 16.0129468 134.469359 1.96926375 139.716195 1.96926375 139.716195 2.35854424 134.855724 2.35854424 134.855724 15.6236663 140.4443 15.6236663"></polygon>
                        <polygon id="Fill-123" points="134.66256 9.6510525 139.07369 9.6510525 139.07369 9.26177201 134.66256 9.26177201"></polygon>
                    </g>
                    <text id="" font-family="Roboto-Regular, Roboto" font-size="8" font-weight="normal" letter-spacing="0.0941176471" fill="#5E4CA8">
                        <tspan x="146.095238" y="8.95238095"></tspan>
                    </text>
                </g>
            </g>
        </g>
    </g>
</svg>