<?xml version="1.0" encoding="UTF-8"?>
<svg width="17px" height="14px" viewBox="0 0 17 14" version="1.1" xmlns="http://www.w3.org/2000/svg" xmlns:xlink="http://www.w3.org/1999/xlink">
    <title>icons8-error</title>
    <g id="Revised-Landing" stroke="none" stroke-width="1" fill="none" fill-rule="evenodd">
        <g id="Get-Started-(3/17)" transform="translate(-477.000000, -2085.000000)" fill="#FFFFFF" fill-rule="nonzero">
            <g id="icons8-error" transform="translate(477.000000, 2085.000000)">
                <path d="M16.2963541,11.7648704 L9.59804557,0.621327694 C9.36428626,0.232236454 8.95387495,0 8.50006207,0 C8.0462492,0 7.63583789,0.232236454 7.40284,0.620566263 L0.703770084,11.7648704 C0.466203612,12.160053 0.460112165,12.6542218 0.687018602,13.0554959 C0.913163608,13.45677 1.3403264,13.705758 1.80175358,13.705758 L15.199132,13.705758 C15.6597977,13.705758 16.087722,13.45677 16.313867,13.0554959 C16.5407734,12.6542218 16.5339205,12.160053 16.2963541,11.7648704 Z M8.88077757,11.421465 L8.11934657,11.421465 C7.90919162,11.421465 7.73863107,11.2509044 7.73863107,11.0407495 L7.73863107,10.2793185 C7.73863107,10.0691635 7.90919162,9.89860297 8.11934657,9.89860297 L8.88077757,9.89860297 C9.09093253,9.89860297 9.26149307,10.0691635 9.26149307,10.2793185 L9.26149307,11.0407495 C9.26149307,11.2509044 9.09093253,11.421465 8.88077757,11.421465 Z M8.50006207,8.37574098 L8.50006207,8.37574098 C8.07975216,8.37574098 7.73863107,8.03461989 7.73863107,7.61430998 L7.73863107,5.33001699 C7.73863107,4.90970708 8.07975216,4.56858599 8.50006207,4.56858599 L8.50006207,4.56858599 C8.92037198,4.56858599 9.26149307,4.90970708 9.26149307,5.33001699 L9.26149307,7.61430998 C9.26149307,8.03461989 8.92037198,8.37574098 8.50006207,8.37574098 Z" id="Shape"></path>
            </g>
        </g>
    </g>
</svg>