<?xml version="1.0" encoding="UTF-8"?>
<svg width="51px" height="51px" viewBox="0 0 51 51" version="1.1" xmlns="http://www.w3.org/2000/svg" xmlns:xlink="http://www.w3.org/1999/xlink">
    <!-- Generator: Sketch 63.1 (92452) - https://sketch.com -->
    <title>Group 24</title>
    <desc>Created with Sketch.</desc>
    <g id="Page-1" stroke="none" stroke-width="1" fill="none" fill-rule="evenodd">
        <g id="Shpadoinkle-Landing-(3/17)" transform="translate(-1019.000000, -1195.000000)">
            <g id="Group-24" transform="translate(1019.000000, 1195.000000)">
                <circle id="Oval" fill="#EDE171" cx="25.5" cy="25.5" r="25.5"></circle>
                <g id="Group-5" transform="translate(25.000000, 25.689655) rotate(-88.000000) translate(-25.000000, -25.689655) translate(12.000000, 10.000000)">
                    <path d="M16.4595445,9.12771107 L15.7172293,9.4254888 L14.9436981,9.65420744 L14.1751615,9.89369676 L13.4078735,10.1452239 L12.6374639,10.4005525 L11.9070108,10.7578857 L11.7871415,11.1468975 L12.4077146,11.4339046 L13.0576306,11.6575546 L13.066371,12.3956633 L13.2037212,13.0944906 L13.2655288,13.8009207 L13.283634,14.5098851 L13.34232,15.2156817 L13.4084978,15.9202112 L13.5914233,16.6120692 L13.6538552,17.3159651 L13.7212816,18.0204945 L13.7549948,18.7281918 L13.8654993,19.4282863 L13.8823559,20.1378842 L13.9323014,20.8443144 L13.9485337,21.5152646 L13.8386536,22.1767113 L13.661347,22.819151 L13.4815431,23.465392 L13.1175652,24.061581 L12.7879248,24.6812121 L12.314691,25.1975714 L11.7165935,25.5549047 L11.1128771,25.8716895 L10.4904311,26.1675665 L9.81554234,26.3284932 L9.05761915,26.3101197 L8.30593915,26.2252213 L7.59359124,25.9629235 L6.94866978,25.5663089 L6.39365024,25.0569189 L5.83113888,24.5475289 L5.48089595,23.870243 L5.14313941,23.1904228 L4.94273303,22.4535813 L4.88217409,21.6951984 L4.76854805,20.9336477 L4.7966424,20.2170805 L4.90340094,19.5062153 L4.90340094,18.7871138 L4.96208692,18.0730808 L5.13814486,17.3710856 L5.15250419,16.6526177 L5.23990884,15.9417525 L5.34479443,15.2321545 L5.46840958,14.526358 L5.50149848,13.80789 L5.5583115,13.0932234 L5.66507004,12.3848926 L5.8086634,11.7000038 L6.4317337,11.3547083 L7.09538473,10.9967415 L6.48542513,10.5488078 L5.78369064,10.3340277 L5.15250419,9.95705373 L4.43328878,9.81830197 L3.74216771,9.60795685 L3.04979801,9.40774885 L2.34993648,9.23795219 L1.63321834,9.18473234 L0.943970234,9.16509168 L1.12627136,9.78789063 L1.33916412,10.4271624 L1.42032558,11.1095169 L1.21554897,11.8058099 L1.18558166,12.5242779 L1.03636944,13.2275402 L0.982678008,13.9428403 L0.901516546,14.654339 L0.767287975,15.3588685 L0.762293423,16.0811379 L0.589357077,16.7805987 L0.495709237,17.4901967 L0.371469768,18.1966269 L0.257843721,18.9036906 L0.195411828,19.6177236 L0.143593356,20.3342908 L0,21.0717659 L0.0493211961,21.8231795 L0.0243484386,22.568891 L0.124863788,23.3082667 L0.245357343,24.0425739 L0.395193888,24.7724462 L0.662402393,25.4681056 L0.894024719,26.1846729 L1.35289914,26.7795948 L1.75995509,27.3992259 L2.1626408,28.0340627 L2.73888718,28.5117742 L3.25082871,29.0579112 L3.85079921,29.4982421 L4.46388041,29.9189323 L5.08819934,30.2857691 L5.76121516,30.5499677 L6.42798778,30.8135327 L7.10724679,31.0435184 L7.79836785,31.2430929 L8.50696985,31.3685397 L9.22680958,31.3634711 L9.94477636,31.3793103 L10.6589972,31.2880763 L11.3488697,31.0796319 L12.0474825,30.9180716 L12.7136308,30.6488046 L13.3585523,30.3332869 L13.9866172,29.9879914 L14.5984497,29.6135518 L15.2496144,29.270157 L15.7665505,28.7430271 L16.3434212,28.2900248 L16.7742012,27.691935 L17.2268325,27.117921 L17.6432532,26.5141291 L18.0078554,25.8716895 L18.2894233,25.1868007 L18.3980548,24.4474249 L18.60408,23.7397276 L18.6690092,23.0047869 L18.8275862,22.2749146 L18.778265,21.5330046 L18.7720218,20.7923617 L18.6596444,20.0612223 L18.6134448,19.3585936 L18.5416481,18.6584991 L18.4392598,17.9628397 L18.245721,17.2798516 L18.1458299,16.5841921 L18.0740332,15.8840977 L18.0396957,15.1783011 L17.9410533,14.4820081 L17.7737358,13.7964857 L17.7262876,13.0925899 L17.6032968,12.4000983 L17.4796816,11.7475215 L17.4209956,11.0860748 L17.4609521,10.4208267 L17.666353,9.7885242 L17.9997393,9.23541791 L17.2505566,8.96551724 L16.4595445,9.12771107 Z M7.74217915,29.3195754 L7.08227403,29.0560105 L6.41612572,28.828559 L5.7924311,28.4953014 L5.23241702,28.0632069 L4.62932492,27.6811644 L4.13236705,27.1648051 L3.74716226,26.5603797 L3.32012811,25.9831977 L2.98736612,25.3458267 L2.80693794,24.6425644 L2.52661874,23.9811177 L2.37303628,23.2772218 L2.29312346,22.5631888 L2.28375867,21.8447209 L2.22819429,21.1268865 L2.23256452,20.4046171 L2.31809622,19.6893169 L2.46980572,18.9835204 L2.54472399,18.2682202 L2.63899615,17.5763622 L2.75636811,16.8870384 L2.73014671,16.1799747 L2.92805582,15.5020552 L2.91993967,14.7956251 L3.02732253,14.1050341 L3.16841861,13.4201454 L3.27455283,12.6497247 L3.07539509,11.9122496 L2.62276386,11.2672757 L3.34634951,11.3692805 L3.85891535,11.7830014 L4.00375735,12.4856302 L3.8770206,13.0266986 L3.87577197,13.5836063 L3.75652705,14.2843344 L3.59045821,14.9761924 L3.46122419,15.6743861 L3.34073064,16.373847 L3.33885768,17.0929486 L3.22335868,17.7924094 L3.11909741,18.4944046 L2.99048771,19.1932319 L2.95177994,19.9028299 L2.83315934,20.6035579 L2.78446246,21.3467351 L2.81567841,22.0905459 L2.86624824,22.8324559 L2.98736612,23.5680303 L3.24520984,24.2668576 L3.46434579,24.9777227 L3.86453422,25.6043231 L4.25723084,26.2264885 L4.64805449,26.8638595 L5.16811217,27.3985923 L5.7955527,27.796474 L6.44234712,28.1430366 L7.09600905,28.4762943 L7.80398672,28.6644644 L8.67303868,28.8995188 L9.46654805,29.3062705 L8.45015682,29.3753296 L7.74217915,29.3195754 Z" id="Fill-1" fill="#000000"></path>
                    <polygon id="Fill-2" fill="#F1E255" points="3.11072287 11.6551724 3.83317333 11.7285677 4.39439022 12.1388286 4.42105577 12.8533349 4.3367182 13.3947036 4.33299743 13.9448546 4.19904953 14.6355231 4.13393597 15.3368559 3.96464071 16.0212513 3.87844276 16.7194476 3.8282123 17.4232896 3.69674492 18.1139581 3.56527754 18.8046267 3.50822566 19.5065868 3.35071285 20.194746 3.24343051 20.8910603 3.20188185 21.6319137 3.30544342 22.3690032 3.33086872 23.1073472 3.53117043 23.8193443 3.63597226 24.5576884 3.93301413 25.236438 4.30509162 25.8731579 4.71623725 26.4797668 5.19063605 27.0336817 5.70658351 27.5461942 6.26531987 28.0141676 6.88668929 28.3955722 7.53410412 28.7405928 8.24663252 28.9093392 9.09868998 29.1734368 9.86206897 29.50152 8.89652787 29.5862069 8.19702219 29.5065385 7.52542231 29.2988988 6.87366657 29.0379378 6.26469974 28.6904079 5.67619718 28.3108853 5.11808094 27.8811778 4.66228601 27.3423183 4.17982553 26.8235328 3.87038108 26.1830491 3.50140423 25.5770675 3.27877787 24.9020817 2.99103794 24.2477972 2.85274914 23.5470917 2.74732718 22.8407404 2.71011943 22.1274887 2.68965517 21.414237 2.80809984 20.7072585 2.88127508 20.0002799 2.87569392 19.2832643 2.96065161 18.5756584 3.09273912 17.8962815 3.22234612 17.2156499 3.25211231 16.5230995 3.36373556 15.840586 3.41024525 15.1480356 3.52868992 14.4667767 3.65643652 13.7867724 3.69798518 13.0227086 3.57023857 12.2856192"></polygon>
                    <path d="M16.011583,0.0241117693 L15.296343,0.0774114698 L14.5948216,0.235407011 L13.899536,0.418783361 L13.2528892,0.741119645 L12.5756872,0.984775419 L11.967702,1.37183277 L11.306713,1.66942276 L10.7311537,2.12754638 L10.1630773,2.59074616 L9.60186022,3.06473278 L9.19092459,3.68339002 L8.72449083,4.24684399 L8.33163887,4.86677027 L8.03294666,5.53872721 L7.76668033,6.22337455 L7.50727332,6.9143671 L7.39939493,7.64533442 L7.30585875,8.37630174 L7.17241379,9.10726906 L7.24911346,9.84838871 L7.28528079,10.5844322 L7.30149372,11.3236483 L7.40625425,12.019717 L7.46487025,12.7221309 L7.50914405,13.4277174 L7.642589,14.119979 L7.71430007,14.8204893 L7.89326597,15.5057712 L7.91758537,16.2151648 L8.07347901,16.9029848 L8.23810269,17.5895357 L8.27052857,18.2976603 L8.33912176,18.9988051 L8.48503821,19.6485539 L8.52619413,20.3116275 L8.51372264,20.9797774 L8.31168448,21.6174702 L7.99490862,22.1530053 L8.71389007,22.4137931 L9.52266625,22.349072 L10.2584842,22.0127763 L11.0242338,21.7805419 L11.7993369,21.5508456 L12.5438849,21.2361235 L13.2952922,20.9372645 L14.0741368,20.7056646 L14.1801445,20.2450029 L13.5453456,19.9740628 L12.954197,19.7005845 L12.8363414,19.0057849 L12.7989269,18.2951222 L12.699155,17.5927083 L12.6074895,16.8902944 L12.6193374,16.1758246 L12.5432613,15.4715071 L12.4285236,14.7716313 L12.3050559,14.0730245 L12.2988201,13.3610928 L12.238957,12.6548717 L12.1360672,11.9530924 L12.1142421,11.2430642 L12.0412838,10.5374777 L12.046896,9.8699624 L12.0874283,9.19800546 L12.2557935,8.54762221 L12.5576036,7.94990414 L12.8219992,7.30586609 L13.2235812,6.73923951 L13.6413761,6.17705458 L14.1901217,5.74367725 L14.8255442,5.46448834 L15.4703203,5.22781229 L16.1506401,5.15547698 L16.8920702,5.12692357 L17.6297589,5.22400517 L18.3356453,5.46512286 L18.9922693,5.82489584 L19.600878,6.27159809 L20.1221863,6.82743783 L20.5100497,7.48543532 L20.817472,8.18467663 L20.9833428,8.93150696 L21.1816395,9.67770276 L21.1623087,10.4492794 L21.0712668,11.1624801 L21.0644075,11.8807571 L20.9608941,12.5907852 L20.9883314,13.3141383 L20.8442857,14.0197248 L20.8068712,14.7380017 L20.6865213,15.4461263 L20.6042095,16.1586925 L20.5200269,16.8712588 L20.3697454,17.5749417 L20.3136237,18.2919496 L20.2518899,19.0070539 L20.1976389,19.7367522 L19.5229312,20.0514742 L18.8332578,20.3960187 L19.5160719,20.7519846 L20.1452586,21.1136611 L20.8074948,21.4112511 L21.5090161,21.6016072 L22.193701,21.8294 L22.8945988,21.9994514 L23.5886372,22.2044014 L24.3094894,22.2456452 L25.0222351,22.2469143 L24.85387,21.5997036 L24.6393603,20.9632798 L24.6443489,20.3021097 L24.6992235,19.5863709 L24.820197,18.8788808 L24.7946304,18.1523551 L24.9324404,17.4467686 L25.0820983,16.7430857 L25.0858397,16.0197326 L25.2411098,15.3173187 L25.2972315,14.6009453 L25.4743267,13.901704 L25.5553914,13.1885033 L25.6719998,12.4810132 L25.7705246,11.769716 L25.8235284,11.0533427 L25.857825,10.3039742 L26,9.559682 L25.8702965,8.81475523 L25.8634372,8.06538682 L25.7854904,7.31665293 L25.5859465,6.59329986 L25.3564711,5.8769265 L24.9929271,5.22019805 L24.6175352,4.57806356 L24.176668,3.98034549 L23.7769568,3.34328717 L23.2487891,2.81409728 L22.6258381,2.40039008 L22.0421724,1.95114975 L21.444788,1.5171379 L20.8131069,1.17513149 L20.1926503,0.809013311 L19.5148247,0.575509861 L18.8600715,0.266498503 L18.1516908,0.140228974 L17.442063,0.0437818968 L16.7274465,0 L16.011583,0.0241117693 Z M22.604013,20.0153066 L22.0783397,19.6180969 L22.0078758,18.9182211 L22.0147351,18.3617468 L22.1157542,17.8166939 L22.1974424,17.1104729 L22.290355,16.4048864 L22.4892753,15.7164319 L22.5990244,15.0146525 L22.6682412,14.3058934 L22.7231158,13.5952308 L22.888363,12.9010656 L22.9900057,12.1967481 L23.0361502,11.4860855 L23.1496408,10.783037 L23.1758309,10.0355722 L23.1652301,9.28874185 L23.046751,8.55269837 L22.9170475,7.82109653 L22.7842261,7.08251496 L22.4630852,6.40738543 L22.1425679,5.73606301 L21.6886056,5.1497663 L21.2327726,4.5729874 L20.7532438,4.00762986 L20.165213,3.55965857 L19.5578514,3.13072288 L18.8762844,2.83694001 L18.166033,2.63389353 L17.2967701,2.41752213 L16.5048304,2.06917052 L17.5119033,1.92894154 L18.2109304,2.04696231 L18.8837673,2.27031343 L19.5397677,2.53110125 L20.1458822,2.89595039 L20.7856697,3.21447956 L21.3082251,3.70432919 L21.7540809,4.262707 L22.2155261,4.80395277 L22.5535035,5.43466589 L22.9613212,6.02984588 L23.1702187,6.72210747 L23.4290022,7.39469893 L23.5499756,8.1053616 L23.6522418,8.81665879 L23.7008807,9.53557023 L23.6391468,10.2538471 L23.6354053,10.9733931 L23.5954966,11.6923045 L23.5443634,12.411216 L23.4109185,13.1206096 L23.2843329,13.8084296 L23.2986751,14.5152851 L23.1646065,15.2037396 L23.051116,15.8934631 L23.0068422,16.5933389 L22.8821273,17.2811588 L22.771131,17.9721514 L22.6314503,18.7462661 L22.8447128,19.4969035 L23.2999222,20.123175 L22.604013,20.0153066 Z" id="Fill-3" fill="#000000"></path>
                    <polygon id="Fill-4" fill="#F1E255" points="22.8898973 19.7241379 22.1668267 19.6507452 21.6062299 19.2404987 21.5789442 18.5260174 21.6632818 17.9846676 21.6676227 17.4345358 21.8015706 16.7438915 21.8666842 16.0425832 22.0353593 15.3575845 22.1215572 14.6600399 22.1724078 13.9562225 22.3032551 13.2649509 22.4347225 12.5743065 22.4923945 11.8729983 22.6492871 11.1848631 22.7565695 10.4885731 22.7981181 9.74774568 22.6951767 9.010682 22.6691313 8.27236373 22.4688296 7.56039157 22.3646479 6.82207331 22.0669859 6.14334743 21.6955285 5.50602257 21.2837628 4.90006213 20.8099841 4.34553932 20.2934165 3.83367211 19.7353003 3.36571508 19.1133107 2.98432383 18.4658959 2.63931529 17.7533675 2.46994746 16.9019302 2.2064864 16.137931 1.87778736 17.1040923 1.79310345 17.8029778 1.87339634 18.4751978 2.08102875 19.1269536 2.34198066 19.7359204 2.68949835 20.324423 3.06900774 20.8825392 3.49870019 21.337714 4.0369135 21.8207946 4.55630817 22.1296189 5.19676947 22.4992159 5.80210262 22.7218423 6.47769206 23.0095822 7.1319537 23.147871 7.83263467 23.2532929 8.53833395 23.2905007 9.25156068 23.3103448 9.9654147 23.1919002 10.6723686 23.119345 11.3786951 23.1243061 12.0963129 23.0399685 12.803894 22.907881 13.4832472 22.7776539 14.1638549 22.7478877 14.8563811 22.6362644 15.5388708 22.5903749 16.231397 22.4719302 16.912632 22.3441836 17.5919852 22.302635 18.3566496 22.4303816 19.093086"></polygon>
                </g>
            </g>
        </g>
    </g>
</svg>