<?xml version="1.0" encoding="UTF-8"?>
<svg width="68px" height="10px" viewBox="0 0 68 10" version="1.1" xmlns="http://www.w3.org/2000/svg" xmlns:xlink="http://www.w3.org/1999/xlink">
    <title>Fill 1</title>
    <g id="Revised-Landing" stroke="none" stroke-width="1" fill="none" fill-rule="evenodd">
        <g id="Shpadoinkle-Landing-(Revised)" transform="translate(-847.000000, -74.000000)" fill="#DDCE47">
            <path d="M847.192399,84 C846.88159,82.9044211 846.92469,82.7527404 847.488842,82.1856286 C847.719759,81.953277 847.897414,81.6214151 848.119571,81.3697411 C848.342779,81.116618 848.570192,80.832579 848.831945,80.6915256 C849.636825,80.2577382 850.257743,79.4959534 850.854833,78.6795829 C850.89548,78.6240311 850.900736,78.5192071 850.936127,78.3858827 C850.736046,78.4235614 850.575911,78.4535111 850.328875,78.4994017 C850.452919,77.7859229 850.70451,77.3250841 851.148823,77.1265467 C852.190578,76.6613604 853.226375,76.1396562 854.293359,75.8242183 C854.974196,75.6232656 855.707243,75.7020043 856.41401,75.7459627 C857.06261,75.7865397 857.705603,75.9652717 858.353502,76.0536716 C859.51054,76.211632 860.672483,76.3101761 861.826367,76.5019508 C863.611331,76.7975832 865.385782,77.2729137 867.176002,77.4429506 C868.872313,77.6042925 870.58264,77.4637222 872.287011,77.4680697 C874.139953,77.4719342 875.99745,77.6105723 877.844085,77.4719342 C880.167972,77.2975497 882.378327,77.9917062 884.606904,78.6906933 C885.287741,78.9037225 886.004319,78.9418842 886.706881,78.9756984 C887.75214,79.0259365 888.802654,79.0752086 889.844759,78.9906732 C891.33293,78.8699083 892.818998,78.6786168 894.266521,78.1153694 C895.371348,77.6864126 896.511216,77.4081703 897.592566,76.8932289 C898.995588,76.2256407 900.421737,76.5357649 901.839476,76.4835945 C902.134167,76.4729672 902.429558,76.7227089 902.731958,76.788405 C904.194549,77.1057751 905.604929,76.707251 907.00655,76.1768517 C907.555284,75.9686531 908.01922,75.577858 908.512591,75.1972071 C909.228118,74.6455532 910.091867,74.4590922 910.892893,74.1166031 C911.707935,73.7678341 912.453597,74.2982334 913.230445,74.4484649 C913.625001,74.5247883 914.033924,74.4586092 914.436189,74.4581261 C914.7915,74.45716 914.954088,74.6914438 914.995085,75.1904443 C915.043791,75.7865397 914.720368,75.7923364 914.472982,75.8647953 C913.297723,76.2101828 912.100389,76.4401191 910.945804,76.8840508 C910.234832,77.1569794 909.557148,77.6724039 908.915907,78.1984557 C907.608195,79.2708477 906.125982,79.6418374 904.707542,80.2461448 C903.965033,80.5630318 903.14053,80.4968527 902.359828,80.6649574 C900.632681,81.035947 898.929362,80.4514451 897.214479,80.4780133 C896.562726,80.4881576 895.907819,80.7494928 895.263073,80.9509286 C894.014229,81.3426898 892.771693,81.7721297 891.527054,82.1894931 C891.3939,82.2339345 891.257943,82.2807913 891.135301,82.3609792 C889.634516,83.3459375 888.036318,83.4696007 886.439873,83.163341 C884.176957,82.7285875 881.91404,82.2368329 879.683011,81.5692447 C878.35848,81.1726529 877.093167,81.466353 875.801224,81.5977452 C875.221303,81.6566785 874.60459,81.5663463 874.069872,81.8122236 C872.691378,82.4455146 871.285903,82.1687215 869.891291,82.2358668 C869.646008,82.2474602 869.398271,82.0663129 869.147732,82.0068966 C868.710426,81.9030388 868.269266,81.8320291 867.83126,81.733968 C867.611556,81.6842129 867.383792,81.645085 867.180207,81.5320491 C865.60023,80.6519147 863.995725,80.0997778 862.266126,80.5040985 C861.786421,80.6161683 861.269223,80.3905796 860.778306,80.4533773 C859.737953,80.5871848 858.704608,80.8200194 857.666008,80.9837766 C857.414417,81.0233875 857.115521,81.0552694 856.904577,80.9098685 C856.358296,80.5325991 855.838995,80.7441791 855.294116,80.8470708 C854.243601,81.0460913 853.185378,81.1663731 852.13206,81.3383423 C850.80893,81.555236 849.553078,82.0088288 848.459114,83.1517476 C848.102752,83.5246695 847.641268,83.707749 847.192399,84" id="Fill-1"></path>
        </g>
    </g>
</svg>