<?xml version="1.0" encoding="UTF-8"?>
<svg width="51px" height="51px" viewBox="0 0 51 51" version="1.1" xmlns="http://www.w3.org/2000/svg" xmlns:xlink="http://www.w3.org/1999/xlink">
    <!-- Generator: Sketch 63.1 (92452) - https://sketch.com -->
    <title>Group 23</title>
    <desc>Created with Sketch.</desc>
    <g id="Page-1" stroke="none" stroke-width="1" fill="none" fill-rule="evenodd">
        <g id="Shpadoinkle-Landing-(3/17)" transform="translate(-590.000000, -1195.000000)">
            <g id="Group-23" transform="translate(590.000000, 1195.000000)">
                <circle id="Oval" fill="#EDE171" cx="25.5" cy="25.5" r="25.5"></circle>
                <g id="Group-10" transform="translate(13.000000, 11.000000)">
                    <path d="M7.66125,-0.000147058824 L6.85316176,0.0873529412 L6.05610294,0.03 L5.24801471,0.0432352941 L4.44066176,0.0925 L3.64139706,0.160882353 L2.83698529,0.155735294 L1.98625,0.176323529 L1.24580882,0.577058824 L0.643602941,1.13882353 L0.267867647,1.89544118 L0.306102941,2.74985294 L0.167132353,3.65794118 L0.273014706,4.50647059 L0.22375,5.35867647 L0.0575735294,6.21014706 L0.154632353,7.0675 L0.270808824,7.91382353 L0.291397059,8.77117647 L0.0465441176,9.61676471 L0.279632353,10.4645588 L0.270073529,11.3233824 L0.205367647,12.1770588 L0.000220588235,13.0248529 L0.200220588,13.8755882 L0.206102941,14.7270588 L0.0877205882,15.5741176 L0.0965441176,16.4314706 L0.138455882,17.2822059 L0.139926471,18.1351471 L0.0811029412,18.9851471 L0.24875,19.8358824 L0.01125,20.6851471 L0.155367647,21.5417647 L0.244338235,22.3880882 L0.209779412,23.1241176 L0.150955882,23.8726471 L0.578161765,24.6469118 L0.810514706,25.5322059 L1.67227941,25.8763235 L2.54654412,26.0101471 L3.41419118,25.8197059 L4.27375,26.0895588 L5.14507353,25.9432353 L6.00463235,25.9917647 L6.87375,26.0138235 L7.73845588,25.9689706 L8.60463235,26.0189706 L9.46933824,25.9454412 L10.33625,25.9505882 L11.2009559,25.9866176 L12.0700735,26.0020588 L12.9281618,25.8564706 L13.8031618,25.8211765 L14.6715441,26.0792647 L15.5575735,25.7851471 L16.3119853,25.3197059 L16.7590441,24.5410294 L17.1002206,23.6858824 L16.99875,22.9439706 L16.8818382,22.2101471 L17.0119853,21.3917647 L16.9869853,20.5711765 L16.9833088,19.7542647 L17.0480147,18.9358824 L17.1016912,18.1211765 L17.1561029,17.3013235 L17.0458088,16.4851471 L17.0046324,15.6645588 L16.9472794,14.8454412 L17.0597794,14.0270588 L17.0038971,13.2108824 L16.9877206,13.2079412 L17.0715441,12.3513235 L17.0009559,11.4939706 L17.0156618,10.6380882 L17.0546324,9.78147059 L17.1288971,8.92485294 L17.2097794,8.06602941 L17.1656618,7.20279412 L16.9884559,6.35426471 L17.1399265,5.49764706 L17.0921324,4.63367647 L16.8958088,3.78367647 L17.0340441,2.92264706 L16.9458088,2.00941176 L16.62375,1.16235294 L15.9877206,0.532205882 L15.0965441,0.394705882 L14.2296324,0.0130882353 L13.4031618,0.251323529 L12.5686029,0.248382353 L11.7465441,0.165294118 L10.9171324,0.274117647 L10.0965441,0.0505882353 L9.26345588,0.0763235294 L8.45977941,0.263823529 L7.66125,-0.000147058824 Z M3.84360294,6.06529412 L3.30316176,5.46014706 L2.92669118,4.75058824 L2.35242647,4.17338235 L1.95904412,3.22558824 L2.57080882,2.40794118 L3.50389706,2.11382353 L4.39580882,2.10058824 L5.27595588,2.15573529 L6.17154412,2.43882353 L6.61639706,3.19470588 L6.56345588,4.10205882 L6.14875,4.70867647 L5.61639706,5.40426471 L4.95389706,5.98441176 L4.39507353,6.69029412 L3.84360294,6.06529412 Z M7.85757353,17.0344118 L7.32375,16.3601471 L6.59948529,15.8976471 L5.88992647,15.4130882 L5.34801471,14.7410294 L4.70830882,14.1675 L4.12007353,13.4005882 L3.86566176,12.4755882 L3.93257353,11.5425 L4.33919118,10.7189706 L4.90536765,9.96970588 L5.74286765,9.49544118 L6.70169118,9.30573529 L7.63625,9.58220588 L8.61786765,9.99102941 L9.22669118,9.78955882 L9.78551471,9.36455882 L10.6759559,9.50647059 L11.5480147,9.505 L12.2884559,9.95573529 L12.8671324,10.5976471 L13.28625,11.3138235 L13.3855147,12.1344118 L13.31125,12.9630882 L12.8781618,13.6851471 L12.3038971,14.2880882 L11.7222794,14.8858824 L11.2355147,15.5682353 L10.6296324,16.1601471 L9.82448529,16.4858824 L9.25904412,17.1167647 L8.54801471,17.6035294 L7.85757353,17.0344118 Z M11.8641912,23.9733824 L11.0200735,23.7233824 L10.5950735,23.0358824 L10.6700735,22.1961765 L11.1053676,21.4527941 L11.5877206,20.7395588 L12.2215441,20.1447059 L12.7406618,19.4219118 L13.2825735,20.0461765 L13.78625,20.6579412 L14.3075735,21.2608824 L14.6744853,21.9608824 L15.1605147,22.6380882 L14.9744853,23.4932353 L14.2031618,23.7858824 L13.4583088,24.0020588 L12.6561029,24.0520588 L11.8641912,23.9733824 Z" id="Fill-1" fill="#000000"></path>
                    <polygon id="Fill-2" fill="#000000" points="21.4597059 0.269191176 21.5141176 1.23830882 21.5111765 2.08536765 21.5567647 2.93389706 21.4619118 3.78316176 21.3722059 4.62801471 21.3714706 5.47801471 21.3869118 6.33095588 21.4501471 7.17948529 21.3479412 8.03463235 21.4288235 8.88022059 21.3119118 9.72727941 21.47 10.5758088 21.4957353 11.4302206 21.3582353 12.2750735 21.3795588 13.1302206 21.4604412 13.9802206 21.2347059 14.8250735 21.3795588 15.6809559 21.5927941 16.5177206 21.4258824 17.3633088 21.4104412 18.2125735 21.5185294 19.0566912 21.4501471 19.9081618 21.5075 20.75375 21.4861765 21.5993382 21.4133824 22.4463971 21.5442647 23.2883088 21.4957353 24.1368382 21.5163235 24.9883088 21.6972059 25.8213971 22.5229412 25.7000735 23.3317647 25.5868382 23.945 25.0405147 24.1825 24.25375 24.4670588 23.3802206 24.3516176 22.5199265 24.4494118 21.6625735 24.3839706 20.8081618 24.5126471 19.9522794 24.3979412 19.0934559 24.3942647 18.2390441 24.3391176 17.3824265 24.4361765 16.5250735 24.4538235 15.6684559 24.2751471 14.8155147 24.5236765 13.9611029 24.4582353 13.1008088 24.3663235 12.2471324 24.4979412 11.3890441 24.4457353 10.5302206 24.3677941 9.67654412 24.4714706 8.82139706 24.4089706 7.96551471 24.3141176 7.11110294 24.4266176 6.25669118 24.5825 5.39198529 24.2986765 4.54272059 24.4266176 3.68904412 24.3288235 2.82948529 24.0861765 1.89051471 23.7538235 0.973602941 23.1832353 0.39125 22.4023529 0.05375"></polygon>
                    <polygon id="Fill-3" fill="#000000" points="18.0363971 1.15529412 17.9319853 1.99867647 17.8665441 2.84867647 17.8128676 3.69647059 17.6658088 4.54352941 17.7290441 5.39573529 17.6849265 6.24867647 17.7893382 7.10088235 17.6444853 7.95088235 17.7680147 8.8075 17.6113971 9.65676471 17.8194853 10.5060294 17.6172794 11.3516176 17.6415441 12.2133824 17.8415441 13.0663235 17.5952206 13.9155882 17.6496324 14.7685294 17.6915441 15.6133824 17.6231618 16.4633824 17.6834559 17.3119118 17.7371324 18.1619118 17.6540441 19.0126471 17.7334559 19.8619118 17.8900735 20.7060294 17.7930147 21.5589706 17.6841912 22.4155882 18.0055147 23.245 17.8599265 24.1023529 17.9113971 24.9508824 18.1165441 25.7177941 18.8613971 25.8332353 19.6216912 25.5979412 20.2922794 25.1457353 20.7283088 24.4155882 20.8025735 23.4714706 20.7136029 22.5538235 20.7599265 21.6964706 20.6415441 20.8361765 20.7908088 19.9773529 20.7540441 19.1185294 20.8150735 18.2597059 20.7415441 17.4008824 20.6944853 16.5442647 20.5908088 15.6839706 20.75625 14.8288235 20.7547794 13.9692647 20.6613971 13.1111765 20.7238971 12.2530882 20.7628676 11.3935294 20.6386029 10.5361765 20.8783088 9.67955882 20.6444853 8.82147059 20.65625 7.96191176 20.6775735 7.10235294 20.7790441 6.245 20.6591912 5.38911765 20.6474265 4.52514706 20.6555147 3.66926471 20.7268382 2.84647059 20.6863971 2.01558824 20.2944853 1.23470588 19.6974265 0.629558824 18.8893382 0.308970588 18.0136029 0.303823529"></polygon>
                    <path d="M8.47404412,16.6261029 L9.15566176,16.0922794 L9.91448529,15.6261029 L10.5115441,14.9555147 L11.2828676,14.4761029 L11.8071324,13.7459559 L12.4541912,13.1246324 L12.7225735,12.35625 L12.5041912,11.6055147 L12.2593382,10.8518382 L11.6505147,10.3261029 L10.9174265,9.97610294 L10.0799265,10.0069853 L9.29242647,10.4466912 L8.53507353,10.9003676 L7.81154412,10.4996324 L7.02477941,10.3297794 L6.25566176,10.1790441 L5.43139706,10.2966912 L4.97257353,10.9996324 L4.61816176,11.6672794 L4.46080882,12.4349265 L4.75713235,13.1944853 L5.39463235,13.6783088 L5.95933824,14.3261029 L6.56963235,14.9253676 L7.10345588,15.6084559 L7.83286765,16.0893382 L8.47404412,16.6261029 Z M8.61742647,9.99007353 L9.17992647,9.68051471 L9.82477941,9.53419118 L10.6843382,9.30625 L11.4983088,9.64375 L12.2968382,9.95257353 L12.8071324,10.6408088 L13.23875,11.3305147 L13.5174265,12.1378676 L13.2093382,12.9253676 L12.8218382,13.6415441 L12.2269853,14.21875 L11.6174265,14.7819853 L11.0997794,15.4341912 L10.5328676,16.0466912 L9.89904412,16.58125 L9.31301471,17.1893382 L8.54389706,17.6121324 L7.98875,16.8988971 L7.23213235,16.4694853 L6.59904412,15.8886029 L6.05566176,15.2261029 L5.44022059,14.6261029 L4.69904412,14.1775735 L4.16889706,13.3738971 L3.87183824,12.4746324 L4.02330882,11.5584559 L4.25419118,10.6613971 L4.95272059,10.0290441 L5.76448529,9.56066176 L6.70051471,9.38419118 L7.65051471,9.54154412 L8.61742647,9.99007353 Z" id="Fill-4" fill="#F1E255"></path>
                    <path d="M4.45,3.57602941 L3.70588235,3.25617647 L3.08970588,2.75323529 L3.12647059,3.58852941 L3.42720588,4.31573529 L3.92794118,4.94882353 L4.60955882,5.58264706 L5.04705882,4.78558824 L5.43970588,4.08632353 L5.95073529,3.46647059 L5.72647059,2.91205882 L5.09411765,3.16720588 L4.45,3.57602941 Z M4.39705882,6.77602941 L3.75955882,6.13411765 L3.38676471,5.40470588 L2.81176471,4.83632353 L2.34117647,4.18264706 L2.13235294,3.24808824 L2.66838235,2.54661765 L3.50588235,2.15544118 L4.39558824,2.06352941 L5.28308824,2.13485294 L6.22205882,2.36573529 L6.72647059,3.17529412 L6.49926471,4.08338235 L6.02132353,4.60397059 L5.59926471,5.38632353 L5.03676471,6.05544118 L4.39705882,6.77602941 Z" id="Fill-5" fill="#F1E255"></path>
                    <path d="M12.7242647,20.8468382 L12.2257353,21.4505147 L11.5477941,21.8909559 L11.2823529,22.6461029 L11.3397059,23.3541912 L11.9610294,22.9519853 L12.7573529,23.0247794 L13.5580882,23.0240441 L14.3426471,23.1063971 L14.0698529,22.1909559 L13.5088235,21.4041912 L12.7242647,20.8468382 Z M12.7419118,19.4527206 L13.3360294,20.00125 L13.6860294,20.7380147 L14.2205882,21.3218382 L14.8102941,21.8630147 L15.1529412,22.6313971 L14.7727941,23.3034559 L14.2029412,23.7688971 L13.4522059,23.9652206 L12.6514706,23.9909559 L11.85,23.9652206 L11.0352941,23.6924265 L10.4772059,23.0593382 L10.6904412,22.1961029 L11.0919118,21.4372794 L11.5647059,20.7166912 L12.1573529,20.08875 L12.7419118,19.4527206 Z" id="Fill-6" fill="#F1E255"></path>
                    <polygon id="Fill-7" fill="#000000" points="8.47477941 16.6074265 7.86080882 16.0522794 7.27551471 15.41625 6.48948529 15.0191912 5.85272059 14.4280147 5.37036765 13.7052206 4.82036765 13.1493382 4.59904412 12.4111029 4.56595588 11.6544853 4.92919118 10.9655147 5.50272059 10.4022794 6.27477941 10.2103676 7.08654412 10.0824265 7.78801471 10.5522794 8.54610294 10.8530147 9.33580882 10.5221324 10.1313971 10.1824265 10.8997794 10.0772794 11.5924265 10.4184559 12.2527206 10.8530147 12.6990441 11.5419853 12.7159559 12.3544853 12.43875 13.1044853 11.7813971 13.7265441 11.1813971 14.3802206 10.6556618 15.1155147 9.91375 15.6243382 9.22551471 16.19125"></polygon>
                    <polygon id="Fill-8" fill="#000000" points="4.44786765 3.45897059 5.09566176 3.16926471 5.78977941 2.78544118 6.01183824 3.51044118 5.59492647 4.195 5.11992647 4.83985294 4.58463235 5.35823529 3.99860294 4.87220588 3.42066176 4.31926471 3.06772059 3.59794118 3.10669118 2.7825 3.78389706 3.10823529"></polygon>
                    <polygon id="Fill-9" fill="#000000" points="12.7220588 20.8216912 13.5102941 21.4091912 14.0691176 22.1922794 14.4330882 23.1613971 13.5580882 23.0613971 12.7595588 23.0452206 11.9632353 22.9488971 11.3169118 23.4408088 11.4051471 22.6709559 11.7183824 21.9988971 12.1161765 21.3327206"></polygon>
                </g>
            </g>
        </g>
    </g>
</svg>