<?xml version="1.0" encoding="UTF-8"?>
<svg width="51px" height="51px" viewBox="0 0 51 51" version="1.1" xmlns="http://www.w3.org/2000/svg" xmlns:xlink="http://www.w3.org/1999/xlink">
    <!-- Generator: Sketch 63.1 (92452) - https://sketch.com -->
    <title>Group 22</title>
    <desc>Created with Sketch.</desc>
    <g id="Page-1" stroke="none" stroke-width="1" fill="none" fill-rule="evenodd">
        <g id="Shpadoinkle-Landing-(3/17)" transform="translate(-161.000000, -1195.000000)">
            <g id="Group-22" transform="translate(161.000000, 1195.000000)">
                <circle id="Oval" fill="#EDE171" cx="25.5" cy="25.5" r="25.5"></circle>
                <path d="M24.2300905,11 L23.5302801,11.0842345 L22.8530638,11.3066377 L22.1416509,11.2454314 L21.461992,11.3775401 L20.7939356,11.5569172 L20.2388503,11.9520314 L19.616593,12.2762432 L19.3143188,12.9216369 L19.3588966,13.6149048 L19.4578227,14.2415124 L19.8578016,14.7354052 L20.3884607,15.1953618 L21.0626237,15.411099 L21.7612129,15.4395812 L22.4335439,15.6025961 L23.1186987,15.6395623 L23.8069067,15.5625999 L24.5287008,15.581386 L25.22729,15.3250465 L25.9521373,15.5644179 L26.6739314,15.3741328 L27.4042746,15.409887 L28.0558433,15.7316748 L28.7556538,15.8740856 L29.3968414,16.1764813 L30.0203201,16.5073592 L30.5747947,16.8782333 L30.213287,17.3133438 L29.9891767,17.8938951 L29.6783533,18.419906 L29.318067,19.1804404 L28.5858918,19.3913296 L27.8274584,19.4210237 L27.1526848,19.0283335 L26.4205096,18.8507745 L25.7585597,18.595647 L25.0453148,18.4677803 L24.379701,18.1847767 L23.6725626,18.0702421 L22.9562645,18.0060057 L22.238745,17.9999457 L21.5346599,17.9896436 L20.8342388,18.0872102 L20.1747315,18.3465796 L19.4553801,18.4017259 L18.887471,18.8592585 L18.1772794,19.0186374 L17.5965466,19.4295078 L17.0805433,19.9118865 L16.5224047,20.354875 L16.1395241,20.9548184 L15.8360286,21.58991 L15.3933039,22.1401611 L15.1514845,22.7982809 L14.9340914,23.4600366 L14.7399031,24.1327004 L13.9326174,23.7975805 L13.0581596,23.6866819 L12.3088861,23.8048526 L11.5388503,23.9351433 L11.0936829,24.584779 L10.4286797,25.0156474 L10.3028848,25.7834538 L10,26.5173239 L10.2222784,27.3584567 L10.7730891,27.9929423 L11.4112234,28.4898651 L12.0493578,28.7437806 L12.7308486,28.7952908 L13.4062329,28.9843639 L14.1152032,28.9486097 L14.7692146,28.6959063 L15.2632344,29.177679 L15.7432091,29.701266 L16.3801221,30.0188118 L17.0170352,30.3569617 L17.7369973,30.41938 L18.443525,30.4684663 L18.5381765,30.6375413 L19.3711097,30.764196 L20.2095389,30.8829727 L20.945378,31.2629368 L20.7176037,31.8634862 L20.2699937,32.3125348 L19.7362813,32.6561387 L19.5188882,33.241538 L19.3650032,33.8111813 L19.4559907,34.4935411 L19.9011581,35.007432 L20.4574647,35.3983043 L21.1224679,35.5982854 L21.8015161,35.7170621 L22.4646873,35.9358293 L23.1706043,36.051576 L23.8661402,36.1279324 L24.5476311,36.3285195 L25.1002737,36.762418 L25.5845231,37.2423727 L26.1170141,37.6786952 L26.4070752,38.3186348 L26.9114761,38.8004075 L26.9591072,39.0476569 L27.4451885,39.5221576 L28.0130975,39.8742456 L28.5718467,40.2130015 L29.1483049,40.5444854 L29.7766688,40.7687067 L30.4410613,40.7056823 L31.1060644,40.8529412 L31.7063382,40.29663 L32.0440303,39.583364 L31.9780796,38.8258597 L31.695957,38.1344098 L31.557949,37.4084177 L31.2019372,36.7606 L30.8550853,36.0994502 L30.2835123,35.6073754 L29.7272057,35.1237847 L29.1849442,34.6062578 L28.559023,34.3577964 L28.0021057,34.0051024 L27.4317541,33.6596804 L26.8186566,33.405159 L26.1127395,33.2197219 L26.6635502,32.7833994 L27.1013898,32.3034447 L27.2503896,31.6683531 L27.587471,31.1059819 L27.6271636,30.4660423 L27.7621183,29.9824516 L27.7248684,29.7976205 L27.8189092,29.1467728 L27.6546431,28.993454 L27.6796799,28.29655 L27.7181512,27.583284 L27.4567909,26.9269823 L27.0720783,26.3409769 L26.6385134,25.8010279 L26.2556328,25.2059325 L25.6071173,24.9077788 L25.0392083,24.4623663 L24.7100653,23.5394231 L25.7017688,23.355198 L26.3008212,23.8042466 L26.8565172,24.2435991 L27.3743525,24.7308258 L27.867151,25.2489587 L28.2042325,25.8761723 L28.4680354,26.530656 L28.8148873,27.1621116 L28.9657191,27.8578035 L29.0298379,28.5710696 L29.0823542,29.2831236 L29.002969,29.9957836 L28.8588545,30.6866276 L28.6664982,31.3738355 L28.6133712,32.1101296 L28.2445357,32.7361312 L28.7068014,32.877936 L29.3021899,32.5955384 L29.7846073,32.0774054 L30.2584755,31.5629085 L30.8276058,31.1284041 L31.216593,30.5351267 L31.5457359,29.9151852 L31.957928,29.34433 L32.1460097,28.6601521 L32.6046115,28.0977809 L32.6601811,27.3802728 L33.0100863,26.7536653 L33.1438198,26.0585793 L33.1462624,25.3531913 L33.30259,24.6665894 L33.2793851,24.0151358 L33.9401137,24.3223795 L34.702211,24.5120586 L35.4801853,24.4932725 L36.1702253,24.6078071 L36.8199621,24.3587397 L37.4580964,24.1351244 L37.9887555,23.7509183 L38.5035376,23.353986 L38.8015372,22.7122284 L38.842451,22.0098704 L39,21.3111484 L38.8650453,20.6075784 L38.8180248,19.9076445 L38.7007791,19.1931664 L38.2714887,18.6162512 L37.8849442,18.0490319 L37.4312276,17.529687 L37.0654454,16.9218656 L36.425479,16.6152278 L35.8844388,16.1401211 L35.1791324,16.0213445 L34.4903138,15.946806 L33.803327,15.8662076 L33.1236681,15.7201607 L32.7383449,15.1493055 L32.2632554,14.6457167 L31.8461781,14.0881935 L31.2843757,13.6706571 L30.7005896,13.301601 L30.0862708,12.9834492 L29.4908823,12.6356033 L28.8979364,12.2780612 L28.2420931,12.0465679 L27.6515898,11.6399396 L26.9145294,11.6720578 L26.309981,11.2660355 L25.5949042,11.2775496 L24.9146347,11.1399868 L24.2300905,11 Z M34.6445286,21.8418856 L34.2494442,21.071418 L33.8823529,20.308091 L34.1018443,19.4776426 L34.3359684,18.6764706 L35.0955992,18.706461 L35.698087,19.2362913 L36.2929403,19.6311649 L35.7388042,19.8003964 L36.1109852,20.1874154 L36.4411765,20.6622633 L36.4080937,21.3349051 L36.0301869,21.9418536 L35.3341767,22.0882353 L34.6445286,21.8418856 Z" id="Fill-1" fill="#000000"></path>
            </g>
        </g>
    </g>
</svg>