<?xml version="1.0" encoding="UTF-8"?>
<svg width="7px" height="15px" viewBox="0 0 7 15" version="1.1" xmlns="http://www.w3.org/2000/svg" xmlns:xlink="http://www.w3.org/1999/xlink">
    <title>Shape</title>
    <g id="Revised-Landing" stroke="none" stroke-width="1" fill="none" fill-rule="evenodd">
        <g id="Get-Started-(3/17)" transform="translate(-480.000000, -2251.000000)" fill="#FFFFFF" fill-rule="nonzero">
            <g id="icons8-information" transform="translate(480.000000, 2251.000000)">
                <path d="M3.34090909,0 C2.37642045,0 1.59090909,0.805027174 1.59090909,1.79347826 C1.59090909,2.78192935 2.37642045,3.58695652 3.34090909,3.58695652 C4.30539773,3.58695652 5.09090909,2.78192935 5.09090909,1.79347826 C5.09090909,0.805027174 4.30539773,0 3.34090909,0 Z M0.318181818,4.56521739 C0.142933318,4.56521739 0,4.71042815 0,4.89130435 L0,6.84782609 C0,7.02870261 0.142933318,7.17391304 0.318181818,7.17391304 L1.90909091,7.17391304 L1.90909091,12.3913043 L0.318181818,12.3913043 C0.142933318,12.3913043 0,12.5365151 0,12.7173913 L0,14.673913 C0,14.8547896 0.142933318,15 0.318181818,15 L6.68181818,15 C6.85706668,15 7,14.8547896 7,14.673913 L7,12.7173913 C7,12.5365151 6.85706668,12.3913043 6.68181818,12.3913043 L5.09090909,12.3913043 L5.09090909,4.89130435 C5.09090909,4.71042815 4.94797577,4.56521739 4.77272727,4.56521739 L0.318181818,4.56521739 Z" id="Shape"></path>
            </g>
        </g>
    </g>
</svg>