<?xml version="1.0" encoding="UTF-8"?>
<svg width="1440px" height="212px" viewBox="0 0 1440 212" version="1.1" xmlns="http://www.w3.org/2000/svg" xmlns:xlink="http://www.w3.org/1999/xlink">
    <!-- Generator: Sketch 63.1 (92452) - https://sketch.com -->
    <title>Group 19</title>
    <desc>Created with Sketch.</desc>
    <g id="Page-1" stroke="none" stroke-width="1" fill="none" fill-rule="evenodd">
        <g id="Shpadoinkle-Landing-(3/17)" transform="translate(0.000000, -2195.000000)">
            <g id="Group-19" transform="translate(-74.000000, 2195.341774)">
                <path d="M56,32.1494499 C56,32.1494499 155.935005,5.36089933 352.94831,32.1494499 C549.965756,58.9380005 806.936752,54.4734579 998.240787,32.1494499 C1088.81886,21.5795442 1261.98468,10.8630609 1517.73825,4.26325641e-14 L1518,207.658226 L56,207.658226 L56,32.1494499 Z" id="Fill-1" fill="#97EDC3"></path>
                <path d="M0,163.051036 C0,163.051036 230.436965,230.176449 493.518632,193.141681 C756.597516,156.106912 1027.35865,75.0932508 1234.75443,112.128019 C1442.14463,149.162788 1542,211.658226 1542,211.658226 L0,211.658226 L0,163.051036 Z" id="Fill-1" fill="#298781" transform="translate(771.000000, 157.158226) scale(-1, 1) translate(-771.000000, -157.158226) "></path>
            </g>
        </g>
    </g>
</svg>