<?xml version="1.0" encoding="UTF-8"?>
<svg width="328px" height="63px" viewBox="0 0 328 63" version="1.1" xmlns="http://www.w3.org/2000/svg" xmlns:xlink="http://www.w3.org/1999/xlink">
    <!-- Generator: Sketch 63.1 (92452) - https://sketch.com -->
    <title>Group 21</title>
    <desc>Created with Sketch.</desc>
    <defs>
        <polygon id="path-1" points="0 0.0759622404 47.985807 0.0759622404 47.985807 52.3397437 0 52.3397437"></polygon>
    </defs>
    <g id="Page-1" stroke="none" stroke-width="1" fill="none" fill-rule="evenodd">
        <g id="Shpadoinkle-Landing-(3/17)" transform="translate(-130.000000, -2454.000000)">
            <g id="Group-21" transform="translate(130.000000, 2454.000000)">
                <g id="Group-13">
                    <rect id="Rectangle" fill="#97EDC3" x="0" y="0" width="63" height="63" rx="23"></rect>
                    <g id="Vulture-Copy" transform="translate(7.000000, 7.000000)">
                        <circle id="Oval" fill="#FFFFFF" cx="26.2857143" cy="20.5714286" r="5.71428571"></circle>
                        <g id="Group-3">
                            <mask id="mask-2" fill="white">
                                <use xlink:href="#path-1"></use>
                            </mask>
                            <g id="Clip-2"></g>
                            <path d="M44.6424116,11.1881264 C44.613658,11.2485719 44.5858319,11.2884058 44.5343536,11.3268501 C44.4409043,11.3970225 44.3307594,11.4632579 44.271629,11.5584423 C44.1002667,11.8338054 43.855629,12.012363 43.5773681,12.1608136 C43.4774261,12.2140798 43.3904696,12.2916632 43.2970203,12.3574354 C43.2397449,12.3975008 43.1801507,12.4709155 43.123571,12.4690628 C42.9299478,12.4628098 42.8133101,12.6008388 42.6904116,12.6985707 C42.5605565,12.8025556 42.4300058,12.9162673 42.3414261,13.076066 C42.2820638,13.1830615 42.1480348,13.259487 42.0327884,13.3224801 C41.8419478,13.4262334 41.6538899,13.5332289 41.4778899,13.6599099 C41.4129623,13.7064599 41.3552232,13.7638948 41.2877449,13.8065077 C41.171571,13.8796909 41.0827594,13.9950238 40.9206725,13.9998872 C40.8446145,14.0019716 40.7553391,14.0645014 40.6989913,14.124947 C40.5804986,14.2509332 40.4429913,14.3414857 40.2899478,14.4176795 C40.1097739,14.5077689 39.9910493,14.6770628 39.8894841,14.8317664 C39.7640348,15.0235247 39.5963826,15.1242673 39.4067014,15.2159778 C39.3763246,15.2307997 39.3478029,15.2493271 39.3104696,15.2708652 C38.9902377,14.9860068 38.6660638,14.6976745 38.3349333,14.4035524 C38.8258319,13.1216896 39.3144116,11.845385 39.8032232,10.5690804 C39.7867594,10.5584272 39.7700638,10.5480055 39.7536,10.5373523 C39.5379478,10.6864977 39.3090783,10.8201264 39.1112812,10.9898834 C38.9814261,11.1012793 38.8133101,11.1448186 38.6952812,11.2682573 C38.6533101,11.3117966 38.575629,11.330324 38.5501217,11.3789583 C38.4272232,11.6114769 38.1909333,11.7247255 38.0142377,11.8995776 C37.8857739,12.0264901 37.7243826,12.1297802 37.5611362,12.2096795 C37.3352812,12.3196858 37.1734261,12.5126021 36.9570783,12.6307142 C36.9132522,12.7861125 36.7379478,12.7796279 36.6477449,12.8854656 C36.4589913,12.6647582 36.2723246,12.4470615 36.0759188,12.2173221 C35.8305855,12.1589609 35.6559768,12.3129697 35.4883246,12.4866638 C35.3923246,12.4329344 35.3000348,12.3437714 35.1991652,12.3328866 C35.0025275,12.3115801 34.8562087,12.1936997 34.7145275,12.094115 C34.5487304,11.9778558 34.3646145,11.9479804 34.1883826,11.8808186 C33.9789913,11.8009193 33.759629,11.8307947 33.5321507,11.8238469 C33.3385275,11.6128665 33.125658,11.4055914 32.8422957,11.3039225 C32.4705855,11.1702938 32.1053681,11.0234643 31.7190493,10.9220269 C31.367513,10.8293901 31.0203826,10.6911295 30.6762667,10.5575008 C30.2271072,10.3826487 29.8521507,10.0892214 29.427571,9.87963046 C29.4118029,9.87175632 29.3964986,9.86110308 29.3851362,9.84813392 C29.1411942,9.56929692 28.8024116,9.41783562 28.5053681,9.20083373 L28.5053681,8.90879597 C28.5561507,8.87382555 28.6067014,8.8397815 28.6560928,8.8041163 C28.6707014,8.79346306 28.6848464,8.78003071 28.6952812,8.76497722 C28.7599768,8.67164556 28.8174841,8.5725241 28.8886725,8.48451907 C29.0734841,8.25524279 29.1353971,7.97408987 29.2177159,7.70382177 C29.2736,7.52109553 29.2654841,7.3142837 29.3427014,7.14429503 C29.3997449,7.01877206 29.3642667,6.88722769 29.4361507,6.76448383 C29.4938899,6.66559396 29.461658,6.51806973 29.5038609,6.40482115 C29.5838609,6.19059836 29.5845565,5.9610905 29.6562087,5.74594135 C29.691687,5.63917734 29.691687,5.5217601 29.7130203,5.41013266 C29.7881507,5.0171207 29.8739478,4.62827741 29.9901217,4.24522391 C30.0281507,4.11993254 30.0253681,3.98306155 30.0582957,3.85614902 C30.1102377,3.65674814 30.1765565,3.46151592 30.2366145,3.26558892 C30.4981797,3.26558892 30.7483826,3.26072549 30.9981217,3.26813644 C31.0927304,3.27091554 31.1866435,3.30449641 31.2812522,3.32047627 C31.3672812,3.33506658 31.4509913,3.33599295 31.5402667,3.3642472 C31.6599188,3.40222832 31.7999768,3.39481737 31.9312232,3.42932461 C32.1334261,3.48259081 32.3425855,3.50922391 32.5459478,3.55855305 C32.8058899,3.62177772 33.0628174,3.69773996 33.3220638,3.76536488 C33.5650783,3.82882115 33.8094841,3.88625601 34.0520348,3.95017546 C34.2271072,3.9964939 34.397542,4.06851907 34.5751652,4.09468899 C34.8265275,4.13197533 35.0526145,4.27023587 35.3118609,4.26583562 C35.3913971,4.37537873 35.5298319,4.29385828 35.6327884,4.3702837 C35.7160348,4.43211882 35.8470493,4.42748697 35.9544116,4.46083625 C36.299687,4.56806344 36.6192232,4.73573619 36.943629,4.89206092 C37.1597449,4.99697218 37.3800348,5.09516728 37.5889623,5.2130477 C37.9207884,5.39994261 38.2444986,5.60050145 38.571687,5.79550208 C38.9285565,6.00810371 39.299571,6.20078842 39.6383536,6.4388652 C40.0307014,6.7149231 40.4678029,6.91316602 40.8603826,7.18713958 C41.0073971,7.28950334 41.1817739,7.35249641 41.335513,7.44698603 C41.5581217,7.58385702 41.7726145,7.73462354 41.9919768,7.87682115 C42.3122087,8.08432775 42.5981217,8.33768962 42.9060638,8.56001812 C43.3329623,8.86826734 43.7220638,9.21449767 44.0942377,9.58435041 C44.3423536,9.8309961 44.5464116,10.0938532 44.6707014,10.4305883 C44.7699478,10.6987721 44.7722667,10.9167003 44.6424116,11.1881264 M39.3638029,20.4138331 C39.3946435,20.42356 39.3856,20.4356028 39.383513,20.4344448 C39.371687,20.4277286 39.3612522,20.4180018 39.3501217,20.4094329 C39.3524406,20.4075801 39.3542957,20.4052642 39.3566145,20.4031799 C39.1759768,20.3464398 39.037542,20.3022057 38.9069913,20.2456972 C38.6317449,20.1264272 38.3551072,20.0085468 38.0886725,19.8707494 C37.8507594,19.7477739 37.6246725,19.6011761 37.3960348,19.4608312 C37.0261797,19.2331761 36.6623536,18.9960257 36.2883246,18.7760131 C36.1246145,18.6799023 36.0024116,18.5520634 35.9001507,18.3999074 C35.6858899,18.0812365 35.4758029,17.7600181 35.2603826,17.4422736 C35.2265275,17.3920181 35.1734261,17.3549634 35.1180058,17.3010024 C35.0305855,17.4925291 34.9538319,17.6606651 34.8668754,17.8512654 C34.659571,17.7299111 34.4566725,17.6168941 34.259571,17.4946135 C33.9045565,17.2750641 33.5604406,17.0379137 33.1982377,16.8311018 C32.845542,16.6296166 32.5023536,16.4121515 32.1484986,16.2118243 C32.0100638,16.1335461 31.9200928,15.9883378 31.7777159,15.8994064 C31.509658,15.7319653 31.2592232,15.5369646 31.0013681,15.3535436 C30.797542,15.3521541 30.7244986,15.1469634 30.5612522,15.0730855 C30.3653101,14.9848488 30.1881507,14.8549256 30.0017159,14.7446877 C29.5511652,14.4783567 29.0778899,14.2551018 28.6122667,14.007993 C28.7511652,14.0107721 28.8824116,13.96538 29.0289623,14.0387947 C29.1314551,14.0899766 29.2791652,14.0188778 29.3909333,14.1041037 C29.6091362,14.0858079 29.7925565,14.2187419 30.0007884,14.2439854 C30.0346435,14.2481541 30.0671072,14.2666814 30.1009623,14.2701553 C30.315687,14.2903038 30.5350493,14.2865984 30.7446725,14.3303693 C31.2682667,14.4403756 31.8002087,14.5265279 32.2869333,14.7701629 C32.4019478,14.8275977 32.5290203,14.8616418 32.6340638,14.9385304 C32.7270493,15.0066185 32.8362667,15.0316305 32.9413101,15.0705379 C33.3529043,15.2233888 33.7297159,15.4496544 34.1253101,15.6377072 C34.4585275,15.7958847 34.7546435,16.0082548 35.0514551,16.2247935 C35.2724406,16.3862132 35.5071072,16.528874 35.7100058,16.7153057 C35.7406145,16.74356 35.7890783,16.7521289 35.8217739,16.7792252 C35.9511652,16.8862208 36.0462377,17.0219338 36.2250203,17.0840005 C36.3678609,17.1333296 36.4701217,17.2901176 36.6025275,17.3811333 C36.863629,17.5610804 37.125658,17.7384801 37.373542,17.9369546 C37.5184696,18.0527507 37.659687,18.1808211 37.8229333,18.2634996 C37.9108174,18.3077337 37.9859478,18.3630842 38.0265275,18.4318671 C38.1308754,18.6094983 38.2918029,18.7296947 38.4253681,18.8774505 C38.6085565,19.0798621 38.821658,19.2623567 38.9686725,19.4881591 C39.1428174,19.7558797 39.3042087,20.041896 39.3605565,20.3990112 C39.3651942,20.3943794 39.3700638,20.3895159 39.3749333,20.3848841 C39.383513,20.3957689 39.3923246,20.4064222 39.4011362,20.417307 C39.3872232,20.4126751 39.3751652,20.4089697 39.3619478,20.404801 C39.3621797,20.4080433 39.3633391,20.4105908 39.3638029,20.4138331 M33.3297159,22.7056695 C33.213542,22.7619464 33.2353391,22.6533296 33.2084406,22.6137274 C33.0679188,22.4045996 32.925542,22.1957035 32.7968464,21.9791648 C32.7078029,21.8286298 32.6976,21.6616519 32.757658,21.4935159 C32.7692522,21.4608614 32.7824696,21.4263542 32.7820058,21.3927733 C32.7778319,21.0384373 32.8789333,20.689891 32.8397449,20.3334706 C32.8381217,20.3181855 32.8497159,20.3012793 32.8671072,20.2498658 C33.1159188,20.4205493 33.3457159,20.5784952 33.5530203,20.7204612 C33.4472812,21.4025002 33.3920928,22.0572113 33.3297159,22.7056695 M33.1722667,23.4958621 C33.155571,23.5720559 33.1347014,23.6470918 33.1173101,23.7228224 C33.0897159,23.8434819 33.0468174,23.9595096 33.0570203,24.0889697 C33.0614261,24.1426991 33.0289623,24.2077765 32.9953391,24.2552529 C32.8327884,24.4842975 32.803571,24.7691559 32.6730203,25.0111698 C32.6366145,25.0785631 32.6143536,25.1533674 32.5844406,25.224003 C32.5508174,25.3034391 32.4928464,25.3719904 32.5014261,25.4692592 C32.5044406,25.5060823 32.4682667,25.5463794 32.4490203,25.5848237 C32.2848464,25.9148425 32.1171942,26.2434719 31.9581217,26.5758067 C31.9214841,26.6522321 31.9145275,26.7501956 31.8843826,26.8229155 C31.7758609,27.0834568 31.6453101,27.3370502 31.4999188,27.5795272 C31.3958029,27.7529898 31.251571,27.9021352 31.1312232,28.0667972 C30.9239188,28.3500345 30.7238029,28.6383668 30.5058319,28.9139615 C30.3692522,29.0869609 30.2442667,29.2687607 30.1111652,29.4445392 C30.0513391,29.5235121 29.9847884,29.5971585 29.9258899,29.6677941 L29.4159768,29.6677941 C29.3689043,29.7145757 29.3229913,29.7601994 29.2810203,29.801886 C29.311629,30.0510792 29.5407304,30.2701654 29.3784116,30.5742459 C29.3139478,30.5098633 29.269658,30.4570603 29.2172522,30.4146789 C28.8522667,30.1203252 28.5480348,29.7601994 28.1930203,29.4586663 C27.9411942,29.2446751 27.727629,28.9924712 27.4718609,28.7877437 C27.1789913,28.5533724 26.9294841,28.2678193 26.6011362,28.0755977 C26.3038609,27.9014404 26.0191072,27.7129244 25.6865855,27.5968967 C25.495513,27.5301981 25.3014261,27.4282975 25.159513,27.2555298 C25.0382377,27.1077739 24.8907594,26.9813246 24.7407304,26.831716 C24.7358609,26.821526 24.7272812,26.8104096 24.7187014,26.7992931 C24.7302957,26.7960508 24.7497739,26.7867872 24.7523246,26.790261 C24.7611362,26.8018407 24.7639188,26.8178205 24.7692522,26.8324108 L24.7444406,26.8324108 C24.8844986,26.8349583 24.9960348,26.8305581 25.1101217,26.8824347 C25.2019478,26.9238897 25.3125565,26.893088 25.4222377,26.9322271 C25.5534841,26.9797035 25.7151072,26.9380169 25.8630493,26.9454278 C25.9769043,26.950986 26.0974841,26.9074467 26.2043826,26.9956833 C26.2317449,27.0183794 26.3101217,27.0183794 26.3377159,26.9956833 C26.435571,26.9139313 26.5457159,26.9493649 26.6512232,26.9445014 C26.8160928,26.9368589 26.9925565,26.9699766 27.1432812,26.9215738 C27.2882087,26.8747922 27.4363826,26.8886877 27.581542,26.8430641 C27.7273971,26.7972088 27.8827594,26.7525115 28.0337159,26.7284259 C28.3813101,26.672149 28.6860058,26.5121188 29.0067014,26.3884486 C29.4382377,26.2221654 29.8073971,25.9472654 30.1985855,25.7110414 C30.3432812,25.6239627 30.4606145,25.4921868 30.5909333,25.3812541 C30.6860058,25.3004284 30.7534841,25.1906537 30.8805565,25.1408614 C30.9438609,25.1160811 31.007629,25.0496141 31.0347594,24.9863894 C31.0723246,24.898616 31.131687,24.8360861 31.1977739,24.7765669 C31.4588754,24.540806 31.6443826,24.244368 31.8319768,23.9544146 C32.0040348,23.6885468 32.133658,23.395351 32.2825275,23.1144297 C32.3029333,23.0759854 32.3279768,23.039857 32.3544116,22.9965493 C32.6486725,23.0739011 32.9385275,23.1500949 33.2269913,23.2260571 C33.2065855,23.3272629 33.1908174,23.4117941 33.1722667,23.4958621 M24.2465855,24.4984247 C23.9307594,24.3557639 23.6123826,24.2001339 23.3526725,23.9815109 C23.0802087,23.7522346 22.7787594,23.5484335 22.5705275,23.2355524 C22.4353391,23.0322145 22.2853101,22.8346663 22.1431652,22.6331811 C21.915687,22.31011 21.7744696,21.9532264 21.6527304,21.5845317 C21.5673971,21.3265379 21.5298319,21.0588174 21.4741797,20.7945707 C21.4027594,20.4552881 21.4593391,20.1215638 21.4301217,19.7873762 C21.5210203,19.5400357 21.4489043,19.2574933 21.5970783,19.0228904 C21.6397449,18.6287205 21.8134261,18.2787846 21.9912812,17.9362598 C22.1401507,17.6490855 22.3142957,17.372796 22.5401507,17.134256 C22.6257159,17.0434719 22.6885565,16.9304549 22.7787594,16.8456921 C23.2362667,16.4156254 23.7410783,16.0524889 24.3212522,15.8044536 C24.5825855,15.6925946 24.8483246,15.5948627 25.1323826,15.5439124 C25.3028174,15.5133422 25.471629,15.4589181 25.6439188,15.4417802 C25.8185275,15.4246424 25.9959188,15.4380748 26.1721507,15.4380748 C26.2741797,15.4380748 26.3764406,15.4434014 26.4782377,15.4371484 C26.7764406,15.418621 27.0628174,15.4996783 27.3487304,15.5552604 C27.7823536,15.6400232 28.539687,16.006402 28.9137159,16.2725014 C29.1905855,16.4695864 29.4159768,16.723643 29.6594551,16.9577828 C29.9370203,17.2250402 30.1573101,17.5325946 30.3358609,17.8730351 C30.4397449,18.0715096 30.5531362,18.2655839 30.6707014,18.4566475 C30.7052522,18.5126928 30.7221797,18.563643 30.7265855,18.6291836 C30.7360928,18.7609596 30.7242667,18.9152 30.7891942,19.0171006 C30.8684986,19.1414656 30.7734261,19.2943164 30.8909913,19.3939011 C30.9093101,19.5898281 30.935513,19.7855235 30.9445565,19.9821452 C30.9538319,20.1854832 30.959629,20.3904423 30.9422377,20.5928539 C30.9292522,20.7424624 30.8805565,20.8879023 30.8886725,21.0426059 C30.8965565,21.1931408 30.8158609,21.331633 30.7660058,21.4636405 C30.7240348,21.5759627 30.7284406,21.6764738 30.7291362,21.7790691 C30.7300638,21.8747167 30.7003826,21.959711 30.6572522,22.0287255 C30.559629,22.1852818 30.4351072,22.3253951 30.3286725,22.4773196 C30.2799768,22.5472604 30.2558609,22.6341075 30.207629,22.7042799 C30.1079188,22.8497198 30.0105275,22.9990968 29.8920348,23.1285568 C29.7158029,23.3203152 29.5648464,23.5310641 29.3988174,23.7297702 C29.2042667,23.9627519 28.9413101,24.1204662 28.6813681,24.274475 C28.5781797,24.3356154 28.4682667,24.3861025 28.3606725,24.4400634 C28.1517449,24.5449747 27.9205565,24.5848086 27.701658,24.6616972 C27.4639768,24.745302 27.223513,24.8150112 26.9663536,24.8425707 C26.8170203,24.8583189 26.6563246,24.8499816 26.517658,24.8944473 C26.245658,24.981526 25.9738899,24.9178381 25.7039768,24.9428501 C25.6297739,24.9495663 25.5599768,24.9419237 25.5043246,24.8868048 C25.3918609,24.7751773 25.2172522,24.8879627 25.1052522,24.7758721 C24.7952232,24.75665 24.5227594,24.6230213 24.2465855,24.4984247 M18.3708754,25.6945984 C18.3903536,25.6193309 18.421658,25.5526323 18.4225855,25.4859338 C18.4274551,25.1075121 18.4249043,24.7290905 18.4249043,24.3550691 C18.1883826,24.2304725 17.9613681,24.1102761 17.7134841,24.0324612 C17.6504116,24.0127758 17.5701797,23.9875323 17.5820058,23.8687255 C17.5889623,23.7955424 17.5168464,23.7144851 17.4785855,23.6378281 C17.3978899,23.4761767 17.4097159,23.3008614 17.4266435,23.1331887 C17.4718609,22.6848262 17.267571,22.3138155 17.0618899,21.9497525 C16.9283246,21.7128337 16.7813101,21.4773045 16.5765565,21.2876305 C16.5533681,21.266324 16.5473391,21.2264901 16.5324986,21.1956884 C16.4659478,21.0560383 16.3989333,20.9168514 16.3161507,20.7445468 C16.3263536,20.6880383 16.3891942,20.6558469 16.4842667,20.6618683 C16.5582377,20.6665002 16.6331362,20.6685845 16.7066435,20.6611736 C16.783629,20.653531 16.859687,20.6338457 16.9631072,20.6141604 C16.9811942,20.6475096 17.0050783,20.7014706 17.0377739,20.7491786 C17.2007884,20.987487 17.331571,21.247565 17.5268174,21.4645669 C17.5778319,21.5210754 17.6334841,21.5947217 17.6409043,21.6648941 C17.6668754,21.912003 17.7832812,22.1257626 17.8702377,22.3494807 C17.9571942,22.572504 18.0374261,22.7987695 18.1450203,23.0136871 C18.1909333,23.105166 18.2087884,23.2116984 18.2604986,23.2987771 C18.3625275,23.4710817 18.5072232,23.6230062 18.5818899,23.8050376 C18.6449623,23.959278 18.7926725,24.1225505 18.6514551,24.3180143 C18.6266435,24.3527532 18.6417159,24.427789 18.6577159,24.4780446 C18.7500058,24.7677664 18.8100638,25.0667519 18.8606145,25.3638847 C18.8928464,25.5519376 18.9376,25.7367481 18.9951072,25.9864045 C18.765542,25.8409646 18.5243826,25.8604184 18.3708754,25.6945984 M13.2705855,23.7235172 C13.0563246,23.7100848 12.8631652,23.6535763 12.6679188,23.5637186 C12.4478609,23.461818 12.2078609,23.4185103 11.9643826,23.3779816 C11.5442087,23.3078092 11.1251942,23.3513485 10.7066435,23.3288841 C10.5241507,23.3189256 10.3574261,23.3742761 10.1853681,23.4148048 C10.1079188,23.4331006 10.0223536,23.4525543 9.94675942,23.4384272 C9.61655652,23.3772868 9.24044058,23.366402 8.89933913,23.421521 C8.88125217,23.4245317 8.86015072,23.402762 8.84044058,23.4029936 C8.73470145,23.4034568 8.62873043,23.4046147 8.5229913,23.4110993 C8.48055652,23.4138784 8.43951304,23.4347217 8.39707826,23.4407431 C8.36067246,23.4460697 8.32287536,23.4437538 8.2860058,23.4414379 C7.62444058,23.4022988 6.96774493,23.5262006 6.30617971,23.5004939 C6.21273043,23.4967884 6.11812174,23.5359275 6.02351304,23.5526021 C5.93725217,23.5676556 5.84009275,23.5180949 5.76496232,23.6035524 C5.75267246,23.6179111 5.71232464,23.6084159 5.68496232,23.6084159 C5.54583188,23.608879 5.40623768,23.6010049 5.2678029,23.6109634 C5.16067246,23.6186059 5.05122319,23.641302 4.92415072,23.6635348 C4.91673043,23.6723353 4.90861449,23.6797463 4.90142609,23.6890099 L4.90142609,23.6674719 C4.89609275,23.6683982 4.89168696,23.6693246 4.88635362,23.6700194 C4.88125217,23.6716405 4.87661449,23.6737249 4.87197681,23.6758092 C4.88728116,23.6975789 4.87893333,23.706611 4.86849855,23.7147167 C4.86502029,23.7029055 4.85574493,23.6836833 4.85922319,23.6809042 C4.86270145,23.6783567 4.8678029,23.6776619 4.87197681,23.6758092 C4.87104928,23.6746512 4.87197681,23.674188 4.87081739,23.6727985 C4.87661449,23.6718721 4.88078841,23.6709458 4.88635362,23.6700194 C4.89168696,23.6686298 4.89632464,23.6660823 4.90142609,23.6642296 L4.90142609,23.6674719 C4.90931014,23.6660823 4.91626667,23.6649244 4.92415072,23.6635348 C5.29817971,23.2121616 5.78652754,23.0051182 6.29203478,22.8318872 C6.5362087,22.748514 6.79313623,22.6991849 7.03174493,22.602611 C7.21887536,22.5271119 7.41667246,22.5069634 7.60565797,22.4453598 C7.7869913,22.3865354 7.98316522,22.3744926 8.1651942,22.317521 C8.37296232,22.252212 8.58931014,22.2302107 8.79707826,22.1651333 C9.15232464,22.053969 9.52588986,22.0162195 9.88067246,21.8948652 C10.0508754,21.8367356 10.2380058,21.8244612 10.4160928,21.7786059 C10.735629,21.6966223 11.0637449,21.6496091 11.3802667,21.5534983 C11.4029913,21.5465505 11.431513,21.5581301 11.4790493,21.5636884 C11.4062377,21.7526676 11.237658,21.8420622 11.1254261,21.9768488 C11.0162087,22.1083932 10.9021217,22.2360005 10.7919768,22.3670817 C10.677658,22.5027947 10.5654261,22.6405921 10.4592232,22.7691257 C10.469658,22.7957588 10.471513,22.8047909 10.4761507,22.8115071 C10.4812522,22.8189181 10.4891362,22.8298029 10.4958609,22.8298029 C11.3860638,22.8302661 12.2758029,22.8302661 13.1643826,22.8302661 C13.373542,23.1042396 13.5820058,23.3772868 13.7911652,23.6510288 C13.6204986,23.6637664 13.4547014,23.7350968 13.2705855,23.7235172 M47.8702377,9.90649515 C47.7941797,9.65984947 47.7371362,9.40463486 47.6242087,9.17443222 C47.4720928,8.8634039 47.2947014,8.56650271 47.0950493,8.27863361 C46.8921507,7.98659585 46.6713971,7.71030636 46.4439188,7.44119622 C46.2171362,7.17324405 45.9532522,6.93632524 45.7000348,6.69176388 C45.5701797,6.56670409 45.4329043,6.44789729 45.2900638,6.33858578 C45.1017739,6.19430384 44.9044406,6.0618331 44.7112812,5.92426734 C44.4821797,5.76053166 44.2567884,5.59193254 44.023513,5.43468143 C43.8002087,5.28391492 43.5585855,5.15862354 43.343629,4.99766696 C42.9793391,4.72485135 42.597658,4.48144795 42.2046145,4.25286646 C41.9511652,4.10534223 41.7227594,3.91358389 41.4382377,3.82002064 C41.4143536,3.81191492 41.4004406,3.77949201 41.3781797,3.76328055 C41.2497159,3.67064368 41.1263536,3.56966948 40.9902377,3.49046495 C40.8047304,3.38231139 40.5944116,3.31213896 40.4214261,3.18870031 C40.0385855,2.91518993 39.611687,2.72250522 39.2098319,2.48442845 C38.8538899,2.27321636 38.4680348,2.12013392 38.1158029,1.89988974 C37.7125565,1.64768584 37.2416,1.54972234 36.8033391,1.37625979 C36.747687,1.35402694 36.6892522,1.32322517 36.6319768,1.32276199 C36.4082087,1.32137244 36.2111072,1.17639572 35.9827014,1.20858704 C35.7684406,1.09858074 35.5261217,1.10506532 35.2986435,1.04971479 C35.1551072,1.01474437 35.013658,0.96865752 34.8710493,0.939940088 C34.4369623,0.85262983 34.0518029,0.586298804 33.5929043,0.597646822 C33.5263536,0.484166646 33.3849043,0.588151542 33.3011942,0.489724858 C33.2186435,0.392687728 33.0746435,0.461007426 32.9714551,0.418626054 C32.8307014,0.361191189 32.6825275,0.354243424 32.5387594,0.323210069 C32.3827014,0.289166016 32.2213101,0.281060289 32.061542,0.265080428 C32.0065855,0.259522215 31.9333101,0.286850094 31.8978319,0.2599854 C31.7767884,0.168738074 31.6293101,0.247942605 31.5098899,0.185644305 C31.3781797,0.116861422 31.2399768,0.170590812 31.1061797,0.153221397 C31.0792812,0.149747514 31.0449623,0.159474386 31.0259478,0.146042039 C30.8736,0.0413623663 30.6934261,0.0759519909 30.5473391,0.108524103 C30.339571,0.15461095 30.1510493,0.181244053 29.9497739,0.100881561 C29.893658,0.0784171177 29.7997449,0.0710061674 29.7605565,0.102734298 C29.6761507,0.171285588 29.5884986,0.145578855 29.5010783,0.152526621 C29.4303536,0.157853241 29.3677449,0.155768911 29.2970203,0.201855758 C29.2223536,0.250258527 29.1087304,0.234047074 29.0194551,0.266701573 C28.8504116,0.327841913 28.6690783,0.339653115 28.5181217,0.476987288 C28.4221217,0.564297546 28.2978319,0.673840654 28.1714551,0.697694651 C28.029542,0.724790938 27.9363246,0.815343486 27.9006145,0.902653744 C27.8282667,1.07982177 27.6960928,1.19330195 27.5769043,1.32507791 C27.5365565,1.36954361 27.5054841,1.42419937 27.4781217,1.47839194 C27.3707594,1.69307791 27.1873391,1.87649893 27.2010203,2.14190359 C27.2012522,2.14838817 27.1850203,2.15394638 27.1827014,2.16182052 C27.1198609,2.37673807 27.0319768,2.58841334 27.003687,2.80773115 C26.9821217,2.97494072 26.9932522,3.15164556 26.9218319,3.30426482 C26.8467014,3.46406344 26.8462377,3.63868395 26.7824696,3.80218804 C26.717542,3.96777646 26.6319768,4.13984947 26.6141217,4.3137752 C26.5886145,4.56389478 26.517658,4.81123524 26.5464116,5.06853417 C26.5600928,5.18988848 26.5647304,5.31379031 26.4998029,5.43699736 C26.4531942,5.52569717 26.4358029,5.64265123 26.4432232,5.74408861 C26.4580638,5.94765815 26.4126145,6.1301528 26.317542,6.30593128 C26.2973681,6.34321762 26.2816,6.38467262 26.2727884,6.42612763 C26.2509913,6.52872297 26.2533101,6.64150837 26.2094841,6.73298729 C26.1811942,6.79227489 26.1842087,6.86707917 26.1536,6.90204959 C26.0947014,6.96967451 26.1308754,7.04772108 26.1009623,7.10492435 C26.0147014,7.26935481 25.9947594,7.45439698 25.9548754,7.62623839 C25.9080348,7.82888156 25.8085565,8.02735607 25.8287304,8.24204204 C25.8458899,8.42754739 25.7825855,8.59429377 25.7009623,8.74529188 C25.6341797,8.86896211 25.5887304,8.98545299 25.6044986,9.12278716 C25.6274551,9.31778779 25.5588174,9.46948068 25.4138899,9.60125664 C25.303513,9.70199924 25.2209623,9.82821699 25.1977739,9.97296211 C25.0934261,9.94192876 24.9886145,9.88518867 24.883571,9.88495708 C24.6363826,9.8844939 24.4492522,9.77471919 24.2632812,9.6290477 C23.8980638,9.34256816 23.487629,9.15752599 23.0131942,9.15937873 C22.8694261,9.15984191 22.7548754,9.11630258 22.6521507,9.01903386 C22.6022957,8.97155746 22.5427014,8.9257022 22.4789333,8.9020798 C22.2774261,8.82681233 22.0668754,8.77586205 21.8598029,8.72004833 C21.6360348,8.65960277 21.3988174,8.63435922 21.1613681,8.65473933 C21.1022377,8.65960277 21.0407884,8.63412763 20.9802667,8.62486394 C20.7743536,8.59359899 20.5679768,8.56997659 20.3650783,8.6378331 C20.2746435,8.66817168 20.1693681,8.6438545 20.0900638,8.71263738 C19.925658,8.59869402 19.805542,8.75687149 19.6638609,8.78142026 C19.5467594,8.94307162 19.3526725,8.96646243 19.1922087,9.05145677 C19.0667594,9.11815532 18.9454841,9.12070283 18.8297739,9.08387967 C18.5760928,9.00259081 18.315687,9.02991869 18.0678029,9.05585702 C17.7083826,9.09360654 17.5296,9.11838691 17.1662377,9.04890925 C17.077658,9.03177143 16.9600928,9.0148652 16.8951652,9.05770975 C16.7776,9.13506155 16.6482087,9.12417671 16.5531362,9.09221699 C16.3722667,9.03200302 16.1951072,9.05608861 16.0165565,9.04705651 C15.9548754,9.04381422 15.8992232,9.04705651 15.8373101,9.08851152 C15.7997449,9.11352347 15.7113971,9.0505304 15.6453101,9.04844607 C15.4412522,9.04196149 15.2358029,9.03061347 15.0336,9.0505304 C14.8297739,9.07067892 14.6424116,8.99054802 14.4441507,8.99054802 L11.9400348,8.99054802 L11.7860638,8.99054802 C11.9481507,9.13390359 12.067571,9.19180164 12.3282087,9.26869025 C12.765542,9.3976871 13.1882667,9.57022329 13.6318609,9.6825455 C13.9061797,9.75225475 14.171687,9.8576292 14.4416,9.94470787 C14.6011362,9.99635293 14.7743536,10.0324813 14.9202087,10.1304448 C15.2817159,10.3731534 15.6462377,10.6109986 16.0126145,10.8460647 C16.5552232,11.194611 17.0862377,11.5619162 17.6353391,11.9014303 C17.7399188,11.9662761 17.8530783,12.041312 17.9193971,12.1399703 C18.1153391,12.4329344 18.3782957,12.617745 18.7122087,12.7161717 C18.8434551,12.7548476 18.9823536,12.7905128 19.0957449,12.8623064 C19.4938899,13.1149734 19.8820638,13.3833888 20.2748754,13.6441616 C20.3980058,13.7261452 20.515571,13.8324461 20.6519188,13.8734379 C20.7882667,13.9144297 20.8926145,13.9776544 20.9763246,14.0686701 C20.8378899,14.2824297 20.6809043,14.4762724 20.4569043,14.6052692 C20.3884986,14.6446399 20.3078029,14.6830842 20.2672232,14.7446877 C20.2020638,14.8438092 20.133658,14.7629835 20.0722087,14.7773422 C20.0348754,14.7859111 19.9829333,14.8604838 19.9882667,14.8984649 C20.0107594,15.0626638 19.887629,15.1571534 19.7897739,15.2004612 C19.6054261,15.2822132 19.4493681,15.4058834 19.2717449,15.4936569 C19.0254841,15.6150112 18.797542,15.7618407 18.5997449,15.9552201 C18.5241507,16.0293296 18.4337159,16.0886172 18.3486145,16.1527683 C18.2853101,16.2004763 18.2182957,16.2426261 18.1559188,16.2912604 C18.0645565,16.3623592 17.9762087,16.4411006 17.8906435,16.5149785 C17.7204406,16.6620395 17.5458319,16.8109533 17.4176,17.0075751 C17.3357449,17.1326349 17.2084406,17.2343038 17.0853101,17.3241616 C16.9723826,17.4066084 16.8239768,17.4200408 16.6883246,17.4350943 C16.4742957,17.4587167 16.2602667,17.4404209 16.0422957,17.4853498 C15.7941797,17.5365317 15.5418899,17.5566802 15.3146435,17.68174 C15.2849623,17.6979514 15.2508754,17.7141629 15.2181797,17.7155524 C15.0662957,17.720879 14.9181217,17.7308375 14.7664696,17.7641868 C14.603687,17.7996204 14.4385855,17.8447809 14.2621217,17.8357488 C14.1498899,17.8301906 14.0406725,17.7991572 13.9177739,17.8179162 C13.7062957,17.8498759 13.4945855,17.924217 13.2742957,17.8843831 C13.2473971,17.8795197 13.2082087,17.8716456 13.1926725,17.8855411 C13.0781217,17.9876733 12.9199768,17.8894782 12.8089043,17.96683 C12.6797449,18.0566877 12.533658,18.0244964 12.3991652,18.0569193 C12.2018319,18.1048589 12.0093681,18.162757 11.803687,18.1634517 C11.7626435,18.1634517 11.7209043,18.1849898 11.6807884,18.2000433 C11.4611942,18.2820269 11.231629,18.3299665 11.0043826,18.3781377 C10.8497159,18.4107922 10.6857739,18.3799904 10.5264696,18.4360357 C10.3240348,18.5071346 10.1109333,18.5416418 9.91012174,18.6273309 C9.71046957,18.7123252 9.50571594,18.8012566 9.27475942,18.7757815 C9.19870145,18.7674442 9.10617971,18.7401163 9.04751304,18.8283529 C8.90258551,18.8223315 8.78687536,18.9302535 8.64844058,18.9374329 C8.39151304,18.9506336 8.15290435,19.0326172 7.91035362,19.1051056 C7.7260058,19.1602245 7.55209275,19.2489244 7.34386087,19.2250704 C7.2518029,19.2146487 7.15278841,19.2982535 7.05284638,19.3167809 C6.87267246,19.3501301 6.71267246,19.4550414 6.51858551,19.4457777 C6.44067246,19.4420722 6.36067246,19.5057601 6.2802087,19.5351723 C6.20762899,19.5615738 6.13249855,19.5812592 6.05945507,19.6071975 C5.78444058,19.7037714 5.49157101,19.7095612 5.21075942,19.7751018 C5.01806377,19.8200307 4.83533913,19.8992352 4.66049855,19.9900194 C4.53713623,20.0539388 4.43464348,20.1815461 4.30757101,20.207716 C4.15128116,20.2403705 4.06478841,20.382105 3.91244058,20.4015587 C3.88878841,20.4045694 3.86931014,20.4328237 3.8451942,20.4395398 C3.57296232,20.5141125 3.36728116,20.6938281 3.16345507,20.8735436 C3.11267246,20.9187041 3.09435362,21.0023089 3.04171594,21.0426059 C2.84646957,21.1908249 2.61041159,21.2920307 2.49910725,21.5328866 C2.49562899,21.5405291 2.48728116,21.5495612 2.4793971,21.551414 C2.31035362,21.5914794 2.23151304,21.7346034 2.18096232,21.8686953 C2.10954203,22.0586009 1.98015072,22.2017249 1.82942609,22.3017727 C1.58177391,22.4664347 1.41945507,22.6903844 1.26641159,22.9307771 C1.23812174,22.9750112 1.17551304,23.0176242 1.1776,23.058616 C1.18687536,23.2397211 1.07788986,23.3802975 0.996962319,23.5123051 C0.861310145,23.7341704 0.674411594,23.9245392 0.616208696,24.1901755 C0.396150725,24.4240836 0.320788406,24.7348803 0.191397101,25.0151069 C0.143165217,25.1193233 0.0921507246,25.2409093 0.112556522,25.3729168 C0.124382609,25.4498054 0.123918841,25.5285468 0.0629333333,25.6021931 C0.00728115942,25.6695864 -0.00477681159,25.7603705 0.00148405797,25.854397 C0.0109913043,26.0021528 0.00403478261,26.1506034 0.00403478261,26.299054 C0.00403478261,26.447273 0.0133101449,26.5959552 0.00125217391,26.7432478 C-0.00964637681,26.8771081 0.152672464,27.0074945 0.0068173913,27.1408916 C0.0979478261,27.3046273 0.0796289855,27.4956909 0.139686957,27.6691534 C0.18444058,27.7990767 0.252150725,27.9364108 0.22386087,28.0776821 C0.151744928,28.4373447 0.142469565,28.5251182 0.255165217,28.8312831 C0.349773913,29.0878872 0.442527536,29.3491232 0.573310145,29.5878948 C0.711281159,29.8396355 0.779918841,30.114767 0.894469565,30.3729923 C0.988382609,30.584436 1.08252754,30.7958797 1.18548406,31.0270087 C1.29446957,30.9355298 1.3842087,30.8641994 1.46861449,30.7873108 C1.5442087,30.7187595 1.61238261,30.6425656 1.68612174,30.5721616 C1.79046957,30.4730402 1.88832464,30.4718822 1.99012174,30.5677614 C2.0576,30.630986 2.11371594,30.709959 2.18861449,30.7618356 C2.50629565,30.9811534 2.77365797,31.2604536 3.0802087,31.4932038 C3.26641159,31.6342434 3.43429565,31.7993687 3.61423768,31.9573145 C3.64275942,31.938324 3.6691942,31.9281339 3.68403478,31.9089118 C3.70490435,31.8820471 3.7202087,31.8500874 3.73203478,31.8181276 C3.77075942,31.7136795 3.8060058,31.6078419 3.84426667,31.5031622 C3.91777391,31.3021402 3.99174493,31.1011182 4.06687536,30.9005593 C4.17748406,30.6036581 4.28971594,30.3074517 4.40032464,30.0103189 C4.43904928,29.9058709 4.47591884,29.800728 4.51162899,29.695122 C4.55012174,29.5814102 4.61087536,29.46793 4.6162087,29.3521339 C4.62177391,29.2333271 4.66188986,29.1265631 4.6758029,29.0137777 C4.69504928,28.8546739 4.67812174,28.6969596 4.72565797,28.5341503 C4.76925217,28.3854681 4.75093333,28.2189533 4.78223768,28.0582283 C4.83278841,27.7986135 4.92554203,27.6063919 5.18525217,27.4943013 C5.42432464,27.391706 5.6691942,27.2823945 5.84751304,27.0802145 C6.02281739,26.8819716 6.26328116,26.832874 6.50212174,26.778913 C6.55290435,26.7673334 6.61435362,26.7715021 6.66351304,26.7891031 C6.76786087,26.8268526 6.86733913,26.8787293 6.96913623,26.9241213 C7.33690435,27.0880886 7.70096232,27.2615512 8.07429565,27.4120861 C8.34931014,27.5227872 8.63035362,27.6302459 8.93806377,27.6110238 C8.99325217,27.6075499 9.05794783,27.5931912 9.10293333,27.6151924 C9.29377391,27.7080609 9.50988986,27.7145455 9.6998029,27.787497 C9.89829565,27.8634593 10.1056,27.8928715 10.3047884,27.9308526 C10.511629,27.9704549 10.7272812,28.0343743 10.9468754,28.0003303 C10.9742377,27.99593 11.0108754,27.9882875 11.0289623,28.0014882 C11.1525565,28.091346 11.2947014,28.0640181 11.4240928,28.049891 C11.5750493,28.0329848 11.7032812,28.1082522 11.8468174,28.1126525 C12.043687,28.1189055 12.2400928,28.0885669 12.4385855,28.1587393 C12.5538319,28.1997312 12.6959768,28.1589709 12.8253681,28.1682346 C12.9480348,28.1772667 13.0709333,28.2245115 13.1917449,28.2177953 C13.4846145,28.2015839 13.7661217,28.3199275 14.0592232,28.2780093 C14.0770783,28.2752302 14.1049043,28.2715247 14.1125565,28.2807884 C14.1849043,28.3699514 14.2841507,28.3183064 14.3699478,28.3333598 C14.4645565,28.3502661 14.5580058,28.376436 14.6530783,28.3875524 C14.8490203,28.4100169 15.0523826,28.4016795 15.2399768,28.4526298 C15.3649623,28.4864423 15.4906435,28.4734731 15.6068174,28.505896 C15.7394551,28.5429508 15.8683826,28.5589306 16.0028754,28.5554568 C16.0214261,28.5549936 16.0443826,28.5482774 16.0578319,28.5563831 C16.2159768,28.6522623 16.4000928,28.6346613 16.5700638,28.6589785 C16.8054261,28.6925593 17.0359188,28.7335512 17.2608464,28.8099766 C17.8519188,29.0112302 18.4460058,29.1983567 19.0686145,29.2865933 C19.1787594,29.3025732 19.2967884,29.3109105 19.4048464,29.3433334 C19.5917449,29.3996103 19.7825855,29.4331912 19.9748174,29.4415285 C20.2523826,29.4535713 20.5311072,29.4477815 20.8093681,29.4429181 C20.8958609,29.4412969 20.9951072,29.4818256 21.0656,29.3919678 C21.3002667,29.4121163 21.5344696,29.2384222 21.7696,29.3891887 C22.1491942,29.4436128 22.5039768,29.5777047 22.8531942,29.7284712 C23.0027594,29.7928539 23.1398029,29.9007758 23.2944696,29.9352831 C23.4700058,29.9746537 23.6079768,30.0774807 23.7672812,30.1409369 C23.9342377,30.2074039 24.0965565,30.2856821 24.2625855,30.3551597 C24.3942957,30.4102787 24.4494841,30.5098633 24.4970203,30.643492 C24.5793391,30.8769369 24.5992812,31.1333095 24.7667014,31.3385002 C24.9174261,31.5235424 25.0284986,31.7382283 25.2569043,31.855414 C25.3839768,31.9204914 25.4904116,32.0260974 25.6126145,32.1182711 C25.5711072,32.1689898 25.5031652,32.2139187 25.4982957,32.2651006 C25.4864696,32.3899288 25.3999768,32.4682069 25.3533681,32.5684863 C25.2884406,32.7085996 25.1984696,32.8343542 25.1379478,32.9790993 C25.0649043,33.153025 25.1799188,33.3454782 25.0486725,33.4985606 C25.0393971,33.5092138 25.0454261,33.534689 25.0482087,33.5529848 C25.0505275,33.5696594 25.053542,33.5905027 25.0644406,33.6009244 C25.1386435,33.6717916 25.0869333,33.7514593 25.1022377,33.8116733 C24.949658,33.8614656 24.8186435,33.9043101 24.687629,33.9466915 C24.6083246,34.1361339 24.3998609,33.9990313 24.2850783,34.1071849 C24.2407884,34.0490553 24.1967304,33.9911572 24.1431652,33.9207532 C24.0930783,34.0201062 24.0552812,34.0953737 24.0318609,34.1419237 C23.6360348,34.265594 23.2921507,34.0205694 22.9197449,34.0580874 C22.8003246,33.9557236 22.6570203,34.0085266 22.5253101,34.0059791 C22.3817739,34.0032 22.3040928,34.1419237 22.3509333,34.2834266 C22.4346435,34.5358621 22.5127884,34.7906135 22.5997449,35.041891 C22.695513,35.3193385 22.7581217,35.6062812 22.8464696,35.8851182 C22.9744696,36.2892466 23.1571942,36.6692894 23.4118029,37.0129722 C23.4674551,37.0880081 23.5219478,37.1750867 23.539571,37.2642497 C23.5602087,37.3698558 23.5704116,37.4958419 23.5314551,37.5910263 C23.4734841,37.7327607 23.4551652,37.8754215 23.4247884,38.021093 C23.3932522,38.1725543 23.3788754,38.3203101 23.3779478,38.4724662 C23.3777159,38.5092894 23.3934841,38.5593133 23.3751652,38.5810829 C23.2907594,38.6834467 23.3130203,38.8142963 23.2722087,38.9284712 C23.2286145,39.0507519 23.2223536,39.1883177 23.2128464,39.3205568 C23.203571,39.4493221 23.2109913,39.5797085 23.2109913,39.7091685 C23.2109913,39.7557186 23.2293101,39.8140798 23.2077449,39.8460395 C23.1170783,39.9810578 23.1787594,40.1304347 23.1532522,40.2693901 C23.1258899,40.418767 23.0892522,40.5646701 23.0978319,40.7193737 C23.1061797,40.8761616 23.0922667,41.0345707 23.1017739,41.1915902 C23.1105855,41.3418935 23.1374841,41.4912705 23.1551072,41.640879 C23.1745855,41.8092466 23.1926725,41.9773825 23.2114551,42.14575 C23.3350493,42.2249546 23.2327884,42.3632151 23.2998029,42.472295 C23.3540638,42.5600685 23.3206725,42.7015713 23.3257739,42.8138935 C23.1418899,42.9660496 23.0312812,43.1529445 22.9385275,43.3581352 C22.8184116,43.624003 22.6693101,43.8764385 22.5505855,44.1427695 C22.4258319,44.4211434 22.1839768,44.6291132 22.093542,44.9264775 C22.0865855,44.9498683 22.0541217,44.9649218 22.0364986,44.9859967 C21.9407304,45.1017928 21.845658,45.2182837 21.7552232,45.3285216 C21.7939478,45.4197689 21.8412522,45.4591396 21.9286725,45.453813 C22.1074551,45.4426965 22.2834551,45.4494127 22.4643246,45.4058734 C22.639629,45.3637236 22.8334841,45.4040206 23.0185275,45.394757 C23.1968464,45.3857249 23.3737739,45.3546915 23.5520928,45.3431119 C23.6812522,45.3343114 23.811571,45.3433435 23.9414261,45.3401012 C23.9938319,45.3387116 24.0524986,45.3370905 24.0967884,45.3139313 C24.1765565,45.2717815 24.2482087,45.2784977 24.3040928,45.2984146 C24.3474551,45.4417702 24.3852522,45.565672 24.4223536,45.6898054 C24.4937739,45.9283454 24.5371362,46.176149 24.6579478,46.3982459 C24.6732522,46.7243278 24.8269913,47.0152076 24.9032812,47.3264675 C25.0071652,47.7514391 25.2221217,48.146767 25.2701217,48.5904977 C25.4410203,48.9293171 25.4507594,49.3264977 25.6571362,49.6535059 C25.6926145,49.7093196 25.7127884,49.7848186 25.7125565,49.851054 C25.7107014,50.1379967 25.8266435,50.3999275 25.9091942,50.6611635 C26.0119188,50.9863189 26.071513,51.3309281 26.2507594,51.63084 C26.2674551,51.6590943 26.2734841,51.6993913 26.2704696,51.7327406 C26.2567884,51.8798016 26.3282087,52.0039351 26.3634551,52.1384901 C26.3903536,52.2415486 26.4332522,52.3036154 26.5408464,52.3397437 C26.5593971,52.302689 26.6006725,52.2570653 26.6025275,52.2098205 C26.6101797,52.0155147 26.6220058,51.8188929 26.6011362,51.6266714 C26.5802667,51.4319023 26.659571,51.2554291 26.6651362,51.0657551 C26.6732522,50.7769596 26.6326725,50.4886273 26.7082667,50.1972843 C26.755571,50.0147897 26.7323826,49.8091358 26.7129043,49.6164511 C26.6922667,49.4131132 26.7648464,49.2250603 26.7743536,49.0277437 C26.7882667,48.7296846 26.7444406,48.4313938 26.8202667,48.1317135 C26.8643246,47.9575562 26.8429913,47.7616292 26.8244406,47.5784398 C26.8047304,47.3841339 26.8810203,47.2062711 26.885658,47.0172919 C26.899571,46.4415537 26.9185855,45.8653523 26.9424696,45.2898457 C26.9457159,45.2143466 26.9881507,45.1404687 27.015513,45.0566323 C27.2309333,45.369745 27.4312812,45.661088 27.6334841,45.9542837 C27.6645565,45.9232503 27.7042087,45.8993963 27.7009623,45.8845744 C27.6520348,45.6552982 27.6422957,45.4172214 27.5847884,45.1935033 C27.551629,45.0635801 27.6044986,44.9248564 27.5439768,44.8243454 C27.4781217,44.7150339 27.5351652,44.6027116 27.4906435,44.5121591 C27.439629,44.4070162 27.4403246,44.3065052 27.4426435,44.1951094 C27.5323826,44.1105782 27.6244406,44.0239627 27.7248464,43.9294731 C27.9889623,44.1964989 28.2280348,44.4646827 28.5684406,44.6117437 C28.6892522,44.6640836 28.8005565,44.7222132 28.9366725,44.7328665 C29.0848464,44.7444461 29.2439188,44.7511622 29.3765565,44.8092919 C29.7267014,44.9626059 30.0673391,45.1430162 30.3567304,45.3959149 C30.6762667,45.6752151 30.9382957,46.0056972 31.1729623,46.3616544 C31.3765565,46.67083 31.6223536,46.9524461 31.8308174,47.258611 C31.9564986,47.4431899 32.0970203,47.6164209 32.1786435,47.8364335 C32.2853101,48.1243026 32.2897159,48.4235197 32.3284406,48.7164838 C32.359513,48.9536342 32.4093681,49.1798998 32.4814841,49.4057022 C32.5181217,49.5212667 32.575629,49.6310414 32.5651942,49.7625858 C32.559629,49.8357689 32.5862957,49.9207632 32.623629,49.9858407 C32.8919188,50.4550464 33.2657159,50.8059086 33.7969623,50.9525065 C34.3059478,51.0933145 34.8200348,51.2153636 35.3322667,51.3438973 C35.7000348,51.4358394 36.0684986,51.5247708 36.4562087,51.6197236 C36.4562087,51.5785002 36.4647884,51.5412138 36.4548174,51.5099489 C36.371571,51.2482497 36.2867014,50.9870137 36.1990493,50.7267041 C36.1389913,50.5479149 36.0506435,50.3751471 36.0174841,50.1919577 C35.9824696,50.0013573 35.9117449,49.8285896 35.8500638,49.6486424 C35.7862957,49.4622107 35.7619478,49.2641994 35.683571,49.0779992 C35.6381217,48.9698457 35.5687884,48.8355222 35.6279188,48.718105 C35.6680348,48.6389004 35.6450783,48.5476531 35.6826435,48.4913762 C35.7821217,48.342694 35.7311072,48.1859061 35.7250783,48.0386135 C35.7192812,47.8950263 35.6872812,47.7470389 35.6371942,47.6055361 C35.5170783,47.2660219 35.3823536,46.9313712 35.2272232,46.6080685 C34.9939478,46.122188 34.7402667,45.6458029 34.3789913,45.2347267 C34.2326725,45.068212 34.0949333,44.889886 33.9690203,44.7092441 C33.6763826,44.2889042 33.339687,43.9072403 32.9964986,43.5302082 C32.8886725,43.411633 32.7381797,43.3308073 32.6317449,43.2108425 C32.4557449,43.0130628 32.2268754,42.8824448 32.0163246,42.7386261 C31.775629,42.5746588 31.5168464,42.4280609 31.267571,42.2740521 C31.0985275,42.1691408 30.9190493,42.0725669 30.7500058,41.9681188 C30.5545275,41.8474593 30.3560348,41.718694 30.143629,41.6248992 C29.8414841,41.4915021 29.7211362,41.3956229 29.6239768,41.1570829 C29.6014841,41.1017324 29.581542,41.0447607 29.5650783,40.9870943 C29.517542,40.8205795 29.4723246,40.6533699 29.4278029,40.4912554 C29.775629,40.1447935 30.1102377,39.8115323 30.4443826,39.4775763 C30.4490203,39.4729445 30.445542,39.4599753 30.445542,39.4507116 C30.4457739,39.441448 30.445542,39.4321843 30.445542,39.4013825 L28.9988174,37.9564788 C29.0393971,37.7969118 29.0813681,37.629239 29.125658,37.4617979 C29.1342377,37.4291434 29.1469913,37.3948677 29.1664696,37.368003 C29.4414841,36.9879602 29.6334841,36.5595147 29.8637449,36.1542283 C29.9873391,35.9360685 30.0893681,35.7709432 30.3609043,35.8434316 C30.5197449,35.5423617 30.7017739,35.2697777 30.8478609,34.975424 C30.911629,34.8466588 30.981658,34.7116405 31.0632812,34.5930653 C31.2457739,34.3274291 31.3853681,34.03956 31.5458319,33.7625757 C31.597542,33.6727179 31.6406725,33.5800811 31.7007304,33.4925392 C31.8426435,33.2868853 31.9632232,33.0666412 32.1028174,32.8352806 C32.5039768,32.8352806 32.9294841,32.8352806 33.3547594,32.8348174 C33.3626435,32.8348174 33.3714551,32.8292592 33.3779478,32.8241641 C33.3849043,32.8186059 33.3897739,32.8105002 33.3925565,32.8070263 C33.3925565,32.7671924 33.4041507,32.7252743 33.3909333,32.6942409 C33.231629,32.3236934 33.1393391,31.9288287 32.9781797,31.5592076 C32.933658,31.4570754 32.9348174,31.3790288 33.0162087,31.2910238 C33.0985275,31.2018608 33.1622957,31.0941704 33.2274551,30.9906487 C33.4484406,30.6411761 33.6624696,30.287998 33.9425855,29.9799804 C34.0446145,29.8678897 34.1420058,29.7500093 34.2287304,29.6261075 C34.5568464,29.1582913 34.7954551,28.6395247 35.0681507,28.1399804 C35.1922087,27.9132516 35.2926145,27.6772592 35.4018319,27.4442774 C35.5553391,27.117964 35.6907594,26.7853976 35.8118029,26.4465782 C35.9187014,26.1478243 36.0390493,25.8518495 36.1160348,25.5452214 C36.181658,25.2846802 36.2683826,25.034329 36.363687,24.7851358 C36.4963246,24.4384423 36.6962087,24.1118973 36.6788174,23.7205065 C36.7743536,23.5910464 36.6867014,23.4252264 36.7451362,23.3041037 C36.8160928,23.1577374 36.7653101,23.017161 36.7919768,22.8779741 C36.8026435,22.8207708 36.8323246,22.7675046 36.8534261,22.7130804 C37.0298899,22.814981 37.1845565,22.9110918 37.3447884,22.9960861 C37.6253681,23.1447683 37.9159188,23.272144 38.2106435,23.3907192 C38.4411362,23.4838193 38.6662957,23.5896569 38.9037449,23.6651559 C39.0016,23.6964209 39.0950493,23.7404234 39.1922087,23.7746991 C39.2812522,23.805964 39.3719188,23.8332919 39.4628174,23.8596934 C39.5625275,23.888874 39.6893681,23.8865581 39.7563826,23.949088 C39.8482087,24.0347771 39.9840928,23.9400559 40.0504116,24.0533045 C40.3047884,24.0760005 40.5269333,24.2043026 40.7622957,24.2844335 C40.9869913,24.3608589 41.1947594,24.4981931 41.3971942,24.6288111 C41.7751652,24.8729093 42.1549913,25.1123756 42.5853681,25.2531836 C42.9858319,25.384728 43.3881507,25.5209042 43.8192232,25.496587 C43.9328464,25.4901025 44.0460058,25.4646273 44.1577739,25.4419313 C44.2598029,25.4213196 44.3671652,25.4083504 44.4599188,25.3657374 C44.8687304,25.1781478 45.1773681,24.8759199 45.4157449,24.499351 C45.555571,24.2784121 45.6265275,24.0278293 45.6882087,23.7793309 C45.7227594,23.6399124 45.7014261,23.4842824 45.6921507,23.3365266 C45.6838029,23.2047507 45.6647884,23.0720483 45.635571,22.9432831 C45.6211942,22.8786688 45.5553391,22.8242447 45.5449043,22.7600936 C45.5214841,22.6148853 45.4389333,22.506037 45.3617159,22.3900093 C45.2084406,22.1598067 45.1022377,21.9001918 44.8026435,21.7915751 C44.5874551,21.7135285 44.4237449,21.5132013 44.1742377,21.4953687 C44.1593971,21.4942107 44.1452522,21.4759149 44.1320348,21.4643353 C43.951629,21.3098633 43.7318029,21.2230162 43.5300638,21.1049042 C43.3269333,20.986329 43.1567304,20.8170351 42.9408464,20.7142082 C42.9009623,20.6952176 42.8736,20.6326877 42.8578319,20.5847481 C42.7618319,20.2908576 42.6674551,19.9960408 42.5786435,19.6998344 C42.4304696,19.2060798 42.2472812,18.7262208 42.0207304,18.263268 C41.9643826,18.1477035 41.9024696,18.0346865 41.8373101,17.9103215 C42.1373681,17.7306059 42.429542,17.5610804 42.7161507,17.3825228 C43.0069333,17.2011862 43.3160348,17.0478721 43.6019478,16.8382812 C43.525658,16.7238746 43.4333681,16.6805669 43.3278609,16.6613447 C43.1898899,16.6363328 43.0514551,16.6154895 42.8731362,16.5863089 C42.9290203,16.5450855 42.9549913,16.5165996 42.9869913,16.5038621 C43.4366145,16.3269256 43.7879188,16.0017702 44.1587014,15.7113536 C44.3840928,15.5351119 44.5981217,15.3424272 44.8239768,15.1650276 C44.9802667,15.0422837 45.1091942,14.8773901 45.2787014,14.7812793 C45.4563246,14.6805367 45.6147014,14.5612667 45.779571,14.4450074 C46.0578319,14.249312 46.3272812,14.0462057 46.5719188,13.8104448 C46.6788174,13.7076179 46.7824696,13.6013171 46.8872812,13.4964058 C46.9721507,13.4114115 47.0804406,13.3389231 47.1370203,13.2379489 C47.3056,12.936879 47.5159188,12.6624423 47.6617739,12.3444662 C47.8359188,11.965813 47.9363246,11.571643 47.9680928,11.1675147 C48.0007884,10.7474064 47.9987014,10.3226663 47.8702377,9.90649515" id="Fill-1" fill="#231F20" mask="url(#mask-2)"></path>
                        </g>
                        <path d="M27.919911,18.0575096 C27.6967057,18.0999698 27.516748,18.1797949 27.3788364,18.336291 C27.1022925,18.6497683 26.9948945,19.052048 27.158274,19.4623345 C27.2464509,19.6836126 27.3982978,19.8619453 27.5893077,20.0002441 C27.8101103,20.1598943 28.069115,20.1152505 28.3180285,20.1181621 C28.4410437,20.0046114 28.5912087,20.0868628 28.7296008,20.0538652 C28.7947123,20.1885246 28.7108602,20.3076557 28.7070159,20.4289705 C28.7005288,20.6575274 28.6044232,20.8528442 28.5491625,21.063204 C28.4922199,21.2810853 28.377614,21.4625722 28.2558001,21.6387212 C27.9494635,22.0807921 27.5628787,22.4267818 27.0549605,22.6262233 C26.7495849,22.7463249 26.4480536,22.8669117 26.1121645,22.8557508 C25.9490252,22.8506556 25.7851651,22.862787 25.6225064,22.8535671 C25.3135269,22.8356125 25.0244892,22.7489938 24.7361724,22.6284069 C24.3219572,22.4551695 23.9935163,22.181726 23.7008747,21.8532057 C23.4065513,21.5225016 23.2511005,21.1165825 23.105981,20.706296 C23.1468259,20.5784302 23.049519,20.4728864 23.0487982,20.3522995 C23.0473566,20.1099127 23.0247718,19.864129 23.0581685,19.6265947 C23.0752272,19.5040668 23.0771493,19.3672237 23.1309685,19.2527026 C23.2299572,19.0416149 23.3330305,18.8302846 23.4586886,18.6347252 C23.5278846,18.5272404 23.576418,18.427277 23.5663269,18.2865519 C23.661952,18.2030874 23.727544,18.0628475 23.8947678,18.0698838 C24.090583,17.8913084 24.2861579,17.7132184 24.4817328,17.5351283 C24.4694793,17.4429291 24.5516496,17.4434144 24.601144,17.4162399 C24.7522701,17.3335032 24.9070001,17.2595012 25.0859968,17.2638685 C25.1129064,17.2645964 25.1434199,17.2624128 25.166245,17.2500386 C25.5035757,17.0697649 25.867816,17.1784629 26.219082,17.1483769 C26.3348892,17.2391203 26.4708787,17.1930207 26.5982186,17.208549 C26.6962463,17.2204378 26.8019625,17.230143 26.8872562,17.274059 C27.2606265,17.4676773 27.6467308,17.6474658 27.919911,18.0575096" id="Fill-4" fill="#231F20"></path>
                    </g>
                </g>
                <g id="Shpadoinkle" transform="translate(83.000000, 14.000000)">
                    <g id="Group-81" transform="translate(0.917763, 3.671053)" fill="#0C625D">
                        <path d="M6.51634088,14.719084 C4.81598021,13.4467655 3.40969036,12.2339596 2.43403772,10.7561657 C3.36500159,12.8325319 5.04442418,14.3466599 7.1944851,15.9550684 C9.58330278,17.7426415 11.8755552,19.0976513 12.9949619,20.396594 C12.6487021,18.6801229 9.66643014,17.075473 6.51634088,14.719084" id="Fill-1"></path>
                        <path d="M9.20654211,29.1463992 C4.72297757,29.1463992 2.07977768,27.1126316 2.07977768,27.1126316 L0.332853181,27.6579557 L0.0678456723,29.1889978 L2.75792189,28.348616 C2.75792189,28.348616 5.40080928,30.3826969 9.88437381,30.3826969 C14.3682509,30.3826969 19.5124591,27.5445684 19.5124591,22.2939836 C19.5124591,20.1202045 18.9530683,18.5149282 18.1014816,17.244489 C18.5589946,18.2903461 18.8343149,19.533848 18.8343149,21.0576859 C18.8343149,26.3082707 13.6901066,29.1463992 9.20654211,29.1463992" id="Fill-3"></path>
                        <path d="M11.5362956,4.21932394 C13.3219712,4.62338374 15.1242098,5.58811566 16.4126838,6.38151369 L15.8192295,5.19627162 C14.5257553,4.3941033 12.6816406,3.39585634 10.8581514,2.98302626 C8.12088635,2.3634679 6.75209756,3.88667937 6.75209756,5.77886947 C6.75209756,6.34048126 7.04116825,6.94876353 7.51836927,7.57552605 C7.46118015,7.38414579 7.43024178,7.19715067 7.43024178,7.01485393 C7.43024178,5.12266383 8.79871805,3.59945237 11.5362956,4.21932394" id="Fill-5"></path>
                        <polygon id="Fill-7" points="17.7187208 8.87183758 19.7481533 0.0733572126 18.6637476 0.599574621 17.0596396 7.55535438"></polygon>
                        <polygon id="Fill-9" points="23.6182629 28.3015384 31.5941139 28.3015384 30.889719 27.0652407 24.1160896 27.0652407"></polygon>
                        <polygon id="Fill-11" points="29.4060832 18.0773847 29.4060832 24.4161119 30.0839149 25.6051127 30.0839149 19.3136824 37.1934913 19.3136824 37.1934913 18.0773847"></polygon>
                        <polygon id="Fill-13" points="44.5258241 1.62237839 43.1392223 1.62237839 42.5735813 2.60903603 42.5735813 24.3687523 43.659237 27.0653033 37.0659252 27.0653033 36.3609052 28.301601 44.3370687 28.301601 43.2517255 25.60505 43.2517255 3.84564694"></polygon>
                        <polygon id="Fill-15" points="29.5003671 13.0633472 30.1785113 13.0633472 30.1785113 4.17653746 31.4057336 1.62250368 30.13351 1.62250368 29.5003671 2.940553"></polygon>
                        <path d="M55.2863165,13.7289495 L55.2863165,6.16363462 C58.2735886,5.95815925 59.8401955,6.75719533 60.6580312,7.72787852 C60.2186437,6.35532811 58.834542,4.63697769 54.6084848,4.92702371 L54.6084848,13.7151677 C54.6084848,13.7151677 54.8716172,13.7364669 55.2863165,13.7289495" id="Fill-17"></path>
                        <polygon id="Fill-19" points="48.7260993 28.3015384 56.7019503 28.3015384 55.9975554 27.0652407 49.223926 27.0652407"></polygon>
                        <path d="M67.085057,8.85959049 C66.8688009,7.13466236 66.342536,5.82413043 65.6628292,4.822438 C66.0075265,5.60988477 66.2703464,6.53201813 66.4072253,7.62360603 C66.4072253,7.62360603 67.1622467,14.2934117 63.1505705,16.516367 C63.1505705,16.516367 61.4045836,18.0774787 54.5137633,18.0774787 L54.5137633,24.4162059 L55.1919075,25.6052066 L55.1919075,19.3137763 C62.0824153,19.3137763 63.8287148,17.7529779 63.8287148,17.7529779 C67.8403909,15.5293961 67.085057,8.85959049 67.085057,8.85959049" id="Fill-21"></path>
                        <polygon id="Fill-23" points="73.9263759 22.8243982 73.5560529 24.6658459 74.547331 27.0548103 68.4149697 27.0548103 67.7921396 28.291108 75.2254752 28.291108 74.2341971 25.9021436 74.6045201 24.0603827 80.4174973 24.0603827 80.1693653 22.8243982"></polygon>
                        <polygon id="Fill-25" points="80.8803229 4.04805271 81.8712885 1.61210462 80.69063 1.61210462 80.2021787 2.81175502 85.5826436 24.6657519 86.7858027 27.0547163 80.7390689 27.0547163 80.2262419 28.291014 87.4639469 28.291014 86.2604753 25.9020496"></polygon>
                        <polygon id="Fill-27" points="76.950149 7.77858959 74.938217 17.7908155 75.8641808 17.7908155 77.4132872 10.0832965"></polygon>
                        <path d="M97.3837905,6.19533296 L99.3894723,6.13112191 C101.117959,6.11890614 102.67644,7.16758227 103.781159,8.84959863 C102.697066,6.45969456 100.831701,4.88010266 98.7113281,4.89472219 L96.7056463,4.9593485 L96.7056463,22.4451145 L97.3837905,22.4451145 L97.3837905,6.19533296 Z" id="Fill-29"></path>
                        <path d="M108.679267,6.11367529 C109.323973,7.48779182 109.800549,9.18954134 109.998367,11.3006755 C109.998367,11.3006755 110.848391,21.3586321 106.33295,24.7110755 C106.33295,24.7110755 104.36727,27.065272 96.6114249,27.065272 L91.321275,27.065272 L90.8234484,28.3015697 L97.2892566,28.3015697 C105.045101,28.3015697 107.010782,25.9473732 107.010782,25.9473732 C111.526222,22.5949298 110.676511,12.5369731 110.676511,12.5369731 C110.414316,9.74019027 109.66242,7.6616315 108.679267,6.11367529" id="Fill-31"></path>
                        <path d="M120.549728,14.9332044 C120.549728,10.2595794 122.780416,6.47081404 125.532057,6.47081404 C126.793655,6.47081404 127.944938,7.26859721 128.823088,8.58194816 C127.913062,6.54818052 126.473958,5.23451635 124.853913,5.23451635 C122.102585,5.23451635 119.871584,9.02328169 119.871584,13.6969067 C119.871584,16.2277618 120.526602,18.4973876 121.563507,20.0481629 C120.927551,18.6273759 120.549728,16.855464 120.549728,14.9332044" id="Fill-33"></path>
                        <path d="M135.718002,13.6937744 C135.718002,21.405052 130.859739,27.6563896 124.866757,27.6563896 C121.410409,27.6563896 118.333447,25.5743853 116.346515,22.3340763 C118.265007,26.2722498 121.666041,28.8926872 125.544901,28.8926872 C131.537571,28.8926872 136.395833,22.6413497 136.395833,14.9300721 C136.395833,11.6665845 135.523309,8.66745849 134.065455,6.29008341 C135.111422,8.43692515 135.718002,10.9734184 135.718002,13.6937744" id="Fill-35"></path>
                        <polygon id="Fill-37" points="148.316015 1.62237839 146.929413 1.62237839 146.363772 2.60903603 146.363772 24.3687523 147.449428 27.0653033 144.80654 27.0653033 142.296469 27.0653033 140.82924 27.0653033 140.331414 28.301601 142.974301 28.301601 145.48406 28.301601 148.12726 28.301601 147.041604 25.60505 147.041604 3.84564694"></polygon>
                        <polygon id="Fill-39" points="171.675427 2.60916132 171.675427 27.0651154 167.511246 27.0651154 168.17689 28.3014131 172.353571 28.3014131 172.353571 3.845459 173.62767 1.62250368 172.24138 1.62250368"></polygon>
                        <polygon id="Fill-41" points="158.611088 24.3687836 159.696431 27.0650214 157.053544 27.0650214 154.543473 27.0650214 153.076243 27.0650214 152.578417 28.3016323 155.221617 28.3016323 157.731688 28.3016323 160.374575 28.3016323 159.28892 25.6050813 159.28892 11.8156794 158.611088 10.5562031"></polygon>
                        <polygon id="Fill-43" points="189.755158 15.7636882 197.236932 1.622535 195.905332 1.622535 189.019512 14.6360795"></polygon>
                        <polygon id="Fill-45" points="189.217424 27.0651467 188.635845 28.3014444 197.803605 28.3014444 196.997332 27.0651467"></polygon>
                        <polygon id="Fill-47" points="183.67161 14.2104072 184.349755 12.8976827 184.349755 3.84549033 185.623853 1.622535 184.237564 1.622535 183.67161 2.60919264"></polygon>
                        <polygon id="Fill-49" points="183.67161 15.7713309 183.67161 24.368721 184.757266 27.065272 182.114379 27.065272 179.604308 27.065272 178.137079 27.065272 177.639252 28.3015697 180.282139 28.3015697 182.79221 28.3015697 185.435098 28.3015697 184.349755 25.6053319 184.349755 17.0076286 189.180516 24.4667603 189.23208 24.3568185"></polygon>
                        <polygon id="Fill-51" points="206.187217 22.5120819 206.865049 22.5120819 206.865049 4.20034253 208.210399 1.62250368 206.886924 1.62250368 206.187217 2.96404484"></polygon>
                        <polygon id="Fill-53" points="213.231167 27.0651467 202.293357 27.0651467 200.82644 27.0651467 200.328614 28.3014444 202.971501 28.3014444 213.908998 28.3014444 213.908998 22.5778904 213.231167 22.9027044"></polygon>
                        <polygon id="Fill-55" points="231.248052 22.9559212 231.248052 27.0651154 218.858951 27.0651154 217.391722 27.0651154 216.893895 28.3014131 219.536783 28.3014131 231.925884 28.3014131 231.925884 22.5067571"></polygon>
                        <polygon id="Fill-57" points="227.283409 16.6583831 222.858908 16.6583831 222.858908 22.6541293 223.537052 22.6541293 223.537052 17.8946808 227.961553 17.8946808 230.545376 19.4557924 230.545376 12.4311032 229.867544 12.7455808 229.867544 18.2191815"></polygon>
                        <polygon id="Fill-59" points="228.097619 4.87972679 222.858721 4.87972679 222.858721 12.5076866 223.536865 12.5076866 223.536865 6.11602448 228.775451 6.11602448 231.005514 7.42874898 231.005514 1.62250368 230.327682 1.62250368 230.327682 6.19245129"></polygon>
                        <path d="M16.41284,6.38163898 L17.0409828,7.63579047 L17.0594209,7.55529174 L16.4975299,6.4326946 C16.4706542,6.41609369 16.4400283,6.39855311 16.41284,6.38163898" id="Fill-61"></path>
                        <path d="M13.4711942,13.2116904 C15.1031154,14.3205056 16.8956662,15.4465482 18.1013254,17.2444577 C16.9825437,14.6866652 14.7696685,13.3185 12.7933625,11.9753927 C10.835807,10.6454408 8.646995,9.05833153 7.51821302,7.57552605 C8.05416571,9.36717103 10.9548729,11.501797 13.4711942,13.2116904" id="Fill-63"></path>
                        <polygon id="Fill-67" points="30.889594 27.0651467 30.9164697 27.0651467 30.0839461 25.6052066 30.0839461 25.6525035"></polygon>
                        <polygon id="Fill-69" points="55.9973991 27.0651467 56.0242749 27.0651467 55.1920638 25.6052066 55.1920638 25.6525035"></polygon>
                        <polygon id="Fill-71" points="77.4134122 10.0834218 78.9622061 17.7906275 75.8643058 17.7906275 75.6158612 19.0269252 79.6400378 19.0269252 77.6281058 9.01501256"></polygon>
                        <path d="M98.7113281,22.4450832 L97.3837905,22.4450832 L97.3837905,23.6813808 L99.3894723,23.6813808 C102.738942,23.6813808 105.454019,19.7526041 105.454019,14.9063923 C105.454019,12.5609662 104.816814,10.4269666 103.781159,8.8495673 C104.409302,10.2349599 104.775875,11.8916051 104.775875,13.6697814 C104.775875,18.5163064 102.061111,22.4450832 98.7113281,22.4450832" id="Fill-75"></path>
                        <polygon id="Fill-77" points="159.28892 11.8156481 167.49884 27.0653033 167.51134 27.0653033 159.28892 11.7924695"></polygon>
                    </g>
                    <g id="Group-105" fill="#231F20">
                        <path d="M3.03935106,24.3179299 C4.89143174,25.3237803 8.00960999,26.5664496 9.696805,26.5664496 C12.1445313,26.5664496 13.6038786,25.2346583 13.6038786,23.379787 C13.6038786,21.5252306 10.4498556,19.8605702 7.10788172,17.3399607 C3.76590778,14.8193512 1.55319813,12.5365053 1.55319813,7.97081352 C1.55319813,3.40512176 6.16625672,0.170906395 10.4735443,0.170906395 C14.7808319,0.170906395 17.4168209,2.45375227 17.4168209,2.45375227 L19.6292189,1.37232135 L17.6047719,10.2183885 L16.3863633,7.76580142 C15.0968888,6.95929455 13.2569641,5.95533364 11.4385463,5.54058567 C8.70811434,4.91767642 7.34352174,6.44881129 7.34352174,8.35123534 C7.34352174,10.2536594 10.5913643,12.6791635 13.3685503,14.5812726 C16.1457362,16.4836966 19.3938905,18.4336734 19.3938905,23.7126561 C19.3938905,28.9919537 14.2627979,31.8454323 9.79093633,31.8454323 C5.31907474,31.8454323 2.68308579,29.8003501 2.68308579,29.8003501 L3.11693148e-05,30.6449621 L1.5771985,21.4660259 L3.03935106,24.3179299 Z" id="Fill-82"></path>
                        <polygon id="Fill-85" points="37.6107966 15.6751743 37.6107966 5.49763076 36.3867776 2.92915359 44.3421218 2.92915359 43.0710371 5.16476166 43.0710371 27.0421659 44.1535474 29.7526714 36.1985149 29.7526714 37.7049279 27.0894037 37.7049279 20.7167083 29.9378463 20.7167083 29.9378463 27.0894037 31.4442593 29.7526714 23.4889151 29.7526714 24.5717371 27.0421659 24.5717371 5.16476166 23.3006524 2.92915359 31.255685 2.92915359 30.0322894 5.49763076 30.0322894 15.6751743"></polygon>
                        <path d="M61.287912,11.9127772 C61.241158,16.8535372 55.0743091,16.3304572 55.0743091,16.3304572 L55.0743091,7.49509728 C61.9468313,7.01957 61.287912,11.9127772 61.287912,11.9127772 M66.8422839,10.2059177 C65.9009706,2.64377424 59.1228914,2.92940552 59.1228914,2.92940552 L56.2983281,2.92940552 L48.3432956,2.92940552 L49.6140685,5.16469867 L49.6140685,27.0421029 L48.5312465,29.7526084 L56.4865907,29.7526084 L54.9804894,27.0893407 L54.9804894,20.7166453 C61.8527,20.7166453 63.5944413,19.1470903 63.5944413,19.1470903 C67.5956462,16.9117972 66.8422839,10.2059177 66.8422839,10.2059177" id="Fill-87"></path>
                        <path d="M75.3509458,20.4281797 L77.3576263,10.3618025 L79.3646184,20.4281797 L75.3509458,20.4281797 Z M87.1681681,29.7422161 L85.9678378,27.3406458 L80.6017286,5.36813617 L81.5901075,2.91869829 L73.1254567,2.91869829 L74.1141474,5.36813617 L68.7477264,27.3406458 L67.5477078,29.7422161 L74.9613293,29.7422161 L73.9729504,27.3406458 L74.3419951,25.4889237 L80.5686891,25.4889237 L80.9377338,27.3406458 L79.9493548,29.7422161 L87.1681681,29.7422161 Z" id="Fill-89"></path>
                        <path d="M99.062441,25.1076831 L97.0616826,25.1076831 L97.0616826,7.52734496 L99.062441,7.46236971 C102.403168,7.43916771 105.111158,11.4124973 105.111158,16.2849199 C105.111158,21.1576575 102.403168,25.1076831 99.062441,25.1076831 M110.319862,13.9031896 C109.260106,2.49966742 100.177056,2.93016133 100.177056,2.93016133 L98.803424,2.92921657 L98.2857016,2.92921657 L90.3303574,2.92921657 L91.6014421,5.16482464 L91.6014421,27.0422289 L90.5189318,29.7527344 L96.9675513,29.7527344 C104.703464,29.7527344 106.664013,27.3861201 106.664013,27.3861201 C111.167668,24.01523 110.319862,13.9031896 110.319862,13.9031896" id="Fill-91"></path>
                        <path d="M125.136913,24.8201308 C122.392143,24.8201308 120.167278,21.0108738 120.167278,16.3119715 C120.167278,11.613384 122.392143,7.80412703 125.136913,7.80412703 C127.881683,7.80412703 130.106237,11.613384 130.106237,16.3119715 C130.106237,21.0108738 127.881683,24.8201308 125.136913,24.8201308 M125.149692,2.27100493 C119.172353,2.27100493 114.326771,8.55615296 114.326771,16.3094521 C114.326771,24.0624363 119.172353,30.3472694 125.149692,30.3472694 C131.12672,30.3472694 135.972302,24.0624363 135.972302,16.3094521 C135.972302,8.55615296 131.12672,2.27100493 125.149692,2.27100493" id="Fill-93"></path>
                        <polygon id="Fill-95" points="145.0369 29.7527344 147.672889 29.7527344 146.590067 27.0422289 146.590067 5.16482464 147.861463 2.92921657 145.178097 2.92921657 142.392495 2.92921657 139.709129 2.92921657 140.980213 5.16482464 140.980213 27.0422289 139.897703 29.7527344 142.533692 29.7527344"></polygon>
                        <polygon id="Fill-97" points="165.128297 2.92927956 166.39907 5.66403381 166.39907 17.9342123 158.6323 2.92927956 157.39332 2.92927956 154.607407 2.92927956 151.924664 2.92927956 153.195437 5.16488763 153.195437 27.0419769 152.112615 29.7527974 154.748604 29.7527974 157.252123 29.7527974 159.888112 29.7527974 158.805602 27.0419769 158.805602 13.1546907 167.669843 29.7527974 171.836245 29.7527974 171.836245 5.16488763 173.107018 2.92927956 170.423652 2.92927956 167.63805 2.92927956 166.39907 2.92927956"></polygon>
                        <polygon id="Fill-99" points="188.570147 2.92927956 196.654532 2.92927956 189.134935 17.2565072 197.219632 29.7527974 188.075801 29.7527974 189.346886 27.03001 183.80093 18.3980876 183.80093 27.0419769 184.88344 29.7527974 182.247451 29.7527974 179.744243 29.7527974 177.108255 29.7527974 178.190765 27.0419769 178.190765 5.16488763 176.91968 2.92927956 179.602735 2.92927956 182.388648 2.92927956 185.071703 2.92927956 183.80093 5.16488763 183.80093 16.8285327 189.62928 5.450204"></polygon>
                        <polygon id="Fill-101" points="202.374132 29.7527344 199.738143 29.7527344 200.820654 27.0422289 200.820654 5.16482464 199.549569 2.92921657 202.232935 2.92921657 207.599045 2.92921657 206.257517 5.52162756 206.257517 25.1753906 210.847199 25.1753906 213.283081 23.9982244 213.283081 29.7527344"></polygon>
                        <polygon id="Fill-103" points="229.875878 20.8593349 229.875878 13.7966526 227.051627 15.116477 222.885848 15.116477 222.885848 7.44757604 228.11076 7.44757604 230.335002 8.76740045 230.335002 2.9291221 218.754979 2.9291221 216.072236 2.9291221 217.343009 5.16473017 217.343009 27.0421344 216.260187 29.7526399 218.896176 29.7526399 231.252939 29.7526399 231.252939 23.9266434 229.169893 25.3179543 222.885848 25.3179543 222.885848 19.28978 227.2988 19.28978"></polygon>
                    </g>
                    <g id="Group-124" opacity="0.776855469" transform="translate(2.615625, 1.743750)" fill="#78F0B5">
                        <path d="M7.21411158,27.7987004 C5.58950616,27.7990146 3.35169489,27.4000171 0.538437516,25.9772717 L0.818358965,25.4154052 C6.75256886,28.4168477 10.0114537,26.6271755 10.0435963,26.6086248 L10.0738665,26.5932183 C12.0676437,25.7169329 13.2687782,24.5013896 13.6448154,22.9811744 C14.0969962,21.1534576 13.2459975,19.2175807 12.2988831,18.0155574 C10.6299646,15.8966887 6.08943276,13.4511388 6.04355935,13.4266141 C3.36230506,11.7498183 1.32515097,10.2028775 1.32515097,6.77822733 C1.32515097,4.31569882 2.56779,2.8649702 3.61039598,2.0814384 C5.22314297,0.86966812 7.58172303,0.393323547 9.34613314,0.920918394 C13.223841,2.08332492 14.3925208,3.05770896 14.4402666,3.09858342 L14.037704,3.57932985 C14.0264697,3.56989729 12.8855635,2.63827421 9.16825663,1.52365935 C7.86944608,1.13472322 5.69311142,1.30105079 3.98331252,2.58576626 C3.05554611,3.28283287 1.94927907,4.57666647 1.94927907,6.77822733 C1.94927907,9.87902612 3.8584869,11.3203222 6.3546872,12.8820407 C6.52788274,12.973851 11.0378323,15.4027367 12.7875754,17.6244203 C13.8270608,18.9440363 14.7573237,21.083971 14.2505317,23.1330387 C13.8261246,24.8491369 12.5101505,26.2052254 10.3381847,27.1632597 C10.1768476,27.2528691 9.11520575,27.7987004 7.21411158,27.7987004" id="Fill-106"></path>
                        <polygon id="Fill-108" points="24.1647752 25.5525233 24.7889033 25.5525233 24.7889033 3.01843805 24.1647752 3.01843805"></polygon>
                        <polygon id="Fill-110" points="37.5523228 25.5525233 38.1764509 25.5525233 38.1764509 3.01843805 37.5523228 3.01843805"></polygon>
                        <polygon id="Fill-111" points="24.4768393 16.7233273 37.8643868 16.7233273 37.8643868 16.0944896 24.4768393 16.0944896"></polygon>
                        <path d="M50.1104353,16.3580355 L53.1633579,16.3580355 C59.6162182,16.3580355 60.9705761,12.756053 60.9705761,9.73417336 C60.9705761,6.14602533 58.6400819,4.08878273 54.577008,4.08878273 L50.1104353,4.08878273 L50.1104353,16.3580355 Z M50.1104353,25.5525862 L49.4863072,25.5525862 L49.4863072,3.45994501 L54.577008,3.45994501 C58.9714939,3.45994501 61.5947042,5.80519529 61.5947042,9.73417336 C61.5947042,12.4428918 60.4993594,16.9868732 53.1633579,16.9868732 L50.1104353,16.9868732 L50.1104353,25.5525862 Z" id="Fill-112"></path>
                        <polygon id="Fill-113" points="68.9540482 25.6260344 68.3470836 25.4792008 73.5931923 3.45981924 76.1830118 3.45981924 81.3383099 25.4804585 80.7304091 25.6247768 75.6887024 4.08865696 74.0850053 4.08865696"></polygon>
                        <polygon id="Fill-114" points="69.7030331 21.4490428 79.9998984 21.4490428 79.9998984 20.820205 69.7030331 20.820205"></polygon>
                        <path d="M91.8621081,25.2382302 L96.0815261,25.2382302 C100.96408,25.2382302 104.936343,20.4320235 104.936343,14.5240931 C104.936343,6.61582999 100.166132,3.80995609 96.0815261,3.80995609 L91.8621081,3.80995609 L91.8621081,25.2382302 Z M96.0815261,25.8670679 L91.23798,25.8670679 L91.23798,3.18111837 L96.0815261,3.18111837 C102.629566,3.18111837 105.560471,8.87807368 105.560471,14.5240931 C105.560471,20.7785131 101.308287,25.8670679 96.0815261,25.8670679 L96.0815261,25.8670679 Z" id="Fill-115"></path>
                        <path d="M122.69672,3.80983032 C118.521927,3.80983032 115.125422,8.61603701 115.125422,14.5239674 C115.125422,20.4318978 118.521927,25.2381044 122.69672,25.2381044 C126.871824,25.2381044 130.268329,20.4318978 130.268329,14.5239674 C130.268329,8.61603701 126.871824,3.80983032 122.69672,3.80983032 M122.69672,25.8669422 C118.178032,25.8669422 114.501294,20.7787018 114.501294,14.5239674 C114.501294,8.26954742 118.178032,3.1809926 122.69672,3.1809926 C127.215719,3.1809926 130.892458,8.26954742 130.892458,14.5239674 C130.892458,20.7787018 127.215719,25.8669422 122.69672,25.8669422" id="Fill-116"></path>
                        <polygon id="Fill-117" points="140.798916 25.5525233 141.423044 25.5525233 141.423044 3.01843805 140.798916 3.01843805"></polygon>
                        <polygon id="Fill-118" points="166.876875 26.7225073 154.077508 4.08875129 153.540709 4.08875129 153.540709 25.5525547 152.926875 25.5525547 152.926875 3.45991357 154.431076 3.45991357 166.263041 24.3829166 166.263041 3.4954429 166.876875 3.4954429"></polygon>
                        <polygon id="Fill-119" points="177.923724 25.9603246 178.547852 25.9603246 178.547852 3.49541146 177.923724 3.49541146"></polygon>
                        <polygon id="Fill-120" points="189.941029 25.7208946 183.635151 15.6843302 189.648001 3.35659553 190.207844 3.63422738 184.349465 15.6456567 190.468105 25.3844664"></polygon>
                        <polygon id="Fill-121" points="208.140688 25.8670679 200.356875 25.8670679 200.356875 3.49553723 200.981003 3.49553723 200.981003 25.2382302 208.140688 25.2382302"></polygon>
                        <polygon id="Fill-122" points="226.871562 25.8670679 217.219733 25.8670679 217.219733 3.18111837 225.695393 3.18111837 225.695393 3.80995609 217.843861 3.80995609 217.843861 25.2382302 226.871562 25.2382302"></polygon>
                        <polygon id="Fill-123" points="217.531828 15.5901617 224.657499 15.5901617 224.657499 14.961324 217.531828 14.961324"></polygon>
                    </g>
                </g>
                <text id="" font-family="Roboto-Regular, Roboto" font-size="12" font-weight="normal" letter-spacing="0.141176471" fill="#121212">
                    <tspan x="319" y="25"></tspan>
                </text>
            </g>
        </g>
    </g>
</svg>