<?xml version="1.0" encoding="UTF-8"?>
<svg width="51px" height="51px" viewBox="0 0 51 51" version="1.1" xmlns="http://www.w3.org/2000/svg" xmlns:xlink="http://www.w3.org/1999/xlink">
    <!-- Generator: Sketch 63.1 (92452) - https://sketch.com -->
    <title>Group 26</title>
    <desc>Created with Sketch.</desc>
    <g id="Page-1" stroke="none" stroke-width="1" fill="none" fill-rule="evenodd">
        <g id="Shpadoinkle-Landing-(3/17)" transform="translate(-804.000000, -1586.000000)">
            <g id="Group-26" transform="translate(804.000000, 1586.000000)">
                <circle id="Oval" fill="#EDE171" cx="25.5" cy="25.5" r="25.5"></circle>
                <g id="Group-5" transform="translate(11.000000, 9.000000)" fill="#000000">
                    <path d="M14.057725,0.000172222222 L13.0355861,0.199088889 L12.0211972,0.411783333 L11.0403917,0.741588889 L10.1345028,1.24017222 L9.15455833,1.57514444 L8.28053056,2.11678333 L7.45558611,2.73936667 L6.72966944,3.47389444 L5.95725278,4.15158889 L5.22961389,4.87836667 L4.65783611,5.74033889 L4.23761389,6.68325556 L3.74505833,7.58483889 L3.33258611,8.53636667 L3.10439167,9.54989444 L2.80041944,10.5453389 L2.65058611,11.5692 L2.56705833,12.6051167 L2.59891944,13.6436167 L2.67986389,14.58395 L2.48611389,15.5148111 L2.51366944,16.4456722 L2.66780833,17.3799778 L2.48353056,18.3082556 L2.680725,19.2313667 L2.63508611,20.2440333 L1.665475,20.3602833 L0.856891667,20.7589778 L0.092225,21.0405611 L0.333336111,21.7587278 L0.693280556,22.4923944 L0.313530556,23.0064778 L0.602863889,24.0596167 L0.835363889,25.1093111 L1.14450278,26.1547 L1.15741944,27.1303389 L1.20478056,28.0913389 L1.014475,29.0704222 L1.208225,30.0245333 L1.30983611,30.8451722 L1.50014167,31.6563389 L2.10894722,32.2522278 L2.843475,32.6560889 L3.67530833,32.5915056 L4.66041944,32.3245611 L5.29075278,31.5039222 L5.41991944,30.4998667 L5.46555833,29.4923667 L5.60678056,28.4728111 L5.53875278,27.4575611 L5.67653056,26.4440333 L5.65241944,25.5613944 L5.83841944,24.7088944 L6.21300278,23.8908389 L6.183725,23.0219778 L5.59300278,22.1668944 L6.44636389,21.9300889 L7.24719722,22.1763667 L7.80778056,22.8480333 L8.640475,23.3767556 L9.50589167,23.8331444 L10.4789472,24.0346444 L11.3323083,24.5340889 L12.2735028,24.8053389 L13.2336417,24.9767 L14.220475,24.8992 L15.181475,25.1515056 L16.1493639,24.9327833 L17.1370583,25.0283667 L18.0963361,24.7993111 L18.9875861,24.4040611 L19.8900306,24.0432556 L20.7959194,23.6833111 L21.7698361,23.4396167 L22.4561417,22.7119778 L23.2173639,22.0954222 L24.0190583,21.5313944 L24.7001972,20.8209778 L25.1669194,19.9538389 L25.7963917,19.4647278 L26.3810861,18.7732556 L26.5076694,19.8625611 L26.3922806,20.8709222 L26.5326417,21.8655056 L26.4413639,22.8730056 L26.542975,23.8744778 L26.5395306,24.8880056 L26.124475,25.8266167 L26.0504194,26.8332556 L25.6568917,27.7563667 L25.349475,28.7018667 L24.8474472,29.5638389 L24.3833083,30.4611167 L23.7486694,31.6167278 L24.4323917,32.8093667 L25.0816694,31.8707556 L25.7808917,31.0552833 L26.2501972,30.0710333 L26.4448083,31.2559222 L26.6936694,32.4296167 L27.333475,32.5303667 L27.5840583,31.5400889 L28.0662806,30.65745 L28.6923083,31.5047833 L29.456975,32.1945333 L30.518725,32.19195 L30.0830028,31.1448389 L29.6877528,30.1252833 L29.1047806,29.1944222 L28.5149194,28.2954222 L28.0361417,27.3189222 L27.9371139,26.2390889 L27.6159194,25.2040333 L27.6624194,24.1069778 L27.9483083,23.1390889 L27.6787806,22.1643111 L27.7252806,21.1826444 L27.8802806,20.2078667 L27.8329194,19.2313667 L27.8621972,18.2540056 L27.7700583,17.2792278 L27.7545583,16.2967 L27.9569194,15.3262278 L27.7881417,14.3505889 L27.7778083,13.3723667 L27.775225,12.42945 L27.6787806,11.4917 L27.4583361,10.5780611 L27.1698639,9.67475556 L27.0768639,8.73011667 L26.8004472,7.77945 L26.2889472,6.92522778 L25.9513917,5.98575556 L25.2065306,5.29858889 L24.8216139,4.34706111 L24.0595306,3.68572778 L23.3172528,3.05022778 L22.5637806,2.40439444 L21.6949194,1.92906111 L20.8045306,1.51228333 L19.9236139,1.08431111 L18.986725,0.785505556 L18.0920306,0.324811111 L17.0965861,0.290366667 L16.1312806,0.0483944444 L15.0945028,0.0707833333 L14.057725,0.000172222222 Z M15.2985861,2.36306111 L16.274225,2.62828333 L17.2576139,2.74195 L18.2487528,2.85217222 L19.203725,3.17336667 L20.0898083,3.65989444 L20.784725,4.39614444 L21.7026694,4.81378333 L22.4466694,5.49406111 L22.9969194,6.32761667 L23.5471694,7.14825556 L24.1706139,7.9267 L24.4590861,8.88511667 L24.9516417,9.75397778 L25.1927528,10.7347833 L25.1651972,11.7414222 L25.3141694,12.72395 L25.1626139,13.7116444 L25.1341972,14.7070889 L24.9473361,15.6965056 L24.3393917,16.5102556 L24.0250861,17.4566167 L23.411975,18.2367833 L22.8711972,19.0565611 L22.1659472,19.7445889 L21.4916972,20.4696444 L20.6254194,20.9398111 L19.7987528,21.48145 L18.9281694,21.9335333 L17.9585583,22.13245 L17.0406139,22.5139222 L16.0511972,22.5793667 L15.0660861,22.6086444 L14.0697806,22.6982 L13.1036139,22.3709778 L12.1064472,22.2995056 L11.1643917,21.9559222 L10.3205028,21.4228944 L9.43614167,20.9656444 L8.66716944,20.3292833 L7.904225,19.6912 L7.37378056,18.8421444 L6.76153056,18.0697278 L6.14928056,17.2852556 L5.73508611,16.3759222 L5.54391944,15.3951167 L5.24425278,14.4573667 L5.18828056,13.4653667 L4.99453056,12.4862833 L5.05566944,11.4934222 L5.393225,10.5470611 L5.43800278,9.53611667 L5.84616944,8.62075556 L6.32580833,7.74758889 L6.79339167,6.86753333 L7.52016944,6.17778333 L8.175475,5.43808889 L8.89364167,4.76814444 L9.56703056,4.00261667 L10.5202806,3.64611667 L11.4278917,3.24139444 L12.3578917,2.90814444 L13.2896139,2.49825556 L14.3065861,2.58092222 L15.2985861,2.36306111 Z" id="Fill-1"></path>
                    <path d="M21.8856556,12.6143306 L21.9312944,11.6343861 L21.7349611,10.6776917 L21.3913778,9.77008056 L20.9246556,8.92963611 L20.4122944,8.10469167 L19.7018778,7.425275 L18.8235444,7.00333056 L18.0692111,6.38333056 L17.1245722,6.12155278 L16.1988778,5.81499722 L15.2206556,5.89938611 L14.2252111,5.75471944 L13.2762667,6.05438611 L12.3591833,6.40916389 L11.4205722,6.75791389 L10.6662389,7.41408056 L9.88779444,8.04871944 L9.29621111,8.86763611 L8.89923889,9.78988611 L8.77437778,10.7775806 L8.34382222,11.6920806 L8.28957222,12.7056083 L8.67879444,13.6244139 L8.84498889,14.5690528 L9.02582222,15.5266083 L9.52698889,16.3704972 L10.0720722,17.1704694 L10.7919611,17.8300806 L11.5566278,18.4259694 L12.3996556,18.9013028 L13.3279333,19.1648028 L14.2458778,19.4791083 L15.2111833,19.4283028 L16.1764889,19.4196917 L17.1064889,19.1751361 L18.0554333,18.9314417 L18.8028778,18.2942194 L19.5916556,17.7431083 L20.2590167,17.0550806 L20.84285,16.2843861 L21.2553222,15.4146639 L21.6962111,14.5432194 L21.8072944,13.5727472 L21.8856556,12.6143306 Z M24.4689889,12.5308028 L24.3665167,13.501275 L24.2597389,14.4691639 L24.0539333,15.423275 L23.7336,16.3446639 L23.2238222,17.1764972 L22.7088778,18.0074694 L22.2421556,18.879775 L21.4241,19.4429417 L20.7214333,20.1326917 L19.8551556,20.5873583 L19.0500167,21.1754972 L18.0649056,21.3227472 L17.1572944,21.6680528 L16.1980167,21.840275 L15.2206556,21.7558861 L14.2519056,21.7868861 L13.3124333,21.5423306 L12.3764056,21.3098306 L11.4455444,21.0463306 L10.4819611,20.7966083 L9.80168333,20.0594972 L9.05596111,19.4369139 L8.16471111,18.9615806 L7.58432222,18.151275 L7.20629444,17.2419417 L6.73526667,16.3894417 L6.42612778,15.4801083 L6.11871111,14.5587194 L5.96543333,13.6003028 L5.90085,12.6324139 L5.85004444,11.6516083 L6.09804444,10.6992194 L6.23065556,9.727025 L6.64226667,8.83233056 L7.05646111,7.94969167 L7.68679444,7.19708056 L8.15523889,6.32563611 L8.8846,5.66430278 L9.64065556,5.05205278 L10.4699056,4.53108056 L11.3172389,4.04713611 L12.2679056,3.80430278 L13.1841278,3.46071944 L14.1520167,3.33585833 L15.1267944,3.18171944 L16.0800444,3.48569167 L17.0703222,3.40905278 L18.0029056,3.73196944 L18.8976,4.12119167 L19.8697944,4.35885833 L20.5922667,5.04258056 L21.4258222,5.56355278 L21.9872667,6.37988611 L22.6675444,7.07910833 L23.2565444,7.85496944 L23.6207944,8.76430278 L23.9798778,9.66416389 L24.3122667,10.5855528 L24.46985,11.5551639 L24.4689889,12.5308028 Z" id="Fill-3"></path>
                </g>
            </g>
        </g>
    </g>
</svg>