<?xml version="1.0" encoding="UTF-8"?>
<svg viewBox="0 0 129 10" xmlns="http://www.w3.org/2000/svg">
  <path d="M.365 10c-.59-1.096-.508-1.247.562-1.814.438-.233.775-.565 1.197-.816.423-.253.855-.537 1.351-.678C5.002 6.258 6.18 5.496 7.313 4.68c.077-.056.087-.16.154-.294l-1.152.113c.235-.713.713-1.174 1.556-1.372 1.976-.466 3.94-.987 5.965-1.303 1.292-.2 2.682-.122 4.023-.078 1.23.04 2.45.22 3.68.308 2.194.158 4.399.256 6.587.448 3.387.296 6.753.77 10.15.941 3.217.161 6.462.02 9.695.025 3.515.004 7.039.143 10.542.004 4.409-.174 8.602.52 12.83 1.219 1.291.213 2.65.25 3.983.285 1.983.05 3.976.1 5.953.015 2.823-.121 5.642-.312 8.388-.876 2.096-.429 4.259-.707 6.31-1.222 2.662-.667 5.367-.357 8.057-.41.559-.01 1.12.24 1.693.305 2.774.318 5.45-.08 8.109-.611 1.04-.208 1.921-.6 2.857-.98 1.357-.551 2.996-.738 4.516-1.08 1.546-.35 2.96.181 4.434.331.749.077 1.524.01 2.287.01.674 0 .983.233 1.06.732.093.597-.52.602-.99.675-2.23.345-4.5.575-6.691 1.02-1.349.272-2.634.787-3.85 1.313-2.482 1.073-5.294 1.444-7.984 2.048-1.409.317-2.973.25-4.454.419-3.277.37-6.508-.214-9.761-.187-1.237.01-2.479.271-3.702.473-2.37.392-4.726.821-7.088 1.238-.252.045-.51.092-.743.172-2.847.985-5.879 1.109-8.907.802-4.293-.434-8.586-.926-12.818-1.594-2.513-.396-4.913-.103-7.364.029-1.1.059-2.27-.032-3.285.214-2.615.634-5.281.357-7.927.424-.465.011-.935-.17-1.41-.23-.83-.103-1.667-.174-2.498-.272-.417-.05-.849-.089-1.235-.202-2.997-.88-6.041-1.432-9.322-1.028-.91.112-1.891-.113-2.823-.05-1.973.133-3.934.366-5.904.53-.477.04-1.044.071-1.444-.074-1.037-.377-2.022-.166-3.056-.063-1.992.2-4 .32-5.998.491-2.51.217-4.893.67-6.968 1.814-.676.373-1.551.556-2.403.848" fill="#D9CE5F"/>
</svg>
