<?xml version="1.0" encoding="UTF-8"?>
<svg width="1114px" height="202px" viewBox="0 0 1114 202" version="1.1" xmlns="http://www.w3.org/2000/svg" xmlns:xlink="http://www.w3.org/1999/xlink">
    <title>Artboard</title>
    <g id="Artboard" stroke="none" stroke-width="1" fill="none" fill-rule="evenodd">
        <g id="Group-19" transform="translate(-495.000000, -62.863287)">
            <path d="M475.060368,119.524453 C475.060368,119.524453 563.700297,99.3704522 738.446327,119.524453 C913.196029,139.678454 967.25545,163.955291 1319.15935,77.7013466 C1516.70633,29.281291 1667.51548,35.1599264 1771.58679,95.3372528 L1767.74979,207.763989 L475.060368,251.566087 L475.060368,119.524453 Z" id="Fill-1" fill="#B85F36" transform="translate(1123.323580, 148.442016) rotate(4.000000) translate(-1123.323580, -148.442016) "></path>
            <path d="M213.868917,153.727599 C213.868917,153.727599 19.3679582,233.393288 215.222816,133.848905 C411.077674,34.3045222 666.021275,89.9986814 891.426669,157.967527 C1116.83206,225.936374 1609.81429,158.457034 1609.81429,158.457034 L1667.84935,269.214833 L637.032506,217.106946 C477.63484,200.638902 373.898922,189.582769 325.824753,183.938545 C278.920693,178.431699 241.602081,168.361384 213.868917,153.727599 Z" id="Fill-1" fill="#574CA1" transform="translate(897.836577, 174.475687) rotate(-2.000000) translate(-897.836577, -174.475687) "></path>
            <path d="M0,32.8632874 C0,32.8632874 177.633968,295.157405 758.569546,218.686817 C1339.50512,142.216229 1314.88537,167.688043 1562.45388,188.098582 C1810.01574,208.509121 1857,266.863287 1857,266.863287 L16.3133236,266.863287 L0,32.8632874 Z" id="Fill-1" fill="#3A3453" transform="translate(928.500000, 149.863287) scale(-1, 1) translate(-928.500000, -149.863287) "></path>
        </g>
    </g>
</svg>