<?xml version="1.0" encoding="UTF-8"?>
<svg width="2112px" height="317px" viewBox="0 0 2112 317" version="1.1" xmlns="http://www.w3.org/2000/svg" xmlns:xlink="http://www.w3.org/1999/xlink">
    <title>Artboard</title>
    <g id="Artboard" stroke="none" stroke-width="1" fill="none" fill-rule="evenodd">
        <g id="Group-18" transform="translate(-104.000000, 0.000000)">
            <path d="M83,48.9249677 C83,48.9249677 228.932487,9.79146295 516.625889,48.9249677 C804.325337,88.0584725 1179.57339,81.5365369 1458.9297,48.9249677 C1738.286,16.3133985 2155.23769,-38.4761563 2584.69201,41.0978885 C3014.14632,120.671933 3281,75.8846972 3281,75.8846972 L3281,317 L83,317 L83,48.9249677 Z" id="Fill-1" fill="#161320"></path>
            <path d="M0,245.649997 C0,245.649997 336.539588,344.182713 720.754838,289.81975 C1104.96602,235.456787 1500.39668,116.537651 1803.28597,170.900614 C2106.16713,225.263577 2252,317 2252,317 L0,317 L0,245.649997 Z" id="Fill-1" fill="#000000" transform="translate(1126.000000, 237.000000) scale(-1, 1) translate(-1126.000000, -237.000000) "></path>
        </g>
    </g>
</svg>