<?xml version="1.0" encoding="UTF-8"?>
<svg width="51px" height="51px" viewBox="0 0 51 51" version="1.1" xmlns="http://www.w3.org/2000/svg" xmlns:xlink="http://www.w3.org/1999/xlink">
    <!-- Generator: Sketch 63.1 (92452) - https://sketch.com -->
    <title>Group 25</title>
    <desc>Created with Sketch.</desc>
    <g id="Page-1" stroke="none" stroke-width="1" fill="none" fill-rule="evenodd">
        <g id="Shpadoinkle-Landing-(3/17)" transform="translate(-375.000000, -1586.000000)">
            <g id="Group-25" transform="translate(375.000000, 1586.000000)">
                <circle id="Oval" fill="#EDE171" cx="25.5" cy="25.5" r="25.5"></circle>
                <g id="Group-7" transform="translate(29.500000, 26.486111) rotate(-29.000000) translate(-29.500000, -26.486111) translate(14.000000, 14.000000)" fill="#000000">
                    <polygon id="Fill-1" points="3.265075 10.0470139 2.25240833 10.102125 2.01129722 11.1001528 1.66340833 12.0559861 1.35426944 13.023875 0.935769444 13.9581806 0.779908333 14.9717083 0.663658333 15.9800694 0.494019444 16.9824028 0.243436111 17.968375 0.246019444 18.9862083 0.210713889 20.0040417 -0.000258333333 21.0167083 0.290797222 22.0233472 0.0755194444 23.060125 0.470769444 23.935875 1.44726944 24.0633194 2.50988056 24.2183194 3.58540833 24.2174583 4.64888056 23.9892639 5.71751944 24.028875 6.78960278 24.1812917 7.95124167 24.1399583 7.82551944 23.0558194 7.83326944 22.0629583 7.82551944 21.0623472 7.48538056 20.1022083 7.53704722 19.1033194 7.59474167 18.1027083 7.44576944 17.1107083 7.44663056 16.0963194 7.77213056 15.1198194 7.67913056 14.101125 7.79968611 13.0901806 8.11485278 12.1240139 8.10710278 11.1044583 8.333575 10.0960972 7.30799167 10.1727361 6.29446389 10.1624028 5.28351944 10.1934028 4.28118611 10.0427083"></polygon>
                    <polygon id="Fill-2" points="22.47655 -8.61111111e-05 21.4647444 0.0662194444 20.4684389 0.239302778 19.4661056 0.276330556 18.4603278 0.249636111 17.4511056 0.334025 16.4272444 0.588052778 16.5478 1.59899722 16.4427444 2.54449722 16.3824667 3.51066389 16.4806333 4.47769167 17.4795222 4.60685833 18.4801333 4.65421944 19.4807444 4.70760833 20.4856611 4.87466389 21.4974667 4.68608056 22.5084111 4.77563611 23.5081611 4.98058056 24.50705 4.697275 25.5162722 5.00985833 26.5237722 4.82471944 27.5037167 4.54658056 28.5189667 4.59996944 29.5393833 4.64646944 30.4943556 4.27188611 30.3694944 3.34360833 30.3841333 2.42394167 30.33505 1.50771944 30.4624944 0.630247222 29.4997722 0.432191667 28.5112167 0.210025 27.5071611 0.204858333 26.4944944 0.197108333 25.4869944 0.0713861111 24.4863833 0.261691667 23.4797444 0.173858333"></polygon>
                    <polygon id="Fill-3" points="1.50186389 0.594511111 2.44133611 0.836483333 3.24130833 1.6244 4.14461389 2.29692778 5.25028056 2.0894 5.54650278 1.19987222 6.16650278 0.568677778 6.98800278 0.453288889 7.85255833 0.60915 7.98258611 1.52881667 7.93436389 2.47862222 7.85686389 3.42067778 7.90680833 4.3679 7.73544722 5.3134 7.904225 6.25028889 8.93239167 6.43628889 9.98294722 6.62917778 11.0455583 6.4604 12.1090306 6.61367778 13.2878917 6.62659444 14.4779472 6.67223333 15.1720028 7.02012222 15.3717806 7.72795556 15.4174194 8.71048333 14.4770861 9.07387222 13.406725 9.13328889 12.3957806 9.23059444 11.3865583 9.21165 10.3781972 9.12381667 9.36725278 9.26417778 8.35716944 9.09712222 7.35139167 8.99292778 6.338725 8.99465 5.33208611 9.16256667 4.32114167 9.18495556 3.31278056 9.15912222 2.17094722 9.06784444 1.25816944 8.23342778 2.48353056 7.99145556 3.27489167 7.21042778 3.92503056 6.3364 4.70691944 5.57603889 5.49828056 4.81309444 5.51205833 3.90892778 4.41930833 3.71173333 3.44366944 3.27084444 2.48180833 2.79034444 1.90228056 1.92148333"></polygon>
                    <polygon id="Fill-4" points="11.717225 0.143288889 10.7751694 0.0485666667 9.84430833 0.222511111 8.80150278 0.265566667 9.00041944 1.42031667 8.896225 2.48981667 9.05466944 3.55673333 8.91689167 4.62623333 8.965975 5.65784444 9.85550278 5.64148333 10.7889472 5.71726111 11.7111972 5.88087222 12.6532528 5.87656667 13.5892806 5.80078889 14.5106694 5.58120556 15.5638083 5.66731667 15.4949194 4.52031667 15.4639194 3.46545556 15.4096694 2.41145556 15.4535861 1.35573333 15.5000861 0.262983333 14.5132528 0.355983333 13.5625861 0.379233333 12.6532528 0.0304833333"></polygon>
                    <polygon id="Fill-5" points="23.1969556 6.13705278 22.4107611 6.86124722 21.8028167 7.57080278 20.8762611 7.38308056 19.9161222 7.30988611 18.9887056 7.08255278 18.0509556 6.906025 17.1183722 6.68816389 16.2400389 6.50560833 17.1028722 6.11896944 18.0655944 5.84599722 19.0713722 5.77538611 20.0797333 5.67033056 21.1104833 5.59541389 22.0904278 5.91488611"></polygon>
                    <polygon id="Fill-6" points="14.3050361 10.3559806 13.6721194 11.0552028 12.7292028 11.2412028 11.8060917 11.1714528 10.8209806 11.2515361 10.0606194 10.6160361 10.9742583 9.87806389 12.1324528 9.956425 13.2183139 10.1820361"></polygon>
                </g>
            </g>
        </g>
    </g>
</svg>