<?xml version="1.0" encoding="UTF-8"?>
<svg width="24px" height="22px" viewBox="0 0 24 22" version="1.1" xmlns="http://www.w3.org/2000/svg" xmlns:xlink="http://www.w3.org/1999/xlink">
    <title>Path</title>
    <g id="Revised-Landing" stroke="none" stroke-width="1" fill="none" fill-rule="evenodd">
        <g id="Shpadoinkle-Landing-(Revised)" transform="translate(-308.000000, -527.000000)" fill="#FFFFFF" fill-rule="nonzero">
            <g id="icons8-right_arrow" transform="translate(130.000000, 512.000000)">
                <path d="M191.035156,14.9880975 C190.628906,14.980469 190.257813,15.222656 190.09375,15.59375 C189.933594,15.96875 190.015625,16.402344 190.300781,16.691406 L198.277344,25 L179,25 C178.640625,24.996094 178.304687,25.183594 178.125,25.496094 C177.941406,25.808594 177.941406,26.191406 178.125,26.503906 C178.304687,26.816406 178.640625,27.003906 179,27 L198.277344,27 L190.300781,35.308594 C189.917969,35.707031 189.933594,36.339844 190.332031,36.722656 C190.730469,37.105469 191.363281,37.09375 191.746094,36.691406 L202.011719,26 L191.746094,15.308594 C191.5625,15.109375 191.304688,14.996094 191.035156,14.9880975 Z" id="Path"></path>
            </g>
        </g>
    </g>
</svg>