<?xml version="1.0" encoding="UTF-8"?>
<svg width="24px" height="22px" viewBox="0 0 24 22" version="1.1" xmlns="http://www.w3.org/2000/svg" xmlns:xlink="http://www.w3.org/1999/xlink">
    <title>Path</title>
    <g id="Revised-Landing" stroke="none" stroke-width="1" fill="none" fill-rule="evenodd">
        <g id="Shpadoinkle-Landing-(Revised)" transform="translate(-895.000000, -2005.000000)" fill="#121212" fill-rule="nonzero">
            <g id="Group-9" transform="translate(499.000000, 1990.000000)">
                <path d="M409.035156,14.9880975 C408.628906,14.980469 408.257813,15.222656 408.09375,15.59375 C407.933594,15.96875 408.015625,16.402344 408.300781,16.691406 L416.277344,25 L397,25 C396.640625,24.996094 396.304687,25.183594 396.125,25.496094 C395.941406,25.808594 395.941406,26.191406 396.125,26.503906 C396.304687,26.816406 396.640625,27.003906 397,27 L416.277344,27 L408.300781,35.308594 C407.917969,35.707031 407.933594,36.339844 408.332031,36.722656 C408.730469,37.105469 409.363281,37.09375 409.746094,36.691406 L420.011719,26 L409.746094,15.308594 C409.5625,15.109375 409.304688,14.996094 409.035156,14.9880975 Z" id="Path"></path>
            </g>
        </g>
    </g>
</svg>