<?xml version="1.0" encoding="UTF-8"?>
<svg width="1440px" height="263px" viewBox="0 0 1440 263" version="1.1" xmlns="http://www.w3.org/2000/svg" xmlns:xlink="http://www.w3.org/1999/xlink">
    <!-- Generator: Sketch 63.1 (92452) - https://sketch.com -->
    <title>Group 15</title>
    <desc>Created with Sketch.</desc>
    <g id="Page-1" stroke="none" stroke-width="1" fill="none" fill-rule="evenodd">
        <g id="Try-Shpadoinkle-(3/17)-" transform="translate(0.000000, -282.000000)">
            <g id="Group-3" transform="translate(517.124881, 432.281018) rotate(-6.000000) translate(-517.124881, -432.281018) translate(-555.875119, 219.781018)">
                <g id="Group-15" transform="translate(-0.000000, 0.001608)">
                    <path d="M561.60769,138.598892 C586.904267,139.799852 619.942625,142.167885 662.578354,146.052589 C965.934729,173.694767 1014.85845,320.556556 1350.83063,190.780753 C1667.39251,68.5025597 1847.59609,63.3608609 2000.10871,128.260845 C2009.46017,132.240252 2018.70753,136.482992 2027.87582,140.978207 C2186.56949,218.785697 2129.82372,194.942484 2129.82372,194.942484 L2030.30589,274.560798 L2000.17178,274.896909 L556.446107,291 C456.763944,184.503465 458.484471,133.703096 561.60769,138.598892 Z" id="Fill-1" fill="#F47C62" transform="translate(1311.321244, 189.000000) rotate(6.000000) translate(-1311.321244, -189.000000) "></path>
                    <path d="M312.181655,253.563472 C312.181655,253.563472 82.725017,347.55625 313.778876,230.109791 C544.832734,112.663332 704.838848,135.026164 1023.55717,230.480099 C1342.2755,325.934033 2049.3844,242.487602 2049.3844,242.487602 L2031.76653,358.230981 L816.396305,312.767628 C625.018268,303.720197 500.972224,295.86684 444.258174,289.207558 C388.924524,282.710361 344.899018,270.828999 312.181655,253.563472 Z" id="Fill-1" fill="#3A336B" transform="translate(1130.028467, 254.230981) rotate(3.000000) translate(-1130.028467, -254.230981) "></path>
                    <path d="M0.17817443,271.587108 C0.17817443,271.587108 303.691453,319.963934 650.201743,293.27323 C996.708365,266.582525 1353.33344,208.196532 1626.49869,234.887237 C1899.65661,261.577942 2031.17817,319.062422 2031.17817,319.062422 L0.17817443,319.062422 L0.17817443,271.587108 Z" id="Fill-1" fill="#3A3453" transform="translate(1015.678174, 273.562422) scale(-1, 1) rotate(-6.000000) translate(-1015.678174, -273.562422) "></path>
                </g>
            </g>
        </g>
    </g>
</svg>