<?xml version="1.0" encoding="UTF-8"?>
<svg width="1440px" height="217px" viewBox="0 0 1440 217" version="1.1" xmlns="http://www.w3.org/2000/svg" xmlns:xlink="http://www.w3.org/1999/xlink">
    <!-- Generator: Sketch 63.1 (92452) - https://sketch.com -->
    <title>Group 18</title>
    <desc>Created with Sketch.</desc>
    <g id="Page-1" stroke="none" stroke-width="1" fill="none" fill-rule="evenodd">
        <g id="Try-Shpadoinkle-(3/17)-" transform="translate(0.000000, -2194.000000)">
            <g id="Group-18" transform="translate(-74.000000, 2194.000000)">
                <path d="M56,33.491224 C56,33.491224 155.935005,6.70267338 352.94831,33.491224 C549.965756,60.2797745 806.936752,55.8152319 998.240787,33.491224 C1189.54482,11.167216 1475.07459,-26.3385676 1769.1662,28.1332549 C2063.2578,82.6050773 2246,51.9463069 2246,51.9463069 L2246,217 L56,217 L56,33.491224 Z" id="Fill-1" fill="#161320"></path>
                <path d="M0,168.39281 C0,168.39281 230.436965,235.518223 493.518632,198.483455 C756.597516,161.448686 1027.35865,80.4350249 1234.75443,117.469793 C1442.14463,154.504562 1542,217 1542,217 L0,217 L0,168.39281 Z" id="Fill-1" fill="#000000" transform="translate(771.000000, 162.500000) scale(-1, 1) translate(-771.000000, -162.500000) "></path>
            </g>
        </g>
    </g>
</svg>